<mxfile host="Electron" modified="2024-07-15T02:47:25.991Z" agent="Mozilla/5.0 (Windows NT 10.0; Win64; x64) AppleWebKit/537.36 (KHTML, like Gecko) draw.io/22.0.2 Chrome/114.0.5735.289 Electron/25.8.4 Safari/537.36" etag="gvlt2h5g5eX1eqN_kfzM" version="22.0.2" type="device">
  <diagram name="第 1 页" id="Wu4fFUOfNRckYp_jqiM0">
    <mxGraphModel dx="2375" dy="902" grid="1" gridSize="10" guides="1" tooltips="1" connect="1" arrows="1" fold="1" page="1" pageScale="1" pageWidth="827" pageHeight="1169" math="0" shadow="0">
      <root>
        <mxCell id="0" />
        <mxCell id="1" parent="0" />
        <mxCell id="IZ7TEZmCJwXZEfYCzUx2-1" value="" style="shape=image;aspect=fixed;image=data:image/png,iVBORw0KGgoAAAANSUhEUgAABLAAAAFoCAYAAABHdAIqAAAAAXNSR0IArs4c6QAAIABJREFUeF7sfQd0VVX6/ZfeE9JIIQEEA0gRKUoQlCYCgoISxXEc1MGu89MRLIOOM5ZxmLHPOAUsKJaRJiAo0kEpQXAAFekOkF5fenlp/7VPuPk/keS9JN997+Xw3bVcKtx3y77nnnvOPnt/26OhoaGBZBMEBAFBQBAQBAQBQUAQEAQEAUFAEBAEBAFBQBAQBNwUAQ8hsNz0ychlCQKCgCAgCAgCgoAgIAgIAoKAICAICAKCgCAgCCgEhMCShiAICAKCgCAgCAgCgoAgIAgIAoKAICAICAKCgCDg1ggIgeXWj0cuThAQBAQBQUAQEAQEAUFAEBAEBAFBQBAQBAQBQUAILGkDgoAgIAgIAoKAICAICAKCgCAgCAgCgoAgIAgIAm6NgBBYbv145OIEAUFAEBAEBAFBQBAQBAQBQUAQEAQEAUFAEBAEhMCSNiAICAKCgCAgCAgCgoAgIAgIAoKAICAICAKCgCDg1ggIgeXWj0cuThAQBAQBQUAQEAQEAUFAEBAEBAFBQBAQBAQBQUAILGkDgoAgIAgIAoKAICAICAKCgCAgCAgCgoAgIAgIAm6NgBBYbv145OIEAUFAEBAEBAFBQBAQBAQBQUAQEAQEAUFAEBAEhMCSNiAICAKCgCAgCAgCgoAgIAgIAoKAICAICAKCgCDg1gi4HYFVX19Pt9xyC1VWVtKqVavcGjy5OEFAEBAEBAFBQBAQBAQBQUAQEAQEAUFAEBAEBAHzEXA7Aqu6upoCAwMpNjaW3nnnHZowYYL5KMgZBAFBQBAQBAQBQUAQEAQEAUFAEBAEBAFBQBAQBNwWAbcjsAoLCyk6Opruuusu2rdvH+3evbtF8JYuXUo33XST2wIsFyYICAKCgCAgCAgCgoAgIAgIAoKAICAICAKCgCDQPALz5s2jxx9/vEWI3I7ASktLo+7du1NNTQ3169eP7rnnHnr44Ycdes4gspYsWeLQvrKTICAICAKCgCAgCAgCgoAgIAgIAoKAICAICAKCgGsR+Pe//60u4N5773U/AquiooL+8pe/UHJyMk2aNOknF3jo0CHq378/1dXV0aZNm5SF8N1336WCggJ66KGHWrwZIbBc2+jk7IKAICAICAKCgCAgCAgCgoAgIAgIAoKAICAItAYBtyawRo4cSampqdTQ0EAlJSUUFBTUdG+wDF5++eWKwDLIrHHjxtG6devIw8NDCKzWtALZVxAQBAQBQUAQEAQEAUFAEBAEBAFBQBAQBAQBN0bAbQksq9VKf/zjH2nu3LkUExNDjz32GP3hD39ognLz5s00ceJEmjx5MuXk5Ki/mz59Om3bto2GDBkiBJYbNzq5NEFAEBAEBAFBQBAQBAQBQUAQEAQEAUFAEBAEWoOA2xJYtjdRVVVFERERtH//furVq5f6q5MnT9L48ePpueeeo5tvvln92fPPP0/h4eH0wAMPCIHVmlYg+woCgoAgIAgIAoKAICAICAKCgCAgCAgCgoAg4MYIdAgCC/jNmDFD2QWXLVvWbjilBla7IZQDCAKCgCAgCAgCgoAgIAgIAoKAICAICAKCgCDgNAQ6DIGVmZmpUgePHj2q/t2erSUCKz09XdXQCgkJac8p5LeCgCDgBgiUl5erpNKuXbu6wdXIJQgCgoAgIAgIAoKAICAICAKCgCAgCLQVgQ5DYOEG33zzTWUPhFVw7dq1tGXLljbdd3MEVmlpKVksFpnstglV+ZEg4J4I4J329/engIAA97xAuSpBQBAQBAQBQUAQEAQEAUFAEBAEBAG7CHQoAgsJg9dccw29+uqr9H//9392b665HZojsJB0GBoa2ubjyg8FAUHA/RAAMZ2bm0s9e/Z0v4uTKxIEBAFBQBAQBAQBQUAQEAQEAUFAEHAIgQ5DYP3jH/9QCYMo2t67d2+Hbk4IrHbBJD8WBLRAoKysjLKzs+nCCy/U4n7kJgQBQUAQEAQEAUFAEBAEBAFBQBA4HxHoMAQW58MRBRYnmnIsQcC9ERACy72fj1ydICAICAKCgCAgCAgCgoAgIAgIAo4gIASWDUrnm4Vw69atdPLkSbr99tsdaSut3ueHH36gpUuX0h/+8IdW/1Z+0D4EUC/ukksuoUsvvdShA+E5Ybvxxhsd2t+Mnd5//32KjY2l8ePHsx5eCCxWOOVggoAgIAgIAoKAICAICAKCgCAgCLgEAVMILBRa/+abb+jrr79WiX7G1tDQQIMGDVJWntdff11NVl2xtVqBNXo0UVAQUVkZka8vkY8PUWkpEeplFRcTBQY23kZFBVFYWOOf4e+qq4nq6hz/LY59zTVEc+Y4DEugcW4iVaQ6OTmZfv/736t/29ueeeYZAonV1mL49o4PUgRY47l3hG35rnw6lFZB/r6eVFffoP7x8/Gk6pp68vL0IG9PD6q01lOAnydVVteTr09j27bWNKg/q7LWq/0d+S1+99RNjiXj2T7jc+F4/fXX04cffviTv7rssssUMXn//fc7BD2eE7YlS5Y4tP+f//xnio6OpjvvvNOh/R3Z6eqrr1ak21//+ldHdnd4HyGwHIZKdhQEBAFBQBAQBAQBQUAQEAQEAUHAbRFgJbD+9Kc/0dNPP01jxoxRSX4zZsyg0aNHk5+fnwJg48aNBJVFYWEhrV+/nh599FGVKOjsrdUE1uzZRBdfTHT8ONF99xFNn0709ttE69YR5eQQzZxJNHcuZv9Ezz1H1Lkz0bXXEuHefvMbov37Hfvtb39LlJBA9LvfOQwJCEKDIKqsrKSbb75ZJTRarVaHjyE7NiKwZEcexYf70ebviug3k+PVv2PCfKhrtD9tOGChqZdF0r4fy6iksk799z8+z6SUEdG041AxhQV6U/9uQfT2hmyHfvviynT63fTENkFv+8zbdIBz/Ki1BNbkyZOpe/fuhNp07r4JgeXuT0iuTxAQBAQBQUAQEAQEAUFAEBAEBAH7CLASWLAr7dmzx/5Zz+wBcgsKIGdvrSawhg4lGjyY6I03iEaNItq1i+iJJxove948ouHDibZtI3rwQaIRIxr3SUkhWras8c937HDst4cONSqw2khgGTiC4IB9LyYmhi6++GLKyMhQf7Vq1Sq67rrrmuA+W4GF30GB89lnn9F7772n/tvWUnbw4EHq378/4d99+/ZVxwkPD1eWL0O58/e//12RGocPH1b2QVsFVn19vVLtgMDE9thjj9Ff/vKXpuvBeadMmaL+/5ZbbvmZqsjsdgICC9tNI6Lp2cWnaW5KIi3amkO94gKoT0Ig/f2zTEVOHU6voKNZlTRzdAy9sCyNnp7RVZFfrfltTW0D3TMhrk23ZEtgAcP9+/cTEjqBbbdu3ZT60VaBVV5erhSPc+fOpYsuukg9G6R44s+M7VwE1ssvv0xzzqgBn3jiCYLqCputqtL4/blUdn/84x9V8IKh8Fu2bJlqT6tXr256zkOHDqW7775b/XO2Amv58uWUgveIIGIMUqT35Zdf3nTNUJihnWL79NNP6VqQxufYhMBqUzOTHwkCgoAgIAgIAoKAICAICAKCgCDgVgiwElhudWctXEyrCax77iH6+9+JYLN64QWiRYuIYmKIJkwgmjWLaPlyon/9iwgpZ5dc0rjvU08RrV5NlJtL9PvfO/bb//2PCGo1BgIrNzeX7rrrLvrlL39JXl5eVFdXp9Rx+P+ncG1EdC4Cy8fHhz744ANFUgwfPpwSoAg7s4Gk8PT0VMSULbEAIhLkE7aoqChFqOB3tgQW/gz20ddee02RLDU1NfTtt9+qVElsIGKg0Pvd736nzgHiIzU1VdlQnbWBhIINEBbCEReF0bIdefTANfG06usCCg3wokE9gtV/jx8YTqfzqiinuIbGDuikiK1Z42Pp+1PlVFxR69BvN35bRH+8uVubbu1sAuvdd99VaigoGkEoXnXVVT8hsPLy8ig+Pl49U+PZ3nrrrQTr4ccff6yu4WwCCypKJPfh+eB5gIxKSkoikEp4riCzOnfuTLPQ/pupnVVaWqpItaqqKrUPrvPhhx+mBQsWNJ0PbRN/j3ZnS2Dh+LBFon6at7c31dbW0rFjxxQJh1p1Q4YMoUmTJimFJ9o29r/hhhua2rYtsEJgtamZyY8EAUFAEBAEBAFBQBAQBAQBQUAQcCsEnEpgYeKJyXBwcLBLQWg1gXXbbURHj5pjG7S1HP7f/zWquVpJYEHRgg1EAJQsIDP++9///gxjEFY7d+5Uah1s5yKwFi1aRL/61a+afT4jR46kCRMmqDpbIJ169eqliBOLxUIgLEBgVaP2F9FPCKwVK1YoggHqK5AsZ28gMv73v/8p6ym2oqIitd+GDRsUIeOMDQRWUlwAHcuqbLUlsLV2wmU78+neiTwKLLzEeLdsN1sFFggskE1Q4oHIMja8i8XFxRQSEvITAgttZ9y4ceqZ2m7+/v7queDfjloIIyMj6cCBA4rQhHpv7969qv2AoIRKcOLEiXT69Gl1GlsCC+8olGMGMWp7HQYxChIU5Ba27du3q3aLNnT2JgSWM94eOYcgIAgIAoKAICAICAKCgCAgCAgC5iJgGoE1ePBgZSWDigcb7D2ff/5502TT+HNzb+/cR281gYV7MMs2aGs5hFWxW7dWE1i2dwmyB1YrQ6UD6xVqYxlbv3796Pvvv1f/25yF0LANgnQC+YFt4MCBNGzYMFVvC8QH/o1zgEx49tlnlZoKx4NdzLCF2iqwUJPLqIWGZw8CA6obYzuXLQ1/d7aN0cz2AgLrcHplmyyBrbUTBvp50uM3tL8GFkhEqNTOtuKeTWDBTgoLp+12wQUX0AsvvEC/+MUvfkJg4f0wUgnPxhtE0YgRI35GYKGdoL0YG+x9vr6+yqb4z3/+k44cOUJhYWGKMDMUVShOj7REqAKx2RJYx48fV4ovbL/5zW/UcYw2Mm/ePKXUO9d2LiujEFhmvjVybEFAEBAEBAFBQBAQBAQBQUAQEAScg4BpBBbICkOJ89VXX9GoUaOUHQgTTBAehw4dot69ezvnLs86S6sJLKPelRm2QVvLIWpsRUa2msA616T9xx9/pJ49eyrrF+pKQc0E+xdsXKhhhc0egbVp06amelV4VqinhQ0KHKh0QIbl5+er+kMgrgyrmFEP6+waWLhOqMUyMzMVKQFLIcgXKGlAdpwrAe9sG6OZDQYE1oWxAbRmb2GrLYGttRMu3JRDj17//+2Zrbmvc9XAAmlpu51NYEF5BZxtN6SBwlY6c+bMnxBYCF9AG8H7evYGyx5sgWcrsKCsQ3sxtmnTpimC0mgDsAP+5z//Uc8fqqvZs2crwgptEso8bGfXwEpPT6ddu3YpchQBEdOnT1fHw3/DBnuu9mJbs824FiGwWtO6ZF9BQBAQBAQBQUAQEAQEAUFAEBAE3BMBUwgsFIlGsfCjsN0RqVo2mCSjVg022MUWL17cVEfJ2dC0msCCMgo2Nq60weaSCt95h2jiRBYCa+XKlarGUUVFBQUEBCiIURgddi5HCazmnsvYsWNVfSQ8X9QmMoqvwyIGZQzOg+1sAuvs44HgwLXAhggCC5YykCqu2kBgeXp40LRh7UsYdMRO+O2pCrp/Eo+FEPXF7BFYsBDCZgi7oLHhPUxLS1O2QtsaWF988QXddtttlIOEzWY2vN845ltvvdXi4zKUVCBTQX5hfyiuoBgDkYl/4uIacTibwLI9sG1bMorBg5iCwtDeJgSWPYTk7wUBQUAQEAQEAUFAEBAEBAFBQBBwfwRMIbCgrkKB5ZMnTzZNTEGiIAUPW4cjsKDA4kwbbC6p8IILGltMK2tgnUuBdeLECUUGffTRR8oihgLYAwYMUKqs9hJYhsUM9jMQVqhVZNQ1s70WW9IB/432gHpZ2AzSy9gfx/zyyy8VMYYNxBgKxUNtA6WXMzajiHttfUO7EgYdsROeyq2mZ37BU8TdUQILGIJEhgUUxA/aAtRN2M4u4g4FFxJFYfkLDQ1V+0ANB0WUsT8ILlhB7W2G9Q82QpCVUOuBBMVm217OroH1wAMPKOUmNhBqqM+G/dE2QH5CybV27Vr196jXhcTEt99++2eXIwSWvSckfy8ICAKCgCAgCAgCgoAgIAgIAoKA+yNgCoGFSSbq3CBxDpNk1L9CKh4KOmPrcATWNddghkzUqxf8c0TffEOEifWRI0QoSA9r4Z49RFdeSXTgABFqO/XtS7RxY6NyC5N8R3+LY7SCwGpOTQacUZPo+eefJ6hgkN4GAgtkB/4bG0glkFmwGRqkxCOPPELJyckttlyoZ1DXCCo6g5zAdURERJDRoHAApAi+8soryuoFO9g777yjFDgFBQUEixnIL6i2sKE+EwiKV199VSm7UEMNiXUo+G0QKGa/TiCwSirqKC2/mrp39qeaugbKtlipT0IAHTxdQf26BlJGgZXq6xsoMdpP1cvqEetPJRW1VGVtoLgIXzqcXuHwb5+e0ViwvrUbrJ+GvQ+pgiAGjWRJ41h4xiB/gB/qU6HeFfYFKQTVEwhmpAEaKZPAHdtvf/tb9W88o82bNyuLIQqjo3g/6lohvRAb/gxhAGgLeHbnsvMZ1/Lkk08qAtV2H7QXEGLG+bAv2ioCCHAOEGWoj4U2ilpZ9957rwoNMBRXqOv2xhtvqNpYKCyPPuaee+5RKq+zNyGwWtvCZH9BQBAQBAQBQUAQEAQEAUFAEBAE3A8BUwgs3ObChQtp1qxZiuBAjRujKPSOHTvoiiuuINgMocZwxdZqC6ErLlLOKQgwIWAQWCByzsdNCKzz8anLPQsCgoAgIAgIAoKAICAICAKCgG4ImEZguTNQQmC589ORa+NGQAisMmVNdWV9Ne5nKscTBAQBQUAQEAQEAUFAEBAEBAFB4HxDQAgsmyeOItfOsqudbw1N7td1CCAN9PPPP1dF/c/HTRRY5+NTl3sWBAQBQUAQEAQEAUFAEBAEBAHdEDCNwELx5w0bNtDevXtVvZyzN9S+sVdrySywRYFlFrJyXEHA/RAQAsv9nolckSAgCAgCgsDPEZi/LouyLFaKC/elwrJa8iCi8GBvyiy0UnyEL+UU1VBIgBf5eHlQXkkNxXTypfKqOqpvaKCwQG/KLjr3b1HD86YR0QK5ICAICAKCgCDQ4REwjcBC8WgQWEaR77ORQgFwpMy5YhMCyxWoyzkFAdcgIASWa3CXswoCgoAgIAi0DgEQWP0SA+loVqUpacituxrZWxAQBAQBQUAQcD8ETCOwkDT49ddf05AhQ9zurlsisEJCQpol3dzuRuSCBAFBwC4CpaWlKomxR48edveVHQQBQUAQEAQEAVchAAJr0uAIOp1XRTnFNTR2QCf6+2eZNGt8LH1/qpyKK2ppxEVhtGxHHj1wTTyt+rqAQgO8aFCPYPXf4weG/+y3OEampVoUWK56qE4878ncKvpgay75+3pSXX2D+sfPx5Oqa+rJy9ODvD09qNJaTwF+nlRZXU++PtD4EVlrGtSfVVnr1f5n/7aBiJ5MaVtythNvX04lCAgC5wkCphFYIIIwcXTHrTkCC9eLf+Lj493xsuWaBAFBoA0IFBQUkK+vL6FPkk0QEAQEAUFAEHBXBEBgeXt50NTLImnfj2VUUlmn/vsfn2dSyoho2nGoWFkF+3cLorc3ZNNvJsfT5u+KKCbMh7pG+9OGA5af/fb1NRmUGOUnBJa7PnTG6/pfThWt3F1ApZV1DrUNR9vVsp359MjULoxXKocSBAQBQaDtCJhGYPXp04cOHTrklmqm5ggswIhrxmQ3IiLCLa+97Y9afikInH8IgLzy9PSkCy644Py7ebljQUAQEAQEgQ6FAAis6cOjlOoK5NTh9Ip22wlH9Qujb06UCYHVoVpC2y4WBNae46XqWT+7+DTNTUmkRVtzqFdcAPVJCGxzuwoP9iHUUZNNEBAEBAF3QMA0AisjI0OlnnXv3p3i4uLI39//J/d766230oABA1yCQUsEFi6ovLyc6urqXHJtclJBQBDgQwDkVVBQkJDRfJDKkQQBQUAQEARMQgAEVo8Y/xYtga21E35/uoIiQryFwDLpmbnTYUFgvbs5R5FNrbWattSucoqsdP8kcae407OWaxEEzmcETCOwXnzxRXriiScoMDCQwsLCfjaBxIknT57sEuztEVguuSg5qSAgCAgCgoAgIAgIAoLAeYsACKyoUJ8WLYGO2r4MO2HqkVKqsNYJgXUetCpDgYVbba3VtKV2tf6AhWZIiuV50ILkFgWBjoGAaQQWirivWrWKpkyZ4nZICIHldo9ELkgQEAQEAUHAjRGorq2ng6cqTLnCC2L8KTzY25Rjy0EFgY6EAAisWVfFsti+DMvY5KERhOLesJXJpjcCILDe35pLT8/oSkt25Kmb5bATTh0WSQO7B+kNntydICAIdBgETCOwOmIR9w7z1ORCBQFBQBAQBAQBJyJgKaul11ZnUGigF00YFE5Ld+TTyItCqb6BaOfhEjVJ+iQ1n667LJIOZ1RQQUkNjerXidbts1D/boEU6OtJu4+VNvtbqa/ixIcpp3JbBEBgIQnO0YRBR+yEi7fnUXSYjxBYbvvU+S4MBNaGA0WUbbG2K7ny7Hb1zsZs+v1NkkLI96TkSIKAINAeBEwjsGJjY+n06dOqILoZW3FxMW3YsEEdevTo0RQVFeXwaUSB5TBUsqMgIAgIAoKAIEAGgQXSiiMZzdau0i8xSAoESxsTBIgIBNaUSyMdThh0xE4YEuBNRzIrhMA6D1oYCKyt3xfTr0Z3bldy5dntKiHST5s+GosqNbUNprSGKZdGmHJcZx40q9CqQh/M2MZe3IkC/TzNOLQc8zxDwDQCa926dXTNNddQdnY2RUfzypZzcnKoS5cu5OPjo4qt9+jRgw4fPuzwoxMCy2GoZEdBQBAQBAQBQaCJwOJKRps5OoZeWJamrC4HT1doMzmSpiIItAcBEFiw03LYvowEOm9PD/L39RQCqz0PpoP81iji3q2zH9n2se21E6KPfuYX3ToICi1f5l9XpFF5VT1byidwfn7JaQIlpgNGeNa7j5W0O7ny7NRLKAMfvraLlAvQ4i1y/U2YRmChBlZDQ/MM95IlSyglJaXVCCAhsHfv3vTJJ5/QZZddRjU1Nerfr732Go0aNarZ4+3atYteffXVpr/H+WUTBAQBQUAQEAQEAfsIGAqsrtF+NH5gOJ3Oq6Kc4hoaO6CTimZ3xMq06uuCc/52+vAoIbDsPwLZ4zxAAARW987+VFxRy5Yit3J3AdU3NAiBdR60HxBYqUdLKTHSl61/Nvp2WMd12F5elU63jYmh5r5HbfmWJfcKoQXrs7UhsHp3CVD4hAZ4sSWivr0xWwgsHV4gN7kH0wisbdu2tXiLffv2bbMyKzU1lZKTk5uO/+yzzyoL4f333+8QrKLAcggm2UkQEAQEAUFAEFAIGAQWCkwb6Wb7fixjsRMeyagUAkvamSBgYyHccaiYLUVuytAIOp5dKQTWedDCQGCtSC2gmWM6E1f/DDth38RAGn+JHgTWvE/SaGSfUOoa7c/2LUsvsKqgBF0UWMt35SuF2ubvitgSUU/nVQuBdR70Qc66RdMILK4b2LRpk6pxBUVXc9v48eNpzZo15Ofn59BphcByCCbZSRAQBAQBQUAQ+AmBNX5gJzrbGnA0q7JddpVhSaFCYEk7EwTOEFg5RTXsKXJ9EgKEwDoPWhgIrLX/LSS0IU6793NLTmtBzqAJQIEFm26vuADWbxkscroQWAhVeXbxaTJsyFxYiYXwPOiEnHSLbk1gzZkzR9n+kGiIWlr+/v7nhCUgIIAqKysdhkwILIehkh0FAUFAEBAEBIEmBdbF3YNYbQWwIoYH+wiBJW1MEDhDYKH+VXttubY2qKS4ADqWJQqs86GBgcDacbiEJg4KZ7XIwVLWv2uQFhCiBtYj1yWwWuQuSwqhZTvztSGwDqaVs1mYDSvi9kMlosDS4g1yj5tgJbAuueQSeuqpp2jixIkUHBzc4h1+/vnn9PLLLxMUVufaSktLacqUKbR48WLq1q2bqnF13333/WzXU6dO0S9+8QvauXOnqrm1atUqmjZtWovnFgLLPRqfXIUgIAgIAoJAx0DAsBBiBZXTVjD1skilFsCKr2yCwPmOAGpgRYX6EN4LRxIGHbFBVVnrpYj7edKwQGC9vzWXxg4IY7XIfXuqnGZPTdACRRBYVdYGVovc6j0FlFtcoxWBFRboTf27BbElon57slwILC3eIPe4CVYCC6TUtddeq+6sZ8+e9NFHH9HQoUOb7nTv3r1055130nfffaf+7PXXX6cHH3zQLhJlZWUUFhamEgfP3n79618TCrt//PHH1LVrV3XerVu3CoFlF1XZQRAQBAQBQUAQcAwBg8Dy8vRgtxVAcSIElmPPQfbSGwEQWP0SA6m9ttzmEuj0Rk/uDgTWnuOlVFZVx26RG9k3TAuAYSEEGcdpkesZF0D//iJLGwIL3+P2JleisdimqcKGKhZCLV4ht7gJVgILdwSSafXq1bRgwQJat26dukkoozw8PNR/jxkzhu69914aO3YsRUREOAwC9k9KSqL58+f/5Dc33ngjoWA8jr9s2TK64oor7B5TFFh2IZId3AwBrO6cyq2mvJIaujDWX8X1nsiuoksvDKF9/yujAV0DqaCslgpLa+mihEA6lF5BESHeFBHsTd+frqBLLgiivcfLfvbbAyfL6Mkbu7rZ3crlCAKCgLshYBBYd0+Io2U78uiBa+LZLBiiwHK3py3X4yoEQGBNGhzBmvKJpNBMS7XUwHLVQ3XieUFgfbIrnx66tgtb/wwLWGKUH12tURH3HjH+rBa5uvoGOni6QhsCC0Xc25LG2FIqcWFZrRBYTuwLdD8VO4F1NmAgr0pKSpSCqj0b1FsgpzIzMyk8/P8nYTzxxBOKCHvsscccPrwQWA5DJTu6CQIgsDCBvOXKzmy2AsiDvz+tjyzcTR6VXIYgoCUCBoF1eZ9QVltBTJiP1MDSssXITbUFARAE2EbxAAAgAElEQVRY3l4eykLIlSL3+poMRUBADdHRt7T8aiqp+Lkbo7335elJavGvo28gsFbuLqDSyjpWixzqOz0ytUtHh0ddPxRYeB/MsMjpUsQdNc+4LMwGzgvWZQmBpcUbZP8mkPTp7emhBEwQXEC5X1PXQD5eHgSyF5vtn9XWNZCnpwdB6lRb36C+gQ31P/8t/vyhKY39kOkElv3bdHwPFHQHYbVjxw5lRdy/f7/jP7bZUwisNsEmP3IhAiCw4B+Pi/BtV9rX2baCoxmV9NRNosBy4aOVUwsCHQIBg8AyrH621oBFW3PaZVeRFMIO0QTkIp2AAAis6cOjVBF3rhS5Uf3C6JsTZVoQWLA1hQV4U1pBNfl6e9CFcQG0bp+FruwXRiUVtXQko5KQlLp6TyFdd1mkstNhg1p9zd5CVdwc9ZzO/u3e46X0+A2JTnjC5p7CsBBy9s9IoNMpaOMvn6SpZ81pkbtvUhy98VmmNgqs3cdKWOcaaPVQqImF0Nz3312O/of/nFL9MHdiNcahRi2+DkVgrV27VhV2v/3221VBd9v6Wq15aEJgtQYt2dcdEACBBYY6OtSHcoprqCWZbmusPR9uy6HHru/4gzZ3eEZyDYKAzgjYWgi/P1VOxRW1bBYMTDqlBpbOrUfuzVEEQGDB3jSoRzBbihzKCKCkgA4KLJAOUGFhFd5IN+PAKr+kRhsC693NOao/HXFRGJvdO6fISvdPine0Gbv1fi+uTKfK6npWi9xH23JV3TFdFFiWshrWuQbGDDsP65FCWFFdT5u+tZjSxof0DKH4CF9Tju3Mg4LA6t7ZnxIifVm/ZdsPl9ATZxYaOgyB9fbbb6skwhdeeKGpUHxbH4YQWG1FTn7nKgRAYB3PqqJfje7MZiuAPLi6tl4ILFc9VDmvINCBEDAILNTVSxkRTTsOFbNZMKA4EQKrAzUGuVTTEDBSCGGtdSRh0BEbVOqRUqqw1mlDYMWH+6kkVCjUuBJRP9iWQ3NTOr4a3VBgoYE60jYctamuP2ChGRpYUIHLSyvTlRKI0yIHy93CTTnaEFgxnXxY5xoYM+hiITTGQqgtfDK3mjoFeamUV7x7A7oFEZwtwQFeFB7sTccyK6l/1yA6cLKcLojxV5Y6EPB9EwN/9tu4cD+6LClEi7EQCKy7r46l1KOlxPkte29LTsdUYHGNGITA4kJSjuMsBEBgYYUQnSWXrQB2wnnL08RC6KyHKOdxawSOZlYS3jMztuuHRVGPWH8zDu20YxqDtt/f1JVeWJZGT8/oymbBgLVACCynPUo5kRsjAAJr1lWx1F5bLmxfhn1j8tAIOplbpQ2BhcfHbZHbfay0aWLkxs3D7qVhEv3+1lzW/hlpfVOHRdLA7kF2z98RdkB9ns5hPqwWOXwfMwut2hBYUDpyzjUwZkDtIx0shMZYiNsit/1QCV17aaQWYyEQWKhnhRI1nN+yIH/PJtFFh1FgcXaKQmBxoinHcgYCmFhDnjx+YDibrQBWRAxqDT+xM+5DziEIuCsCIFEwaBvdP4ystQ2051gpTb88ipDGc0NylAo8wMAFf//5NxaV7ImClHtPlNGEQeH08Vfn/i0KWd4wPIp6xQe46607dF3GoO3i7kFsFmbDitgvMUiLQZtDQMpOgkALCIDAqrLWs6Z8Lt6eR9FhPtoQWMAHigdOi9yRjAptFFgbDhRRtsXKapF7Z2M2YfFCh+2lVemUnBRiikVOFwshFFiw6GLOcTqvigWr11ZnaEVgYSwUGuDFZpH75kQp9YoP1GIsBAILiwwbD1hYv2ULN2XTo2fK3giBpUNvrME9fPVDMRWX8yfLoOj5kJ7BHR4hEFjfnSqnK/uGsdkKIB3ffbRUFFgdvnXIDXAgAAKrvKqOdh0pYbXIvbkui24Z1VkbAmvkRaFUUlmnUtK4LBi6EFgYrFVZGxN2ODcfbw9FkuqwrdlTaMptJPcOoahQH1OO7cyDgsCacmkkvb0hm80iFxLgTUcyK7QhsJLiAuhYViWrRW7B+ixtamBt/b5YlZvg6p9hRUyI9NNiYo13+cUVaXTHuFhWi9xVA8PVApguBBZqYHFZmA2bKoKodFJg4V64LMwbDlhUzajYTr5avGcgsMxIrE49VkpzpiaoT7KpBNb777+vCq5jq6trJCdWrlxJM2fOpJKSEmeOCX5yLlFguQz6Zk9sRvIOLHKfpOZrMWgzrE15JTXtSvuytRVAHvze5hyaPa2xM5BNEDifEQCBBfLq9rExrBY51DuALFwXBRa3rQBWRF0shIhnH5YUYmryTkd/RzGwhZKD01YAtcCkwRGqxkhH3zAWQu0UToscVKBQLOlSxP1weiW7RS7Qz5PmaDAWgoUQRdy7dfZjtcihj9aBnEH/8NcVaVReVc9qkXt+yWnC0oUOGOFZI4Xw7PnC4fQKOppV2eZ2BWWgTgSWl6cHzU1JZP2WoY/WoZwCvvMoRs/9LcstrjG/iPudd95JCxcupH/+85+0aNEi2rFjhxpXZGZmUkJCAu3atYuGDRvmkrGGEFgugb3Fk5qRvAOLHDzXOgzaQGChMOBD10ryjvu13o5xRSArq2rqTbnYeybEmXJcZx4UgzZIuIP8vVgtcrAi3jQyWhsCq2u0H6ut4O+fZZIuRdxBYGFQ2y8xkM1WAPuGbfKOM98JM861Yb+FfkirYLUVLNqSS9cnR2pDYGElnjPlc+XuAqpv0GMsBJXLhbEBtGZvIatF7t1N2fTkjR3fIgcCC4WTEyN9WWxf6J9njY8l2L11UYGin75tTAyrRS65VwgtWJ+tDYGFovScKZ+wIr69MVsrAuvuCXFsKZ+wImLsCbWjLgTWHeNiCAnTnN8y2FCNhQZTFFhWq5VCQkKovLycvL29acaMGbR48eKmsZCXl5f6/5SUFDPGR3aPKQSWXYicvoMZyTuQrVrKa7UhsFAgMqeohs1WAHmwLsk7Tm+wHfCEkrzT8kMDgYUPLWyEnBa5hRuztSKwUGAacndYCB1NsLIns8cgR4dBGyZG1wyJUASNWck7HbDr+cklr9tnof7dglgtcmkFVsIEUhcFFiyEnCmfU4ZG0PHsSi3GQiCwPD08aNowPgszJo2ocahDPVAQWCtSC2jmGN7EaqSmjb9EDxsziriP7BPKapFLL7CqmrK6KLBQ+5Mz5RNjhtN51VoRWNwWOYw9h/TUJ4Uw2N9Llc/g/JYF+HnSo2eUsqYQWPv27aNbb72VDh48qAYuQmB19CGn+ddvRvKO0fnqosCqtNaz2gogD9Ylecf8FtrxzyDJO/YJLDOSd5CaopOFkDt5B5aEYUmh2hBYJRV17BY52+Sdjt4TwVoAspLTIncqt1pZf3UhsLBQxZnyiRS5PgkB2hBYKOJeW9/QZivTuWxQULgjMaujbyCw1v63sGmxs722LwOr55ac1oKcwfPFQgOsTWZY5HQhsNBHo9/gtsjpZCE0Ft24vmWw/g7vrcdYCN/5ByfH07/WZrF+y/7ySVpTrUJTCKzS0lLq0qVLU50rWwKrsrKSgoKCaNmyZXTDDTe45FshCiyXwG7XQsidvAP5a0iAlxaDNlgIUQAxKT5Aknfcr/l2iCuS5B37BFZ2UeMqKnfyzi81KuLOnbwDi1x4sI82BNbgHsGqr37gmng2C4Zt8k6H6GxauEgoHdMLqlltBe9vzVXpoLoQWJgQ2Vq32mvBMIqe67CYh0WG3vGBVFpZy2qR+3BbTlM8e0d+x0Bg7ThcQhMH8SZWw1LWv2tQR4am6dpRA+uR6xLY+mfMNS5LCqFlO/O1IPnQRx9MK2eda8Ait/1QiVYKLFgIjSRljkRUkFewEeqgRgeBZUZiNWrKGkpZUwgs9BIXX3wxTZ06lR5++GG6//77lWWwuLiYnnvuOXr11VcpLy+PIiIiXNIZCoHlEtjtEljcyTuwyKUeLdGGwKqvJ6qurZfkHfdrvh3iiiR5xz6BdTSzQkm4OS1yIMR0UmBxJ+/AigjFiQ6DNqzsY5LHbZGzTd7pEJ1NCxcJJcevr4pltRXEhvsSlIG6EFhIU+RM+cTioE5F3POKa2jGyGg2CzPS+jC2euxMPHtHfsdAYIHQHTuAN7H621N6WCzxbEFgIS2W0yKHRWYUmNZFgQUCC9Zazm+ZbimEEcHerInVSJ7VpR6oobRGTVDOb9mPOVXmF3H/7rvvaODAgeTh4UENDQ3q39jw37W1teTp6emyb4QQWC6DvtkTm5G8A3lwpsWqDYG178dyVikm5MG6JO+4X4t2vyuS5B37BBYGoSMvCmVNkdt4oEjVAdAlhVCSd5pvRyCwKqvrqVeXRrsWlwXDNnnH/XqW1l3RgZPltGp3Afu37FejO2tDYCEEoD1pXy39tnVPy/32hgILRe4/21vImiI3b3maNhbCPcdLqayqjt0iN7JvmPs1iDZcEfppqDi4+mfMNXrGBdC/v8jShsDCghLeNWxc3zIsXuhkIUSa7gvL0ti+ZQin8PPx1GIxDwTWvRPj6ERWJeu3zHh30S5NU2Dh4CjivnbtWjp16pRSX/Xr10/9079//zZ0OXw/EQKLD0uuI4HA4k7egaxXpxTCovI6wuqakQjTXlsBJK+6JO+gHb61IZv6dGms64W0nKU78hUZUd9AtPNwoxLvk9R8uu6ySDqcUUEFJTU0ql8naiwqHEiBvp7n/G10qA8N7hnM1dRddhxJ3rFPYFVZ6+hkXjVB7j6oRzBLStFHX+bSDcOjtCGwuJN3gLNOCiwUcUexWo7+edmOPGVFtE3ecVkHwnTixTvy6OqB4awWOVzapRfqU8R90mC0oSo2i9zYAZ0o01KtxWIeJtWBvl6U3DuEpX82cIZSVpci7p/symdPrE6M8qOrNSri3iPGn9Uih7kGrHe6KLBQxJ1zroFvWWFZrVYEFrdFDn3QyIvCtCGwOof5KPcB57fM39ejSSlrKoHFNN5hP4wrCCx0bGZs3Tv7Kc9sR99AYHEn70AeDCuQDnUfoAyxlNXSLVd2JsjdU0ZEs1gwdEneQft/ZVWGKck7kSF6EFiSvGOfwFq6I08N/O2l5rXmHSworaFpw/QhsLiTd5DWp1MNLIRt3DGO1yJnm7zT0b/1/1ybSTGdfFltBRhf6VTE3dur0XbBlfL5+poMAgGhw1gIBFZhaS317xrImiK3+2ipNgqslbsLqLSyjtUih/pOj0zt0tG7H3X9WMzD+2CGRU4XAgs1z1ozznGkv1qwLksrAgsL5JyJ1WuUA0AfAivl8ij6+lgp67fslU/ThcBasmSJUztiSd5pGW4QWJK80zxGRhH3uAhfSd5pBiZMjNCGQFxyJu/gw6yLAkuSd5p/xzAJrq6ppzV7C9mTd3Qq4s6dvLNoa45WKYRQz2Cyx5kiZ5u849SBiwknw3tmKathtRWA1NBJgYU6KCjizvUtG9UvjL45UaYNgTWkZzBtO1jMapF7b3MOzT4Tz25Cs3faIaHSh4WQy/aF/hkWOV0WGfAgjP6U0yJ336Q4euOzTG0UWLuPlbDONYA7+n6dLIRc/fPM0THKijhlaIRWFkIzEqsh5DC9iPuWLVvolltuodzc3HN23CjqnpKS4rRO3fZErlBgrdlTSD7eHqy2AkneCbcrTdxxqFiLQRsIrNq6BoKdLae4hmAJ4Egp0iV5B+/3B9tyTUnesdY0aEFgSfKOfQXW9kPFSglqWLdgQ26vnRA1f2Bb1aUGFnfyDixyRzIqtZDNGyv7SLHk6J+NhCPb5B2XDJoYTwqlLFZmOW0FSBueNixSmxpYsDdxWZiB8/enKygixFuLsRBIB7wPD03pwpoil19S0xTPztjcnX4oEFjvbs5R/SlHMpqRpppTZKX7J8U7/X7MOOGLKxtrFXJa5D7alqvqjumiwMIiA+dcA98ylPLQicDqGu3Hmlj9+uoMunFEtBZjIYh2UBYoIdKX9Vu2/XCJ+UXcvby8FEH1j3/8g6Kioszog9p8TFcQWJK8Y1+BxZ28A3kw6pDoIJsHgXU8q4pQqJbLVqBT8g5aFwpympG8M6Z/J20ILEneaVmBBQILH13O5B2oATEo0YXAkuSd5tsQCKxgfy/i/pbZJu+0eeDjJj9cv9+iCAhHLCdIZXIkKQwDf9SZ0ymFENZaJClzJKKmHimlCmudFmMhEFjx4X7K5u1I23DUBvXBthyam9LVTd6Stl+GocDCETgtcusPWGjGiOi2X5gb/fKllemKSHG0bTjyDsJyt3BTjjYEVkwnH9a5Bsqe6GYhnHVVLEv/bMzpukf7kb+vlzYE1t1Xx1Lq0VLi/Ja9tyXHfAVWUFCQKuLujpsrCKyVqfn07akKVlsBJuySvOOYzN4d22FrrgkEFlYIT+ZWs9kKIFvVJXkHWGJga0byTqCflxYEliTv2FdgwUJ4PLtS7chlwYBdQScCizt5BzjDWmBYE1vTL7rbvnjHYAPIK+a1yNkm77jbPbf2erb/UMya8onEPZCGOlkIMTEyrFt9EgLbbSecPDSCUCBYh8U8TtvX3JTEJpwR/qJLEXe4MzgtzJhrTB0WSQO7B7X2dXfL/VEPFAWmDesWB1awNmUWWrUhsPCecVvkUOheJwUWt0Vu+6ESVfRch7EQFFgeRKquIOe3LMjf0/waWL6+vmS1Wt2y83IFgfX2xmy6IbmxrgGXbBXg6jRo407eAc46WQhBzsCaAlsT/s1hwdAleQfvwssr001J3onSqIi7JO+0rMAyI3mnpq5BKwshd/IOVLL9EoO0GLSBaPL08CDUMOLonw2ruG3yjlsOqlpxUcDo4m5BrLaCzd8Va7WYV2WtV+mTHBZmWBEXb8+j6DAfbQgs4OPv68lqkTuSUaGNAmvDgSLKtljZ5hqwIr6zMZuweKHD9tKqdEpOCjHFIqeLhRAKLM65Br5lSNPVicDCWKi9JSZsreLfnCilXvGBWoyFQGBhwWTjAQvrt2zhpmx69PpE1Q2ZlkK4bt06+tOf/kR/+9vfaMCAAQRLobtsriCwXlyRTj1i/SV5p5lGgCLu3Mk7kAej6LkOq45QYH13qpyu7BvGZiuAbFWX5B00q1c/zTAleWd0/zBtFFiSvNMygVVeVUe7jpSwpXzCivjmuiy6ZVRnbSyE3Mk7WGTQicAa3COYYPnjtMjZJu+4yziqrdeB5FvUPOO0FXyxz0Ij+oRqYyFEHT5H7ZOO2KBCArzpSGaFFmMhKEOS4gLoWFYlq0VuwfosbWpgbf2+kdB1pG04alNNiPTTYmKNfuvFFWkqKZazHMdVA8OVC0AXAgs1sBxtG46WXPj2ZLlWBBbIOM7EapSviO3kq8V7BgLLjMTq1GOlNGdqgrkEVlVVFXXq1IlqamrOOc45H4u4dwrykuSdFggs7uQdyIM/Sc3XYtAGAgtbXkmNJO8004YweOCyfdkm78BWpkMKoSTvtDzlho0N5NXtYxsTYThsBTgj6v1AFq5LDSxuWwFw1slCOCwphN0iZ5u801biyF1+h4EtlByctgKoBaDg1qUGFtJiOb9l3p4eSrGkw2IevvOH0yvZ+mcD50A/T5qjSQohirh36+zHapFDH60DOYN+EIE25VX1rBa555ecpgYiLTDCs0YKIdInOSzMxpgBykCdFFhenh7sidXoj3SxEMZH+BL3tyy3uMb8Iu4DBw6kH3/8kd56661zqq+Sk5MpIaGRRXP25ioF1oyR0ay2AkneybMrTYTnWodBGwisoxmV7BY5XZJ30IdgYmRG8k5yr1AtCCxJ3rFPYEHCHeTvxZbyieSdPcdK6aaR+hRx507ega0eixc6DNpgj8Ogtl9iIKtFzjZ5x9njJe7zbdhvoR/SKux+u1uTtLtoSy5dn6xPCiFW4mGt5UqRW7m7gOob9BgLgcC6MDaA1uwtZLXIvbspm568seNb5FDEHYWTEyN92S1yEwaFc3cHLjke+unbxsSwWuSSe4XQgvXZ2hBYKErPZWE2rIgopaMTgYVEZs7Eaow9Ebygw1gI87E7xsUotTXntww2VGOhwTQLoZ+fH1VXV7ukc7J3UlcQWHhxsXHaCiR5J8iuzN5Srk8KIQpE5hTVSPJOCwos/BV38k5SbIAWBJYk79gnsPChhY2wpLKOze69cGO2VgQWd/IOvokY5OgwaMPE6JohEYqg4bTI2Sbv2BvfuPvfr9tnYU35BM5pBVbCBFIXBRYshLDWcn3LECyAcAodFvNAYKHO3LRhkawWOVhbdSniviK1gGaO4U2s7psYSOMv0YPAQhH3kX1CWS1y6QVWFZSgg0oNCizUA+VM+USS4+m8aq0ILG6LHMaeQ3qGaDEWAoGFcBWUz+D8lgX4edKjZ5SyphFYgYGBVFFR4ZZjKVcQWCtS8+mKvmHtTpOxtW9I8o79pDD4k3UYtEGBVWmtZ7UVQB6sS/IOOhok5XDZvgxbAZJ36uoatCCwJHnHPoFlRvIOUlN0shByJ+8gRW5YUqgWgzYQWCUVdewWOdvkHbccVLXiogylLKdF7lRutbL+6kJgYaGK+1vWJyFAi7EQ+mgUca+tb2C1yEHhjsSsjr5BgbX2v4VNi52H0ytYSpc8t+S0FuQMni/6aVibzLDI6UJgYUEJY2rbpE4OO6FOCixj0Y3rWwbr7/DeeoyF8J1/cHI8/WttFuu3zCiFgvfYNAJr9uzZqv4Viri72+YKAgudP1YIbRMH2ptSJMk75XalibBZ6kJgoQBiUnwAm60Asl5dknfQx0C+bUbyzuQhEVoQWJK8Y5/Ayi5qXEXlSvk0knd+qVERd+7kHXwHw4N9tCGwUMQdfTVnipxt8o67jadaez1Y3U8vqLb77W7NO/j+1lxC2IYuBBbGLJyJ1UbRcx3GQiCwescHUmllLatF7sNtOU3x7K1t0+60PwisHYdLaOIg3sRqWMr6dw1yp1tt87WgBtYj1yWwWuQuSwqhZTvztSD50EcfTCtnnWsgrW/7oRKtFFiwEKJMBJdFDuQVbIQ6qNFBYJmRWI2asoZS1jQC6/HHH6eXXnqJLrzwQpo0aRLBUmi73XrrrSqd0BWbKwgsKGistQ2stgJJ3om2K01MPVqiDYFVX09UXVvPZiuAmk+X5B30Iws35ZiSvKNLEXdJ3rFPYB3NrFASbsjduezeIMR0UmBxJ+8AZyhOdBi0YWUfkzxHU5lw744khdkm77hizMR5Tizm/fqqWLvf7ta8g7HhvgRloC4EVlSoD5uFGfYNKJZ0KuKeV1xDqCnLmSKHsdVjZ+LZOdu7s48FAguE7tgBvInV357Sw2KJ5wECq8rawGqRwxwPBaZ1UWCBwOKyMBtWRN1SCCOCvVkTq5E8q0s9UENpjZqgjo5zHEm9RMLzEzckqm7VNALLy8urxX77fEshlOSdlj/j89dlsacVQB6cabFqQ2Dt+7GcVYoJebAuyTtoXXjHzEjeQeerQwqhJO/YJ7AwCB15UShr8s7GA0WqDoAuKYSSvNN8OwKBVVldT726NNq1uCwYtsk7zp4Qc5/vwMlyWrW7gP1b9qvRnbUhsBACAGstkpQ5E1F1UWChyP1newtZU+TmLU/TxkK453gplVXVsVvkRvYN4+4OXHI89NNQcXD1z5hr9IwLoH9/kaUNgYUFJagdsXF9y7B4oZOFEGm6nP0zwin8fDy1WMzDfOzeiXF0IquS9VtmvLumElhm90pXX301nT59mrKzs2nixIn08ccfO3xKVyiw3t+SQ4Vltay2Akne6WRXZq9TCmFReR1hdW3W+Fg22aouyTt4+f/zVZ4pyTvRoT5aEFiSvGOfwKqy1tHJvGqC3J3L7v3Rl7l0w/AobQgs7uQd4KyTAgtF3FGslstWACuibfKOwwMdN91x8Y48unpguN1vd2veQdzqpRfqU8R90mC0oSo2ixyszJmWai0W8zCpDvT1ouTeIawpclDK6lLE/ZNd+eyJ1YlRfnS1RkXce8T4s1rkMNeA9U4XBRaKuHPONZDWhzmwTgQWt0UOfdDIi8K0IbA6h/ko9wHnt8zf16NJKWuaAsvMsdOdd96pCsR/9NFHVF9fT2PHjqWqqir68ssvydfX95ynTk9Pp127dqm/W7p0KS1ZssTMS/zZsRdtyaFxA8Ptpua1Jv1KknfsJ4XBhqDDqiOUIZayWrrlys4OWU4ckWJCHqxL8g5euFdWZZiSvBMZogeBJck79gmspTvy1MAf4Q9cKXIFpTU0bZg+BBZ38g5w1qkGFsI27hjHa5GzTd5x6sDFhJP9c20mxXTyZbUVYOKoUxF3b69G2wWXRe71NRkEAkKHsRAIrMLSWurfNZA1RW730VJtFFgrdxdQaWUdq0UO9Z0emdrFhB7B+YfEYh7eBzMscroQWKh55oi93dG5Bmz1C9ZlaUVgQa3fmjm7PazWKAeAPgRWyuVR9PWxUtZv2SufpptDYKFw+4QJEwjqKPx3S9vMmTNp4MCBbeq5br75ZoqLi6NXX31V/b6yspJCQkIItsTp06fbPaYrFFiSvNPyY4GFUJJ3mscIBBb843ERvqy2Al2Sd4AcJkZoQ7ZJne21YEDyrIuFUJJ37BNYqHe2Zm8he/KOTkXcuZN3Fm3N0SqFEOoZTPY4U+Rsk3fsDnDcfAeQTZayGlZbAUgNnRRYqIOCIu5c37JR/cLomxNl2hBYQ3oG07aDxawWufc259DsM/Hsbv4KtXh5UOnDQshl+0L/DIucLosMAM/oTzktcvdNiqM3PsvURoG1+1gJ61wDuKPv10mBxdU/G/OUKUMjtLIQmpFYDSGHKUXcQSLNnTuXfve73ylCqaVt0aJFdP3119v9Tuzbt48GDRr0k/1QAB6Kq2XLljX9+caNG2nWrFl06tQpu8d0BYG1Zk8h+Xh7sNoKJHkn3K40EQVMdVh1BIFVW9dAsLPlFNcQLAEcKUW6JO/gpf9gW64pyTvWmgYtLISSvGOfwNp+qJimXBpJkLtzpcih5s91l0VqZSHkTN4BzkcyKrWQzRsr+0jQ4+ifDZxtk1xzXvUAACAASURBVHfsDnDcfAcoZbEyy2krQNrwtGGR2tTAgr2Jy8IMnL8/XUERId5ajIVAOuB9eGhKF9YUufySGnr8THFgN3+F7BJY727OUf3piIvC2L5lOUVWun9SfEeGpunaX1zZWKuQ0yL30bZcVXdMFwUWFhk45xr4lu08rFcKYddoP9bE6tdXZ9CNI6K1GAtBtINahQmRvqzfsu2HS8wp4p6amkqhoaHUt29flk7unXfeobvuuotGjx5NIKg8PDzUcX/44QcaPnw45eXl/cQy2Lt3b/rwww9p6NChLZ7fFQSWJO/YV2BxJ+9AHow6JLoQWMezqlTKHpetAPJgXZJ30LpQkNOM5J0x/TtpQ2BJ8k7z/RBWB0Fg4aPLmSJ3OL1CDUp0KeIuyTvNtyEQWMH+XsT9LbNN3mEZXLnwIOv3WxQBwWqRW52h6szplELIZWEGzqlHSqnCWqfFWAgEVny4n7J5G+lmHFh9sC2H5qZ0deGbwXNqQ4GFo3Fa5NYfsNCMEdE8F+nio7y0Ml0pgTgtcrDcIQlbFwIrppMP61wjZUS0dhbCWVfFsiZWd4/2I39fL20IrLuvjqXUo6Vs5TjwLXtvS445CqwZM2ZQv3796Omnn25397RlyxYaP348gRQbNmwYrVmzhiZNmtR03AcffJA++OADKioqavozWAsTEhLopZdecjsCa2VqPn17qoLVVoAJuyTvOCazb3eDdPEBoMDCCuHJ3Go2WwFkq7ok7+DxYGBrRvJOoJ+XFgSWJO/YV2DBQng8u1LtyGXBgF1BJwKLO3kHOIM8NKyJLu5q23V6vGOwAeQV81rkbJN32nWBbvDj7T8Us6Z8Iq0PpKFOFkJMjAzrVp+EwHbbCScPjSAUCNZhMY/T9jU3JbEJ593HSrUp4g53BqeFGXONqcMiaWD3IDfoQdp/CagHigLT7S0xYZtAB2tTZqFVGwIL7xm3RQ6F7nWyEHJb5LYfKlFFz3UYC0GBBcnRUzd1Zf2WBfl7mlMDi5PAQheVkZFBXbp0oT//+c/0ySef0J49e5p6rszMTEpMTKSnnnqKnnnmGWpoaKAhQ4bQW2+9RYMHD3Y7Auvtjdl0Q3JjXQMu2SpuUqdBG3fyDnDWyUIIcgbWlFVfF7DJVnVJ3sG78PLKdFOSd6I0KuIuyTstK7DMSN6pqWvQykLInbwDlWy/xCAtBm0gmjw9PAg1jDgtcrbJO+2fvrn2CMDo4m5BrLaCzd8Va7WYV2WtZ7Mww4q4eHseRYf5aENgAR9/X09Wi9yRjAptFFgbDhRRtsXKNteAFfGdjdmExQsdtpdWpVNyUogpFjmdFFiccw2UPUGark4EFsZCrUnLtWfp/eZEKfWKD9RiLAQCCwsmGw9YWL9lCzdl06PXJ6puiDWFkJvAMjpKkFM9evRQtbXuvvvupv6ztLRUWQnz8/OprKyMoMqaN2+e3f7VFRbCF1ekU49Yf0neaebpoIg7d/IO5MEoeq7DqiMUWN+dKqcr+4ZJ8k4zbejVTzNMSd4Z3T9MGwWWJO+0TGCVV9XRriMlBLk7yG8OC8ab67LollGdtbEQcifvAGedCKzBPYIJlj9Oi5xt8o7dAY6b74DkW9Q847B9IWUYOH+xz0Ij+oRqYyFEHb63N2SzWeRCArzpSGaFFmMhKEOS4gLoWFYlS/9s4LxgfZY2NbC2ft9I6HJa5BIi/bSYWKN7fHFFmkqK5SzHcdXAcOUC0IXAQg0se6l5rR0jIYhKJwIL98KZWI3yFbGdfLV4z0BgmZFYnXqslOZMTTCHwIJi6qGHHrI7hIqJiSF/f3+7+xk7PPvss/Tmm29SWlraz34Dgsuoj+XIAV1BYKGIe6cgL0neaYHA4k7egTz4k9R8LQZtILCw5ZXUSPJOM20Igwcu25dt8g5sZYN7BjvStbj1PpK80/LjgY0N5NXtY2PI1hqAX7WnXaHeD2ThutTA4rYVwOqik4VwWFIIu0XONnnHrTsZBy4OA1soOTgtcqjXAgW3LjWwwoMbC67DumVrc2urndDb00MplnRYzMN3/nB6JbtFLtDPk+ZokkKIIu7dOvuxWuTQR+tAzqCLQqBNeVU9q0Xu+SWnqYFIC4zwrJFCiPTJtvY55/otlIE6EVhenh4s/bMtVuijdbEQxkf4Eve3LLe4xpwi7lBgLV261CEyafPmzTRq1CgHhjv/f5dx48ZR9+7d6eGHH6ZVq1Yp+2BbNlcQWFBgzRgZzWorkOQd+0lh8FzrMGgDgXU0o5LdIqdL8g76AUyMzEjeSe4VqgWBJck79gksSLiD/L3YUj6RvLPnWCndNFKfIu7cyTuw1WPxQodBG+xxGNT2SwxktcjZJu+0ZczjTr/ZsN9CP6RVsNoKFm3JpeuT9UkhxEo8rLX2LCeO2lRX7i6g+gY9xkIgsC6MDaA1ewtZLXLvbsqmJ2/s+BY5FHFH4eTESF92i9yEQeHu1JW0+VrQT982Joa1HEdyrxBasD5bGwILRelhIeS0yKGUjk4E1t0T4thSPoEzxp5Q/eswFsJ87I5xMUptzfktgw3VWGjoEBZCo5dasWIFpaSkqFpXsBLeeeedberAXEFg4cXFxmkrQOSmJO+0LLO3lOuTQogCkTlFNWy2AsiDdUnewbtlFHflsH0ZtgIk7yTFBmhBYEnyjn0CCx9a2AhLKuvY7N4LN2ZrRWBxJ+/gm4hBjg6DNkyMrhkSoQgaToucbfJOmwY9bvSjdfssrCmfwDmtwEqYQOqiwIKFsLX2HLxHzVnGECyAcAodFvPwnUeduWnDmr/ftqQTwto6+4w1xY1el1ZfCgisFakFNHMMb2J138RAGn+JHgQWiriP7BPKapFLL7CqoAQdVGpQYKEeaFveo5YSnE/nVWtFYHFb5DD2HNIzRIuxEAgshKugfAbntyzAz5MePaOU7TAE1vz58+mBBx5QRdpvv/32Vnfqtj9wBYG1IjWfrugb1u40GVv7hiTv2Lf2wJ+sw6ANCqxKaz2rrQCyVV2Sd/B+w25hRvJOXV2DFgSWJO/YJ7DMSN5BaopOFkLu5B2kyA1LCtVi0AYCq6Sijt0iZ5u8067Bjxv82FDKclrkTuVWK+uvLgQWFqq4v2V9EgK0GAuhj0YR99r6BlaLHBTuSMzq6BsIrLX/LWxa7DycXsFSuuS5Jae1IGfwfNFPw9pkhkVOFwILC0pcFmZbnHVSYBmLblzfMlh/h/fWYyyE7/yDk+PpX2uzWL9lRikUvMcdhsDat28fBQYGUu/evdv9fXEFgYXOHyuESIThSnaQ5J1yu9JE2Cx1IbBQADEpPoDNVoB2qEvyDjoFyLfNSN6ZPCRCCwJLknfsE1jZRY2rqEj7dNSeY09mD8nzLzUq4s6dvAOcw4N9tCGwUMQdffUD18SzWTBsk3faPQBy8QGwup9eUG33292ad/D9rbmEsA1dCCyMWTgTq42i5zqMhUBg9Y4PpNLKWlaL3Ifbcpri2V38irTr9CCwdhwuoYmDeBOrYSnr3zWoXdfmLj9GDaxHrktg658xBrgsKYSW7czXguRDH30wrZx1rgGL3PZDJVopsGAhRJkILoscyCvYCHVQo4PAMiOxGjVlDaUsK4F11113KYJpzpw57tJPnfM6XEFgQUFjrW1gtRVI8o79pLDUoyXaEFj19UTVtfWSvNNM77JwU44pyTu6FHGX5B37BNbRzAol4TbSzThSikCI6aTA4k7egfUJihMdBm1Y2cckryUbRVvKCNgm77j14MqBi8Ni3q+vimW1FcSG+xKUgboQWFGhPmwWZtg3oFjSqYh7XnGNqinL0T8b1kuMrR47E8/uQDN2211AYIHQHTuAN7H621N6WCzx4EBgVVkbWC1ymOOhwLQuCiwQWJzlOOCG0S2FMCLYmzWxGqVLdKkHaiitURO0JXt7a22qSHh+4oZE1f+yElhu26OfdWGuILAkeafl1jF/XRZ7WgFkq5kWqzYE1r4fy1mlmJAH65K8g9aFd8yM5B10vjqkEEryjn0CC4PQkReFsibvbDxQpOoA6JJCKMk7zbcjEFiV1fXUq0ujXYvLgmGbvNNRxlnNXeeBk+W0ancB+7fsV6M7a0NgIQQA1lokKXMmouqiwEKR+8/2FrKmyM1bnqaNhXDP8VIqq6pjt8iN7BvW0bsfdf3op6Hi4OqfMdfoGRdA//4iSxsCCwtKRl1Zrm8ZFi90shAiTZezf0Y4hZ+PpxaLeZiP3Tsxjk5kVbJ+y4x3VwgsJ3bF72/JocKyWlZbgSTvdLIrs9cphbCovI6wujZrfCybbFWX5B28yv/5Ks+U5J3oUB8tCCxJ3rFPYFVZ6+hkXjVr8s5HX+aqsA1dCCzu5B3Y6nVSYKGIO4rVctkKYEW0Td5x4rDFlFMt3pFHVw8Mt/vtbk36FS700gv1KeI+aTDaUBWbRW7sgE6UaanWYjEPk+pAXy9K7h3CVo4jp7hGWcd1KeL+ya589sTqxCg/ulqjIu49YvxZLXKYa8B6p4sCC0XcOecay3bkqTmwTgQWt0UOfdDIi8K0IbA6h/ko9wHnt8zf16NJKSsKLFOGaD8/6KItOTRuYDgZ6WaQU7Y3pUiSd+wnhcEKpMOqI5QhlrJauuXKzs0mDbVWigl5sC7JO3jjXlmVYUryTmSIHgSWJO/YJ7CW7shTA3+O/hkpn+h/CkpraNowfQgs7uQdfAd1qoGFsI07xvFa5GyTd5w0ZDHtNP9cm0kxnXxZbQWYOOpUxN3bq9F2wWWRe31NBoGA0GEsBAKrsLSW+ncNZE2R2320VBsF1srdBVRaWcdqkUN9p0emdjGtX3DmgbGYh/fBDIucLgQWap41l2ralrkGbPUL1mVpRWBBrc+ZWL1GOQD0IbBSLo+ir4+Vsn7LXvk0XQisJUuWOLO/VPYmSDK5pJiLtuaQJO/YT1fRJXkHBBb843ERvqy2Al2Sd/AyY2IEJYdtUmd7LRiQPOtiIZTkHfsEFuqdrdlbSHNTEgl9LFdKkU5F3LmTd4CzTimEUM9gsseZImebvOPUgYsJJwPZZCmrYbUVgNTQSYGFOigo4s71LRvVL4y+OVGmDYE1pGcwbTtYzNY/A+f3NufQ7DPx7CY0e6cdEip9WAg55xr4DuqyyIAHYfSnnBa5+ybF0RufZWqjwNp9rIR1rgHc0ffrpMDi6p+NecqUoRFaWQjNSKyGkMOUIu5O66HbeSJX1MBas6eQfLw9WG0FkrxjPykMBUx1WHUEgVVb10Cws0HuDksAR0qRLsk76BI+2JZrSvKOtaZBCwuhJO/YJ7C2HyqmKZdGEuTuXClyqPlz3WWRWlkIOZN3gPORjEotZPPGyj4S9Dj6ZwNn2+Sddg5/XP5zKGWxMstpK0Da8LRhkdrUwIK9iTOx+vvTFRQR4q3FWAikA96Hh6Z0YU2Ryy+pocfPFAd2+UvSjgsAgfXu5hzVn464KIztW5ZTZKX7J8W348rc56cvrmysVchpkftoW66qO6aLAguLDJxzDXzLdh7WK4Wwa7Qfa2L166sz6MYR0VqMhSDaQa3ChEhf1m/Z9sMlziniXlRURJs2baKGhgZKSUlRvVdeXh4dPHiQRo8e7bLezBUEliTvtPy4UcSdO3kH8mDUIdGFwDqeVaVS9rhsBZAH65K8g9aFgpxmJO+M6d9JGwJLknea74ewOggCCx9dzhS5w+kValCiSw0sSd5pvg2BwAr292L/ltkm77hs4MR04vX7LYqAYLXIrc5QdeZ0SiFsb4kJw8IMnFOPlFKFtU6LsRAIrPhwP2XzbquV6VylPD7YlkNzU7oytXLXHcZQYOEKOC1y6w9YaMaIaNfdGOOZX1qZrpRAnBY5WO6QhK0LgRXTyYd1rpEyIlo7C+Gsq2JZE6u7R/uRv6+XNgTW3VfHUurR0naXS7L9lr23Jcd8BdbmzZtp/PjxqssBgVVfX6/+e/369TRp0iTKzc2lyMhIxi7J8UO5gsBamZpP356qYLUVYMIuyTuOyewdbx3uuScUWFghPJlbzWYrgGxVl+QdPDUMbM1I3gn089KCwJLkHfsKLFgIj2dXqh25LBiwK+hEYHEn7wBnkIeGNdE9e2DHrgrvGGwAecW8Fjnb5B3HrsR999r+QzFryifS+kAa6mQhxMSI08I8eWiEKlKuw2Iep+3L1iq++1ipNkXc4c7gtDBjrjF1WCQN7B7kvh1LK64M9UBRYLq9JSZsE+hgbcostGpDYOE947bIodC9ThZCbovc9kMlqui5DmMhKLA8iFRdQc5vWZC/p/k1sBITE+mZZ56h6dOn0913302LFy9W3UttbS35+fnRihUr6LrrrmtFl8O3qysIrLc3ZtMNyY11Dbhkq0BEp0Ebd/IOcNbJQghyBtaUVV8XsMlWdUnewbvw8sp0U5J3ojQq4i7JO81/R0CimJG8U1PXoJWFkDt5ByrZfolBWgzaQDR5engQahhxWuRsk3f4RkKuORIwurhbEKutYPN3xVot5lVZ69kszLAiLt6eR9FhPtoQWMDH39eT1SJ3JKNCGwXWhgNFlG2xss01YEV8Z2M2YfFCh+2lVemUnBRiikVOJwUW51wDZU+QpqsTgYWxUGvScu1Zer85UUq94gO1GAuBwMKCycYDFtZv2cJN2fTo9YmqGzIlhTArK4sGDhyoVFbYZsyY0URg4f+9vLzU/xu2Qmd3iK4gsF5ckU49Yv0leaeZhw0LIXfyDuTBKHquw6ojFFjfnSqnK/uGSfJOM23o1U8zTEneGd0/TBsFliTvtExglVfV0a4jJQS5O8hvDgvGm+uy6JZRnbWxEHIn7wBnnQiswT2CCZY/ToucbfKOs8dL3OdD8i1qnnFa5L7YZ6ERfUK1sRCiDh9nYnVIgDcdyazQYiwEZUhSXAAdy6pk6Z8NnBesz9KmBtbW7xsJXU6LXEKknxYTa/RnL65IU0mxnOU4rhoYrlwAuhBYqIFla93iwApBVDoRWLgXzsRqlK+I7eSrxXsGAsuMxOrUY6U0Z2qCeQTWoUOHlLrq2LFjQmCdGf2hiHunIC9J3mmBwOJO3oE8+JPUfC0GbSCwsOWV1EjyTjNtCIMHLtuXIXlF8g5sZYN7BnPP45x+PEneaRlyKLBAXt0+NoZsrQH4VXvaFer9QBauSw0sblsBrC46WQiHJYWwW+Rsk3ec3nEwnxADWyg5OG0FqNcCBbcuNbDCgxsLrsO6xZGI6u3poRRLOizm4Tt/OL2S3SIX6OdJczRJIUQR926d/VgtcuijdSBn0J0h0Ka8qp7VIvf8ktPUQKQFRnjWSCHkSmE2xgxQBupEYHl5erD0z7Y4o4/WxUIYH+FL3N+y3OIa84u4Q2V16tQpSkhI+IkCa+fOnXTFFVfQ119/TUOGDGEeGjl2OFcpsGaMjGa1FUjyjv2kMHiudRi0gcA6mlHJbpHTJXkHbz4mRmYk7yT3CtWCwJLkHfsEFiTcQf5ebCmfSN7Zc6yUbhqpTxF37uQd2OqxeKHDoA32OAxq+yUGslrkbJN3HBvluO9eG/Zb6Ie0ClZbwaItuXR9sj4phFiJh7XWnuXEUZvqyt0FVN+gx1gIBNaFsQG0Zm8hq0Xu3U3Z9OSNHd8ihyLuKJycGOnLbpGbMCjcfTuWVlwZ+unbxsSwluNI7hVCC9Zna0NgoSg9LIScFjmU0tGJwLp7QhxbyidwxtgTqn8dxkKYj90xLkaprTm/ZbChGgsNplgI0Y+88sor9Oijj6p/L1myhH77299SRUUF/frXv6apU6fS8uXLW9Hd8O7qCgILLy42TlsBIjcleSe7xSQaS7k+KYQoEJlTVCPJOy0osPBXHLYvw1aA5J2k2AAtCCxJ3rFPYOFDCxthSWUdm9174cZsrQgs7uQdfBMxyNFh0IaJ0TVDIhRBw2mRs03e4R0NOf9o6/ZZWFM+gXNagZUwgdRFgQULIZeFGd8yBAsgnEKHxTwQWKgzN21YJKtFDtbW2WesKc5/K/jOCAJrRWoBzRzDm1jdNzGQxl+iB4GFIu4j+4SyWuTSC6wqKEEHlZpRD5Qz5XPDAQudzqvWisDitshh7DmkZ4gWYyEQWAhXQfkMzm9ZgJ8nPXpGKWsagYXueMOGDTRx4kSVQojNw8OD7rjjDnrrrbf4eus2HMkVBNaK1Hy6om+YKuLOZcGQ5B371h74k3UYtEGBVWmtZ7UVQLaqS/IOugHYLcxI3qmra9CCwJLkHfsElhnJO0hN0clCyJ28gxS5YUmhWgzaQGCVVNSxW+Rsk3faMORxq58YSllOi9yp3Gpl/dWFwMJCFfe3rE9CgBZjIfTRKOJeW9/AapGDwh2JWR19A4G19r+FTYudh9MrWEqXPLfktBbkDJ4v+mlYm8ywyOlCYGFBicvCbIuzTgosY9GN61sG6+/w3nqMhfCdf3ByPP1rbRbrt8wohYL32FQCy/gQwEpYVVVF3bt3VwmErt5cQWCh88cKIRJhuJIdJHmn3K40ETZLXQgsFEBMig9gsxWgHeqSvIM+BfJtM5J3Jg+J0ILAkuQd+wRWdlHjKirSPh2159iT2UPy/EuNirhzJ+8AZ9Sa00WBhSLu6KsfuCaezYJhm7zj6vFTe8+P1f30gmq73+7WvIPvb80lhG3oQmBhzMKZWG0UPddhLAQCq3d8IJVW1rJa5D7cltMUz97eNu7K34PA2nG4hCYO4k2shqWsf9cgV94a27lRA+uR6xLY+meMAS5LCqFlO/O1IPnQRx9MK2eda8Ait/1QiVYKLFgIUSaCyyIH8go2Qh3GQiCwzEisRk1ZQylrGoF18OBBioqKopiYmJ90OhaLhU6cOEFDhw5l64xaeyBXEFhQ0FhrG1htBZK8Yz8pLPVoiTYEVn09UXVtPatFTpfkHfQBCzflmJK8o0sRd0nesU9gHc2sUBJuyN257N4gxHRSYHEn7wBnKE50GLRhZR+TvP7dglhT5GyTd1o73nG3/bGY9+urYlltBbHhvgRloC4EVlSoD5uFGfYNKJZ0KuKeV1xDqCnLkYyG/gdpfRhbPXYmnt3d3pnWXA8ILBC6YwfwJlZ/e0oPiyWwBIFVZW1gLceBOR4KTOuiwAKBxVmOA24Y3VIII4K9WROrYffWpR6oobRGTVCjj+VI90bC8xM3JKou0TQCC0Xc6+rqftbvgrxKSkqiffv20cCBA1vTL7Pt6woCS5J3Wn5889dlsacVQLaaabFqQ2Dt+7GcVYoJebAuyTtoXXjHzEjeQeerQwqhJO/YJ7AwCB15UShritzGA0WqDoAuKYSSvNN8OwKBVVldT726NNq1uCwYtsk7bAMhFx3owMlyWrW7gP1b9qvRnbUhsBACAGstkpQ5E1F1UWChyP1newvZynEA53nL07SxEO45XkplVXXsFrmRfcNc1Gvwnhb9NFQcXP0z5ho94wLo319kaUNgYUEJakdsXN8yLF7oZCFEmi5n/4xwCj8fTy0W8zAfu3diHJ3IqmT9lhnvrmkEVlZWllJYZWRknLPXAbm1ePFiSklJ4e2VHDyaKwis97fkUGFZLautQJJ3OtmV2euUQlhUXkdYXZs1PpZNtqpL8g5e/f98lWdK8k50qI8WBJYk79gnsKqsdXQyr5o1eeejL3NV2IYuBBZ38g5s9TopsFDEHcVquWwFsCLaJu84OMxx290W78ijqweG2/12tyb9Cjd76YX6FHGfNBhtqIrNIjd2QCfKtFRrsZiHSXWgrxcl9w5hK8eRU1yjrOO6FHH/ZFc+e2J1YpQfXa1REfceMf6sFjnMNWC900WBtXxXPutcY9mOPDUH1onA4rbIoQ8aeVGYNgRW5zAf5T7g/Jb5+3o0KWVNUWDBPoikwePHjwuBdQaBRVtyaNzAcFZbgSTv2E8KgxVIh1VHKEMsZbV0y5WdJXmnmanZK6syTEneiQzRg8CS5B37BNbSHXlq4A+5O1eKXEFpDU0bpg+BxZ28A5x1qoGFsI07xvFa5GyTd9yWmXLwwv65NpNiOvmy2gowcXR6EfebbyYqLiZCSFFtLRHqu1ZVEfn7E9XUNKLh4/P//8xqJfL0JPLyIqqubtwfdQHO+u38SY+Td59ebBZmKIhfX5NBICB0GAuBwCosraX+XQNZU+R2Hy3VRoG1cncBlVbWsVrkUN/pkaldHHzL3Xs3LObhfTDDIqcLgYWaZ7DWcti+DJwXrMvSisCCWp8zsXqNcgDoQ2ClXB5FXx8rZf2WvfJpurkEFrqu5iyEOTk5FBcXR0uXLqXp06e7pJdzhQJLknfsWwglead5jEBgwT8eF+HLaivQJXkHyGFihDbElfIJWwEkz7pYCCV5xz6BhXpna/YW0tyURFq0NYfNgqFTEXfu5B3grFMKIdQzmOxxpsjZJu+4ZNDEeFKQTZayGlZbAUgNpyuwJk8mmj2b6MkniXbtInriiUaU5s0jGj6caNs2ogcfJBoxgmjUKCI4DpYta/zzHTuI3nij8c/P+u38N76k6TOHsyZWj+oXRt+cKNOGwBrSM5i2HSxm658xZnhvcw7NPhPPztjcnX4oqPRhIeSyfRnfQV0WGfBAjP6U0yJ336Q4euOzTG0UWLuPlbDONYA7+n6dFFiccw1YEacMjdDKQmhGYjWEHKYXcb///vvpo48+opdeeonuvPNO1YmvWLGC/vrXv9I333xDxcXFFBAQ4PTOHSd0BYG1Zk8h+Xh7sNoKJHnHflIYCpjqsOoIAqu2roFgZ4PcHZYAjpQiXZJ38F5/sC3XlOQda02DFhZCSd6xT2BtP1RMUy6NJMjduVLkUPPnussitbIQcibvAOcjGZVayOaNlX0k6HH0zwbOtsk7Lhk0MZ4USlmszHLaCpA2PG1YpHNrYIHAKikhmj+faNEiIgQWTZhANGsW0fLlRP/6F9GFFxJdcgnR3/9O9NRTRKtXE+XmEv3+9xiIEr3wws9+O//BN6lHvy6sidXfn66giBBvLcZCIB3wPjw0pQtrilx+SQ09UtUUDQAAIABJREFUfqY4MGNzd/qhQGC9uzlH9acjLgpj+5blFFnp/knxTr8fM0744srGWoWc5Tg+2par6o7posDCIgPnXAPfsp2H9Uoh7Brtx5pY/frqDLpxRLQWYyGIdlCrMCHSl/Vbtv1wiflF3JE2eM8999CqVauoFhLpM9vll19OX331lRl9ksPHdAWBJck79hVY3Mk7kK2iDokuBNbxrCqVsifJO+duSyjIaUbyzpj+nbQhsCR5p/l+CKuDILDw0eVMkTucXqEGJbrUwJLknebbEAisYH8v4v6W2SbvODzQcdMd1++3KAKCK+VTWeRWZ6g6c05NIQSBNWcO0f79RDk5RDNnEs2dS7RkCdFzzxF17kx07bVEzz9P9JvfNO6Hshr33UcE98HbbxOtW/ez385ffYqi4sPZLMzAJ/VIKVVY67QYC4HAig/3UzZvKCC47N4fbMuhuSld3fStcfyyDAUWfsFpkVt/wEIzRkQ7fiFuvOdLK9OVEojTIgfLHZKwnU5gZWayI30wr55iLohhnWvAiqibhXDWVbGsidXdo/3I39dLGwLr7qtjKfVoKeu37L0tOeYrsNjfKMYDuoLAWpmaT9+eqmC1FWDCLsk7mQ5Zxhibj0sOBQUWVghP5lY7dL+OpqvokryDh4KBrRnJO4F+XloQWJK8Y1+BBQvh8exKtSOXBQN2BZ0ILO7kHeAM8tCwJrqkg2U6Kd4x2ADyinktcrbJO0yX6rLDbP+hmDXlE2l9IA1dYiFEDayRI9ttG7S1HM7vezPN+s0YVgvz5KERqki5Dot5nLYvW6v47mOl2hRxhzuD08KM8eTUYZE0sHuQy/oNzhOjHigKTHOmfMLalFlodT6BNXQoJzTqWAd7Dacl185hnWvAIodC9zpZCLktctsPlaii5zqMhaDA8iBSdQU5y3EE+XuaXwOL/Y06xwGXLFlCn3/+OT300EM0aNAgh0/pCgLr7Y3ZdENyFKutADfs9EGbwyi3bsf567KIO3kH8mCdLIQgZ2BNWfV1AZtsVZfkHbS2l1emm5K8E6VREXdJ3mm+XwKJYkbyTk1dg/MthKdONVqVGDdLjRe9diqSuJN3oJLtlxikxaANRJOnhwdNH85rkbNN3mF8pC45FDC6uFsQq61g83fFzl/MgwLrqqtYbIO2lsP5oSOpytufzcKMlM/F2/MoOsxHGwKrylpP/r6erBa5IxkV2iiwNhwoomyLldUi987GbMLihVO3EyeICgvZT/nSyUhK7hdpikXO6Qqsyy8nuueeVluVW7I5HzxRTDHPPs4610DZE6Tp6kRgYSzUmrRce5beb06UUq/4QC3GQiCwsGCy8YCF9Vu2cFM2PXp9ouoTTEkhxIHr6+tp5cqV6t/n2pKTkykhIaFNHVNWVpaqqxUSEqKOv379esKfOVpTyxUE1osr0qlHrH/HT95p0xOz/yMQWN5eHqy2AsiDUfRch1VHKLC+O1VOV/YNk+SdZprTq59mmJK8M7p/mDYKLEneaZnAKq+qo11HSliTd95cl0W3jOrsXAvhn//cWIdnyJDGFLSjRxsLRm/c2Djp/uGHxqS0gQOJvvyS6NJLG61MZWVEvXs3Fpo+67eWPd/Sa3f+i7iTd7DIoBOBNbhHMMHyx2mRs03esf81de89vj9drmqecaV8Aucv9lloRJ9Q51sIp04l+vzzdtsGbS2H878soilT+rImVocEeNORzAotxkJQYCXFBdCxrEpWi9yC9Vna1MDa+n0joctpkUuI9HP+xBrBCFiI+fZb1m/Zi0m30B03XsRqkbtqYLhyATidwHroIaLf/rbVVuWWbM4HZz1Oloo61rkG0voQRKUTgYV74bIwbzhgUeUrYjv5Ov89M2HIAALLjMTq1GOlNGdqI3dkGoH1yiuv0Jw5c8jDAyKyn2+LFy+mFKSytGGbMWOGSjlEkXhs8+bNU///6KOPNnu0yspKKigoUH//yCOPENRbztxQxL1TkFfHT94xCTQQWFi1RuFbzmSHT1LztRi0gcDClldSI8k7zbRBDB64bF+2yTuwlQ3uGWxSy3feYSV5p2WsocACeXX72BiC3J3LgoF6P5CFO7UGFgis//2v2aSztqSkWQor6LUxs1n7ZwNnnSyEw5JC2C1ytsk7zusxzDkTBrZQcnDaCmI6+SgFt9NrYIH03bmzTWmDzb2D8+/+B4X368H6LfP29FCKJR0W8/CdP5xeydY/G2OGQD9PmqNJCiGKuHfr7MdqkUMf7XRyBgRWeTlRdTXrt+yvvX5J5QGhrN+y55ecpgYi52N0882NtfUcSDh19Lt/8PbZtHvWk6xzDdQChTJQJwLLy9ODPbEa/ZEuFsL4CF8KD24MD3G0rI29sXducY35RdxBKIEkmjZtmiKXOLfrr7+eEhMT6W9/+5s6LBIP//jHP1JnFM1sZktPT6ddiCsmoqVLlzqdwIICa8bI6I6fvMP5IG2OBQIL9ibI3TktcvBc6zBoA4F1NKOS3SKnS/IOmhImRmYk7yT3CtWCwJLkHfsEFiTcQf5ebCmfSN7Zc6yUbhrp5CLuILBmz2426awtKWmWyTfQa98QcSfvYNECixc6DNpgj8Ogtl9iIOu3zDZ5x6RPsNMOu2G/hX5Iq2C1FSzakkvXJ7sghRBF3DdvblPaYHPv4PxvibonhrEmVq/cXUD1DXqMhUBgXRgbQGv2FrJa5N7dlE1P3uhki5wJbx2KuKNwcmKkL7tFbsKgcBOuuIVDgsDy9iZ6+mnWb9nLna6i26b3YZ1rJPcKoQXrs51PYE2Z0kjuOZBw6uh3/+C9T1Hv8UNYUz5R/gSldHQisO6eEMeW8gkrIsaeCF7QYSyE+dgd42KU2hplIuzZJx1NJYYN1VhoME2BFRwcTGWwI5iw4aJBWL3xxhu0fPlyOnz4MEVFRVFmZiZ9+umn1LNnzxbP6goLIV5cbJy2Apck75jwPHFIEFhIbuK0FSCtz1KuTwohCkTmFNVI8k4LCiz8FXfyTlJsgBYEllbJOyb0Q1hhxocWNkLI3dFXc1gwFm7Mdg2B9emnzSadtSUlzfL0n+i16S8Qd/IOcMYgR4dBGwisa4ZEKIKG81tmm7xjQtN36iHX7bOwpnwC57QCK2EC6XQFlo8P0bhxbUobbO4dnG9JpCkzR6r6nVzfMgQLIJxCh8U8EFioMzdtGE//bOAMa+vsM9YUp74QzCcDgbUitYBmjuFNrO6bGEjjL3EBgTV8eGNIQjOpnW35ls3bXU8jhyWyWuTSC6wqKMHpKjUsVF18sUMJp45idfB/JbS8LJ51rgGL3Om8aq0ILG6LHMaeQ3qGaDEWAoGFcBWUz+D8lgX4edKjZ5SyphFYUF3V1dUxd80/PdyaNWsoIyOD7kEBOyKCtRCWxY8//tjtCKwVqfl0Rd8wVoucS5J3THqiILAwMeK0FRgRyzoM2qDAqrTWs0oxe8UFkC7JO2iWkKhy2b4MySuSd+rqGrQgsLRK3jGhHwKBhckRp4UZcmikprjEQvi73xFhBRsbJgCYCKC21YMPEo0Y0VgTCzZ+B60HlpX/j703AY+qytb+38zzPAcCGAgQAjIJBIgoMthIAAVk0G4GQREbtBW9dCsa2+lDEDtcae3YKoNe+jMtAhYqkyCKDKZtBSxlEAIkhAxAkXkiyf95Tzj869qiCVlnHzkf53l8vH2tOlXZtc9ea797vev3MdK3FUOavEOKXL+EQEskbRSwSirqxC1yzuQdA6a+0lvqlbKStoIThdWa9Ve5gDVhQrOfo196BjNGPYGCChfxWNa5tY9lBCw2cb9Q3yBqkWOFO4lZV/tFAevjf5+7dNhJ6xbX2JYS957NPKlenGH8Ysyie0Ywli25LwMhbSINscgpF7BIIezVS9RiaT9ZjqTVr4jZvrjX6NzaV9v/WqkCSz90k4pltP7272SNXIhxfs7IWLz28WnRWKa3QuE6bZiAtXPnTvzhD3/A8uXL0a1bN/GY0NDQAHd3d2zfvh2DBg3S7v/qq69i/fr12LRp069OwOLizxNCSYucKeQd8V+y8YYUsJiU/P62WNGy1QAfN0skbRSw2AAxIdZHrBSTVk2rkHc4h1i+bQR5Z2TvUEsIWC+tz0VyQoC4rWDXwRL1ia0B6xAFrPzzjaeoLHdvakkzn6OfI9Gw5PluM5q4FxcDUVFilDTH6jVIbzVaoxBKknc4ziH+HpYRsNjEnWu1ZCxzJu8YMPWV3pLPWe7ZalFbwdufFoKwDeUC1ujRQFYWsGCBmIUnY+U3mDC5lyixWm96boXDPB4ydIr1RWnlBdFY9j87Ci7h2ZU+EMIfRgHri4Ml+E1PWWJ1p1Y+6NrGT/jb/sLtKFrxsOWLL0Rj2aJNDjwypYvoXqNvQgDe23VGfS7EAo5XXhG1WNrHzYI9p1x0r8GcYef3JZYSsGghZJsIKYscxSvaCK1QjU4BywhiNXvK6pWyhglYrMCiyGREE3d9yQsKCsLcuXPx3HPPoaqqCkOHDsXw4cPxFP3SP3OZYSGkAFFzoUHUVmAKeceg8EUBK7VPmCh5p02EN/YcLrGMgEWgZ/WFejFbAStNrELe4bRc/kmBIeQdqzRxX7w2B9OHRFuDvGPAOsSN9eG8Cq2Em+XuUnZvCmKmVGBRwJoyBXj8cRFKmsPDH+kJk7QEVJK8w3GmNdoKSRsrsLjJ69rWTzSWOZN3DJj6Sm/Jw7x7hkaL2gqiQzy1ykDlAhb7uz77LPDNN2IWnowZSxGeFC9mYaZ9g4eDVmriXlRcq/WUZZsIKbs3c6v/uohnV/pACH8YBSwKurd0kyVW7z9hgsWSAhZb0fj7i8ayRddNQJVfkKhFjns8NphWXoE1dWojZVjQYmlf9Bbs984X3WswZ7AahTDU312UWP3mlnzL9APVK63ZE1SqHQdjGQnPfxwbp62ahglYwmvyT96OAhmFMopk/Ic9se6///5f/GgzBCzLkHd+cXSv7AUUsKRpBSxbzXPUWEbA+vpYuWgpJi13ViHvcNbxGTOCvMPF1woUwkVrc1BeVS9qkTONvHNly8zPvosCFpPQlMRAUYrc1n3ntT4AyimEtBC20DbobHdyDEtF+o4yrUn54+PjRO3eViHvUMCqrK5Hx1aNdi0jyDsGTH2lt9x3vBzr954Vj2W/uzlSvYA1f34j7ZMVImykTFtuC+1OGbYTSGofLGL7+imik9If24APYwUWcfMf/uucaCxbuCbHMhbCrB9KUVZVJ26RS+kSZMAv+jO3FLQNOseyJfW9MG96N7H1mXuN9jE++NvG0+oFLMb4Fq45P7Zn2t/+GEkdgrWWCrykYhkPL6xkISRN95eoec72yV9qT0E4hZeHqyUO87gfu/83MTh6ulI0ljHHMrwCS9Uqd/z4cdjtdtxwww2Iol2iCZcZAtbb2wtwruyCqK3AFPJOE8b3Sl5CAYtJiVQppm7fsBKF8Hx5HXi6NmNYtFjZqlXIO5xz//i8yBDyTkSghyUELC78UwdHWYO8cyWLzC+8hwJWVU0djhdVi1rkVn9WiLH9w9ULWGzivmYN8NprIpQ0x9IMpA+bD2nyDm31VqrAYhN3NquVjGXO5B0Dpr7SW777RRGGdw8RtcjxD+jTwYQm7mFhQNu2wJNPill4MqKHY8TdA8UszOw7c0u3YOQ5qi1xmMdNta+nG5I7BYjGMlbKWqWJ+/u7z4gTq+PCvTDcjCbuiYkstRCNZQv/7Y74jpGiFjnuNZhDKK/A0kU+wXYB9o1ZWOPXU3Sv8d4XRdoe2EoClrRFjmtQSmKQZQSsyCAPzX0g1Y6Dsczb0+VSpayhFVhFRUXYwQZ8YK/Y8dq/CwoKsG/fPs3qZ9ZlhoC1ansBhhAjuiVfrGzVFPKOQT+abiGUpBVQ7aYVSHnfh2HDAIcD6NIFyM1tHLHWrYGDB4GEBCA/vxENHBoKHDkCXHcdUF0NFBU1/vfvvvuP99paD4Jj8G2465YYETKa1cg7HOKX158yhLwTFmANAYtN3FM6B1qDvGPAOsTk859fFGmJv6RF7mxpLW7vZ4KARToR7U2RkSKUNMe0WUjPiYQ0eYcUOSv1wCJsg1ZdyVjmTN4xYOorveWrH+chKthT1FbAZ9eUJu6kf82dC4wbJ2bhyRg4G+4+XmIWZlYQL91wChQglOdCBswsCljnSi+gaxtf0Vi293CpZSqw1u09i9LKOrG9BttxsL/TI2NaGfCL/kIF1oEDwNq1orFsyYC5iOsUa4hFTrmAxSbuQ4eKWiztLhHolDZXdK9BW/3rm05bSsBitb6UhXn8wAhs0BwA1hGwxg8Ix5dHSkVj2csf5BovYG3evBkjRozQViZa/erZwAfA1q1bceuttyI/Px8RERFqF8OLn2aGgGUZ8o5BvxgFLJ7CS1PkTCHv6AFFgPyllz3bwvthf5dBiIkJaDFNxrnk1SrkHU5Lbow4h36pTLc55dAsebaKhZAVWLTpNqekuSljtWXfefWnjgasQ9wEs9/Zhn+dE7fImdLEndamK6ANXo6S5vjme6RXdrl0OtiUudFU+pWVKIQjeoVqmz3JWOZM3jFg6iu9JZ8zR1mtqK2AooYpFVgUiZ94QtTCk7HsM4yb0l+UWH1TUhC+OlpmGQGrd3t/7LAXi8ayldsKMO8inl3pAyH8YazSp4VQcn1mzmDKIQOri8aOBd54QzSWvbijEvOnJopa5GaPiMGyD/PU50IcI8G9BnMG++A7sfdIieheg9Oca7+VKrAk9xrcl6XeEGopC6ERxGpH2QXjLYSxsbFYuHAh7rjjDsycORPvvvuutkzX1dXB09MTa9euxWgSXEy4zBCwNmSdg4e7i6itwBTyjkG/FwUsBlyWCEpa5HgKrvzUkZj6Bx4AZswQK3u2xaTggrsnIqIDr5F3LjMH39lRaAh5p6a2wRIWQvbAemR0a2uQdwxYh5hc7fy+WINJsNxdiiLHnj+j+4aptxDGxgI9ejQSigQoaY7sPKT3uV+zEEqSdzjOh05VWqJsniIxK11IsZSMZc7kHQOmvtJbslKWJ7OStgLShm/vF6a+B1ZJCZCRAaxaJUZJy5jzd8QntRIlVn97sgKhAe7qcyEDZhbFSj4PD6W2Eo1lZ0pqMf9ic2ADvrayW1LAWrGtQFtPByYGicWygvM1eGBErLK/Q/sgijM5OQAdO4KxbLHvIFT6h4juNVbvKNT6jimvwOI+mu4NwXYB9pUfwjHz96J7DeYMJFZbScBqE9EY66Vi2VLbKdw5MMISuRCLdtgWqHWYp2gs23mwxNgm7nl5eejZs6dmF+Q1ceLESwIW/zcbr1PQ0m2FaldEtiqYgMzMTKUfaxnyjkGjRgErPNBD1FYQ5OuuCYamCFi0DnKOCVl4bOsP4Id2PfG7wVHXyDuXmYNsmGwEeWdw12DLCFhVNQ2itgLTyDsGrEO6gMWgK0mRO5hboSUlypu4T54MPPdco8VJgJLGhDZ9VzWukXcuP/koYPl7u4nHMmfyjgFTX+ktN3/j0AQIKcqnZpGzndL6zCmnED76aOOzxVxXiPjJJu7hsSGixOo9h0pRUVOnPhcyYGZRwIoN8dJs3qyAkLJ7v7OjAI+Pb2PAN1Z7S70Ci5/KHFgqlm3e58DEgYpdMxSwgoOBSZNEY9lL8RPxhylJoha5Tq18NBK2cgGLTqf168X2GswZ7ONnIWpAD9G9Bi1yVrMQzhgaLUqsbhfhBW9PN8sIWPcNj8aew6WisWzl9gJjK7C+//57jBo1Cj/88MM1Aeti7Fq35wz2n6gQtRVww66cvGNQLKaAlRTnK24r4NdVLmDRQrhrF8BKLCELj23OyzgT0grHK9xFLXJWIe/wd2ZiawR5x9fLzRIClk7vkCKjmUreMWAd0i2EP+RXaneXsmDQ/mWKgMUT2ffeg2YJFKCkOUbcgfSZr0KavMNx5tizYuBqv/iM0QZQVCxrkXMm71ztY7Tzu2JRyidtqhQNTbEQFhcDKSmiFp6MLpMwY+5gUcrnyBtCwQbBynMhAyarNBlt1acFmhVx75FSyzRxpztD0sLMnGFMvzB0b+dnwC/6M7ekgMV8mhY5wVi28J3DiGwbLmqRo7Up71yNegGLY3TunNheg+NsP12DzONeonsNWuTY6N5KFVjSFrmd35doTc+tkAuxAssF0PoK6mts59a+LbbG+3m7Gt8Di1VWFLCuu+66/1WB9cUXX2DQoEH417/+pVVpmXGZUYH15tZ8jE0OF7UVcOyUJ20G/WAUsNg7RKoUU7dvmGIh/D//B6ioECF/6fYf27eVKPMLxrDe4dfIO5eZg0vW5RpC3gm3UBP3+ChvUVuBaeQdA9Yhiihrdp8RtRXQilhb12COhZAVWDYbUFgoQklzPLYA6ScjIE3eYZVsUpyfJZI2Ck2uLi4Y11/WIudM3jFg6iu9Jcfo+rZ+oraCbQeK1R/mjRzZ2Dz51ltF2wVkBKagyt1bzMJMyue7O4sQEeRhGQGrqqYe3p6uorHs0KkKy1RgsS9lvqNGNJa9tTVfO7xQelGcOXYMWLRINJa9NPoZJCe3NcQip7wCa8AAYNYsUYul/Wgxop6ZL7rXIAmVNF0rCVjMhQJ93MRi2VdHS9Ex1tcSuRAFLB6YbN3nEI1lyz/Jx2N3xGnLkGEUwmXLluGhhx7CokWL8P777+Phhx/G+fPnMWvWLK0v1ntU0026zBCwFq/NRXy0t6hFzhTyjkG/GQUsdzcXUVvBXz/KQ0yop/qkjQGFm8dRo8TKnm3HgAOJN2LQ9WHXyDuXmYN/+eCUIeSdm7sGWaYCi/15JG0FtG/sP16u/tTRgHWI62l5VR12HyoBy92lKHJ/33Qad90Uqd5CyB5YrIKePVuEkubY8zXSfVIgTd7hOFtJwOoV7w9a/iQtcs7kHQOmvtJbfnuyXOt5Rvok6WYkBbd0rDZ+7cDAzoHqLYRjxgAffSTaLiDjs/NITe0iSqwO8HHHobwK9bmQATOLFVgJMT44crpSNJa9vvm0ZXpgffpto6DLHFgqlrUO81K/saaAdeONwJkzorFs8d56TB/XSdQiN7R7iOYCUC5gPfQQ8PDDYnsN5gz2GfPhqKgTW5+/Plam0fqYK1pJwOLfImVhZhxk+4roYE/1z5kB6zQFLCOI1XuOlOLRMa2NFbB4971792LAgAEahZCXi4sL7r//fvz1r381YLiafkszBCw2cQ/2cxO3yFmpAoun1qyckiQ7vL/njPqk7emngWnTgPHjxcqebZMXaBO8qN7zGnnnMo86kwcp25de8kryDsl0vdr7N32B+ZW+UieZSVowTCPvGDDGFLAoXk27JQrOpE5+VEvmFfv9sCxceQ8sUgiXLQNuukmEkuY4V4H0wfNE12d9nK1kIeyXECBukXMm7xgw9ZXekoktKzkkbQVRwR5aBbfyHljsfSXcLiDjvr8iJCm+RWvOj9crd1cXrWLJKhbCg7mV4hY5Xy9XPGoRCiGbuLeN9BK1yHGNVi7OUMAqLweqq0Vj2aKOd6PcJ1A0lj2XeRLc6SofI/YH40GVoMXSPm0e9s54QnSvwV6grAy0koDl5uoiTqzmGm0VC2FsqKdGPm9J/vzj9xYW1xrbxJ3Z0Jw5c8AqLF5s6l5dXY3WrVvDw8NDabL0Ux9mhoDFCqyJKRGiFjlTyDsG/XqswKK9ieXu6788K0Z2oMVJedI2c2bjKAmQv3T7j23ZRzgcf4O4Rc4q5B0ONzdGRpB3kjsGWkLAWrwuF5XV9aK2AtPIOwasQ0zQWcLt5+0GlrtLUeSyjpRiQooJTdznzSOxBHjhBRFKmmPkWKR/BUiTdzjOPLywQtJGexyTWvZzlIxlzuQdA6a+0ltu+caB73IqRG0Fq7YX4o5kEyiEbOK+bZtou4CM/UC7uCBRYvW6vWdR32BCLmTAzOIBTIdoH2z41znRWLbik3w8cadii5wB48Mm7mycHBfmKW6Ru7VniAHf+GduSQHL3R146inRWLYkeCimjussutdI7hiA1zfnqxewUlMbxT3BdgH2+xeg07DeopRP0vrYSsdKAhaJzJLEauaedEhYIRfifmz6kCit2pptIqSIqLSh6gcNhlkIAwICUFpaqnaxa+KnmSFg8cHl1dJSeb0U0zTyThPHuLkv0ymEkrYCjpWj3AQKIXti0LMvQP7S7T+236YhL7oDCi54XiPv/EwFFv+TpEWO5J2EaB9LCFgvrcvVkgdJW4Fp5J3mLjBNeD0FLAZa2ghZ7s41VmKslm/NN0fA+uAD4M03gU2bRChpjqeeR/q4FyBN3uE4M8mxQtJGAeu23qGaQCMZy5zJO02Yyr/ql2z62iFGRtPtGzlna8ANpPIKLB7IDhki2i4gwxGH1CkpYhbmN7fka2ABwimUH+YZMBMpYLHP3O39ZNZn3SpOa+u8i9YUA762sltSwFq75yymDI4Utch1ifPFsB4mCFj9+zc2cReMZQv31iOlX5yoRS73bI0GSlBegcWDquuvF7VY2rNLsKYsVnSvQYvcyaJqSwlY0hY55p692wdYIheigEW4CttnSLXjYCzz8XLFYxcrZQ0TsNjEva6uTtmi3ZwPMkPAWrvnDG7sEiRqkTOFvNOcgW7GaylgcWMkaSvQEcvKkzY2cWf/GQHyl27/sW3NRqWPv2gpppXIO5xqJOUYQd6pq2uwhIC18P0cRAZ5iNoKTCPvNGNtaepLKWBxcyRpYaZFjtQUUyyEf/oTwBNsXtwAcCNAIuEV0lEd6z5G+rZiSJN3SJHrlxBoiaSNAlZJRZ24Rc6ZvNPU+fxrfZ1eKStpKzhRWK1Zf5ULWKxwpEVXsF1AxqgnUFDhIh7LOrf2sYyAxSbuF+obRGPZ4VOVGjHrar8oYH3873MoOF8rGsuezTypXpxh/GLM2r1bNJYtuS8DIW0iDbHIKRewSGns1UvUYmk/WY6k1a9oOfXj4+NE92VWqsDSD92kYhmtv/07WSMXYpyfMzIWr311qWmvAAAgAElEQVR8WjSW6a1QuE4bJmAtX74cK1euxBtvvIEOHTr8qmKCGQIWF3+eEEraCkwh7xj0S1LAYlLy+9tiRctWabNULmCxAqtvXxHyl27/sbkmYH/iICTEB4uVYtKqaRXyDqcly7eNIO+M7B1qCQHrpfW5SE4IELcV7DpYoj6xNWAdooCVf77xFJXl7lJEVJY8321GE/fiYiAqSoyS5li9BumtRmsUQknyDseZveasUoHFJu5sVisZy5zJOwZMfaW35HOWe7Za1Fbw9qeFIGxDuYA1ejSQlSXaLiBj5TeYMLmXmIWZVaV603PluZABM4uHDJ1ifVFaeUE0lv3PjoJLeHYDvrayW1LA+uJgCX7TM0TUIsdq665t/JT9HdoHUcAaOLDxMFgwli3a5MAjU7qI7jX6JgTgvV1n1OdCJBC+8oqoxdI+bhbsOeWiew3mDDu/L7FUBRYthN+eKBeLZRSvaCO0Qi5EAcsIYjV7yuqVsoYJWKzAcm7e/uNV791338V4nlqZcJkhYNmyzqLmQoOorcAU8o5BvxcFrNQ+YaLkHRKO9hwuUS9g3Xsv8Oc/i5C/dPuPbfhs1Lu5o9rdU9QiZxXyDqfl8k8KDCHvWKWJ++K1OZg+JFrUVmAaeceAdYgb68N5FVoJtwQZTbd7UxAzpQKLAtaUKcDjj4tQ0hwe/khPmKQloJLkHVoIWS1ghaSNFVjc5HVt6ycay5zJOwZMfaW35GHePUOjRW0F0SGeWmWgcgHLzQ149lnRdgEZM5YiPClezMJM+wYPB63UxL2ouFbrKevcUqOldu/qC/WWEbAo6N7SLUjUIrf/hAkWSwpYZWWAv79oLFt03QRU+QWJWuS4x2ODaeUVWFOnAocPi1os7Yvegv3e+aJ7DZ1YbaUKrFB/dzHKp54zWKUfqF5pzZ6gUu04GMtIeP7j2DgtZzFMwDpx4sTPJkURERHw9fVVmjjpH2aGgGUZ8o5BvxgFLGlaAS1yeY4a9QIWxauNG0XLnm1PrsDXXW8RLcVkebBVyDuclnzGjCDvcPG1AoVw0doclFfVi9oKTCPvGLAOUcBiEpqSGChKkdu677zWB0A5hZAWwhbaBp0th45hqUjfUaY1KZe2FViFvEMBi6CEjq0a7VpSFgxn8o4BU1/pLfcdL8f6vWfFY9nvbo5UL2DNnw+Q9inYLiDDdgJJ7YPFidX8ka1SgUXc/If/OicayxauybGMhTDrh1KUVdWJW+RSugQpXSskLfDOsWxJfS/Mm95NbH3mXqN9jA/+tvG0egGLMV7YYml/+2MkdQjWWiro64ZELOPhhZUELNJ0JYnVhFN4ebha4jCP+7H7fxODo6crRWMZcyzDK7DUrnLN+zQzBKy3txfgXNkFUVuBKeSd5g11k19NAYtJiSStgBY5UyiEAwYAb7whQv4C7YgzZsD2YDrOB0Yiu8ztGnnnMrPqH58XGULeiQj0sISAxYV/6uAoUVuBaeSdJq8sTX8hBayqmjocL6oWtcit/qwQY/uHqxew2MR9zRrgtddEKGmOpRlIHzYf0uQd2uqtVIHFJu5sVisZy5zJO02f0b/OV777RRGGdw8RtcjxL+3TwYQm7mFhQNu2ou0CMqKHY8TdA8UszKR8kqqa56i2jIDl6+mG5E4BorGMlbJWaeL+/u4z4sTquHAvDDejiXtiIkstRGPZwn+7I75jpKhFjnsN5hDKK7D0PpeCFkv7xiys8esputcgrY97YCsJWNIWOa5BKYlBlhGw2HOX7gOpdhyMZd6eLpcqZQ2rwGJCUVtbiw8//BAXLly4ZBc8f/48jh8/jh49epiWXZkhYK3aXoAhxIhuyRcrWzWFvGPQr6ZbCCVpBWzGTCuQ8lNHNnH39hYhf+n2H9sHdjiConDXLTEiZDSrkXc4LV9ef8oQ8k5YgDUELDZxT+kcKGorMI28Y8A6xOTzn18UaYm/pEXubGktbu9ngoBFOhHtTZGRIpQ0x7RZSM+JhDR5h7Q+K/XAqqyp16y6krHMmbxjwNRXestXP85DVLCnqK2Az64pTdxJ/5o7V7RdQMbA2XD38ZIlVm84BQoQynMhA2YWq0LOlV5A1za+orFs7+FSy1Rgrdt7FqWVdWJ7DbbjYH+nR8a0MuAX/ZlbUpw5cABYu1Y0li0ZMBdxnWINscgpF7DYxH3oUFGLpd0lAp3S5oruNWiRe33TaUsJWKzWlyRWb9AcANYRsMYPCMeXR0pFY9nLH+QaL2BlZWUhOTn5Uh+s+vp6bZWioDV69Gg4HA4EBgaqXQwvfpoZApZlyDsG/WIUsHgKL02RM4W8owcUAfKXXvZsC++H/V0GISYm4Bp55zJzkBsjI8g7VrEQsgKLNl2Wu3du7StGRN2y77z6U0cD1iFugtnvbMO/zolb5Exp4k5rExvgClHSHN98j/TKLpdOByUtclaiEI7oFapt9iRjmTN5x4Cpr/SWfM4cZbWitgKKGqZUYFEkfuIJUQtPxrLPMG5Kf7H1mZTPm5KC8NXRMssIWL3b+2OHvVg0lq3cVoB5F/HsSh8I4Q9jE3daCCXXZ+YMphwyUMAaO7bR0SAYy17cUYn5UxNFLXKzR8Rg2Yd56nMhjpHgXoPjbB98J/YeKRHda3Cac+23UgWWNLE69YZQS1kIjSBWk3xuuIWwffv2mDNnDiZPnoyHHnoIbNquV2V5e3tj/fr1SE1NFV66m3Y7MwSsDVnn4OHuImorMIW807QhbvarKGAx4LJEcMawaDGyA0/BlZ86ElP/wAOa9U/KwmOLScEFd09ERAdeI+9cZna9s6PQEPJOTW2DJSyE7IH1yOjW1iDvNHuF+eU3MLna+X2xBpNgubsURY49f0b3DVNvIYyNBVjpTELRggWAzQYUFl6x3cmRnYf0PvdrFkJJ8g7H+dCpSkuUzVMkZqULKZaSscyZvPPLM/nX/QpWyvJkVtJWQNrw7f3C1PfAKikBMjJE2wVkzPk74pNaiRKrvz1ZgdAAd/W5kAFTkWIln4eHUluJxrIzJbWYf7E5sAFfW9ktKWCt2FagracDE4PEYlnB+Ro8MCJW2d+hfRDFmZwcYPhw0Vi22HcQKv1DRPcaq3cUan3HlFdgkYRaVCS212DOYF/5IRwzfy+612DOQGK1lQSsNhGNsV4qli21ncKdAyMskQuxaIdtgVqHeYrGsp0HS4xt4l5UVITOnTvj7Nmz2ho0ceLESwIW/zcJhf+vUQgtQ94xKHxRwAoP9BC1FQT5umuCoSkCVm6uCPlLt//Y1h/AD+164neDo66Rdy4zB9lk0gjyzuCuwZYRsKpqGkRtBaaRdwxYh3QBi0FXkiJ3MLdCS0qUN3GfPBl47rlGi9M33wA//ADMnn3FdicmtOm7qnGNvHP5yUcBy9/bTTyWOZN3DJj6Sm+5+RuHJkCwslWKIsfEn33mlFMIH3208dkqKBCz8LCJe3hsiCixes+hUlTU1KnPhQyYWRSwYkO8NJs3KyCk7N7v7CjA4+PbGPCN1d5Sr8DipzIHloplm/c5MHFghNo/hgJWcDAwaZJoLHspfiL+MCVJ1CLXqZWPRsJWLmCNGAGsXy9qsbSPn4WoAT3E1medEGo1C+GModGixOp2EV7w9nSzjIB13/Bo7DlcKhrLVm4vMLYC69tvv8W4ceNw6NChawLWxeV+3Z4z2H+iQtRWwA27cvKOQeGLAlZSnK+4rYBfV7mARQvhrl0AK7GEyp5tc17GmZBWOF7hfo28c5k5yMTWCPKOr5ebJQQsnd4hQZNZ9WmBZt8wjbxjwDqkWwh/yK/U7i5lwaD9yxQBiw3c33sPmg1ZgJLmGHEH0me+CmnyDseZY8+Kgav94jNGG0BRsaxFzpm8c7WP0c7vikUtzLTIUTQ0xUJYXAykpIhaeDK6TMKMuYOhr7ESdu+RN4SCDYKV50IGTFZpMpo+znuPlFqmiTvdGZIWZuYMY/qFoXs7PwN+0Z+5JQUs5tO0yAnGsoXvHEZk23BRixytTXnnatQLWByjc+fE9hocZ/vpGmQe9xLda5DWx0b3VqrAkrbI7fy+RGt6boVciBVYLoDWV1Aylvl5uxrbA6uhoQEeHh44d+6c1ufKuQJr79696N+/P3bv3o1+/fqpXQwvfpoZFsI3t+ZjbHK4qK2Af47ypM2gX4wCFnuHSJVi6vYNUyyEbOJeUSFC/tLtP7ZvK1HmF4xhvcOvkXcuMweXrMs1hLwTbqEm7vFR3qK2AtPIOwasQxRR1uw+I2oroBWxtq7BHAshK7BaaBt0thw6HluA9JMRkCbvsEo2Kc7PEkkbhSZXFxeM6y9rkXMm7xgw9ZXekmN0fVs/UVvBtgPF6g/zRo5sbJ58kRQs1S4gIzAFVe7eYhZmUj7f3VmEiCAPywhYVTX18PZ0FY1lh05VqK/Aor371CnR5y/bvxW29L0T+Y4a0Vj21tZ87fBC6UVx5tgxYNEi0Vj20uhnkJzc1hCLnPIKLFLPZ80StVjajxYj6pn5onsNklBJ07WSgMVcKNDHTSyWfXW0FB1jfS2RC1HA4oHJ1n0O0Vi2/JN8PHZHnLYMGUYhfPLJJ/HCCy9oH7BixQo8/PDDWkP36dOnY/DgwbAxsTbpMkPAWrw2F/HR3qIWOVPIOwb9ZhSw3N1cRG0FLFuNCfVUn7QxoHDzOGqUWNmz7RhwIPFGDLo+7Bp55zJz8C8fnDKEvHNz1yDLVGCxP4+krYD2jf3Hy9WfOhqwDnE9La+qw+5DJRg/MEKMIvf3Tadx102R6i2E7IHVQtugs+XQsedrpPukQJq8w0MGKwlYveL9QcufpEXOmbxjwNRXestvT5ZrPc9InyTdjKTglo7Vxq8dGNg5UL2FcMwY4KOPRNsFZHx2HqmpXUSJ1QE+7jiUV6E+FzJgZrECKyHGB0dOV4rGstc3n1bfA2vKlEZLNyuMHn8c2LQJ8PcHEhMb51RaGrB0KdCtW+OBKP9/U6cCGzcCQUFAnz7/8d7srgPxaUxfTdDVrVsSRNTWYV7qN9YUsG68EThzRjSWLd5bj+njOola5IZ2D9GawisXsB56CHj4YbG9BnMG+4z5cFTUia3PulWcuaKVBCz+LVIWZsZBtq+IDvZU/5wZsE5TwDKCWL3nSCkeHdPaWAGLd3/ppZfwX//1X5eGxsXFBWPHjsU///lPA4ar6bc0Q8BiE/dgPzdxi5yVKrB4as3KKUmyw/t7zqhP2p5+Gpg2DRg/Xqzs2TZ5gTbBi+o9r5F3LvOoM3mQsn3pJa8k75BM16u9f9MXmF/pK3WSmaQFwzTyjgFjTAGL4tW0W6LAcncpCwb7/bAsXHkPLFIIly1rpBDu3t3YEJfXFRKLHOcqkD54nuj6rI+zlSyE/RICxC1yzuQdA6a+0lsysWUlh6StICrYQ6vgVt4Di72vhNsFZNz3V4QkxYvGMndXF61iSbmFkFVqwlfmjTNx8LreYuuznjP4erniUdUUQgpYR46IrM/62p498V6suH0B2kZ6iVrkuEYrF2cYs8rLgepq0Vi2qOPdKPcJFI1lz2WeRAOgfozYH4wHVYIWS/u0edg74wnRvQZ7gZJYbSUBy83VRZxYzfXIKhbC2FBPjXwuuS8rLK41pon7mjVrtN5Xzld1dTUOHjwI/jsxMREBAQHC4az5tzNDwGIF1sSUCFGLnCnkneYPd5PewQos2ptY7r7+y7NiZAdanJQnbTNnNv7NAuQv3cJjW/YRDsffIG6Rswp5h8PNjZER5J3kjoGWELAWr8tFZXW9qK3ANPJOk1aV5r2ICTpLuP283cBydymKXNaRUkxIMaGJ+7x5wIQJwAsviFDSHCPHIv0rQJq8w3Hm4YUVkjba45jUsp+jZCxzJu80b1b/+l695RsHvsupELUVrNpeiDuSTaAQson7tm2i7QIy9gPt4oJEidXr9p5FfYMJudBf/gL4+QGvvw4sXtxYTXTHHUBVFfDhhwDH7403gFatgGHDGiuOnnmmkZTKvcRPvDczqC86XBeCDQdlLXIrPsnHE3cqtshRwKJIs2oVEBUlYkfNXvQ37EEs4sI8xS1yt/YMUbugcGzc3YGnnhKNZUuCh2LquM6ie43kjgF4fXO+egErNbVR3BNsF2C/fwE6DestSvkkrY+tdKwkYJHILEmsZu5Jh4QVciHux6YPidKqrdkmQoqIShuqftAgaiEMDQ3V+l7xImmwrq5O7WLXxE8zQ8Dig8urpaXyztQeU8g7TRzj5r5MpxBK2go4Vo5yEyiE7IlBz74A+Uu38Nh+m4a86A4ouOB5jbxzmcmlVxZJWuRI3kmI9rGEgPXSulwteZC0FZhG3mnuAtOE11PAYqCljbCksk7M7r18a745AtYHHwBvvtloSxGgpDmeeh7p416ANHmHMZFJjhWSNgpYt/UO1QQayVjmTN5pwlT+Vb9k09cOMTKabt/IOVsDbiCVV2B5eABDhoi2C8hwxCF1SoqYhfnNLfkaWIBwCuWHef/9340CH61vzz4LnarcEjpq5qbjcO2WhNv7hYvGMlpb5120pih7gChg9ewpsj5rFsTMTGQvfx9ro2/ElMGRoha5LnG+GNbDBAGrf//GqmHBWLZwbz1S+sWJWuRyz9ZooATlVWo8qLr+elGLpT27BGvKYkX3GrTInSyqtpSAJW2RY+7Zu32AJXIhCliEq7B9hoSFWaep+ni54rGLlbKiAhYbt9fW1l4TsH4i+q3dcwY3dgkStciZQt4xKLJTwOLGSNJWoCOWlSdtbOLO/jMC5C/d/mPbmo1KH3/RUkxS5KxC3uG0JClHyvall7ySvFNX12AJAWvh+zmIDPIQtRWYRt4xYB2igEURVNLCTIscqSmmWAj/9KcW2wa1Yb5oOXSs+xjp24ohTd4hRa5fQqAlkjYKWCUVdeIWOWfyjgFTX+kt9UpZSVvBicJqzfqrXMBihSMtuoLtAjJGPYGCChfxWNa5tY96AcsAInPmw39DVVAoLvj4isayw6cqNWKW0osCFnPFK7R1O6/PGm12zhxkx3TGx8mTUHC+VjSWPZt5Ur04wwos/l0CFnjnsVpyXwZC2kQaYpFTLmDxGevVS9RiaT9ZjqTVr2g59ePj40T3ZVaqwNIP3aRi2YptBejfyRq5EOP8nJGxeO3j06KxTG+FwudZVMCiRdDPzw/t27fX+lzdeeedl40FbOqenJysNFboH2ZGBRYXf54QStoKTCHvGPSLUcAiWeb3t8WKlq3SZqlcwGIFVt++jWXwQhYem2sC9icOQkJ8sFgpJq2appB3DJpDLN82grwzsneoJQSsl9bnIjkhQNxWsOtgifrE1oA5RAEr/3zjKSrL3aWIqCx5vtuMJu7FxWK2FBLWHKvXIL3VaI1CKEne4Tiz15xVKrDYxJ3NaiVjmTN5x4Cpr/SWfM5yz1aL2gre/rQQhG0oF7BGjwayskTbBWSs/AYTJvcSszCzqlRveq48F9q8Gfj8c1GLZeYRV3Rq44/SOjfRWPY/Owou4dmVPRC6hXDGDEhRLNnE/YuyQPymZ4ioRY7V1l3b+CkbGu2DKGANHNh4GCxkseQ4L9rkwCNTuojuNfomBOC9XWfU50IkEJJmKbTX4Djbx82CPadcdK/BnGHn9yWWqsCihfDbE+VisYziFW2EVsiFKGAZQaxmT1m9UlZUwMrNzcU8ljMCSgSsTz75BPv27cNtt92Gzp07N3lhNUPAsmWdRc2FBlFbgSnknSaPcvNeSAErtU+YKHmHhKM9h0vUC1j33gv8+c+NPRyEyp5tw2ej3s0d1e6eVz95p3lTo8mvXv5JgSHkHas0cV+8NgfTh0SL2gpMI+80eVY0/YXcWB/Oq9BKuCXIaLrdm4KYKRVYFLC4QbpoLWmphcfh4Y/0hElaAipJ3qGFkNUCVkjaWIHFTZ5e7q5XAbfUTuhM3mn6jP51vpKHefcMjRa1FUSHeGqVgcoFLDe3RmucYLuAjBlLEZ4UL2Zhpn2Dh4OmNHG/7TZgxAhRi2XmKX8UdeuLiTfJxrLqC/XmCFglJaIWy+ylK/B28j24pVuQqEVu/wkTLJYUsMrKGsmMgrFs0XUTUOUXJGqR4x6PDaaVV2CRSnn4sNheg+NsX/QW7PfOF91r6MRqK1Vghfq7ixKrafe2Sj9QvdKaPUGZ40m1LiHh+Y9j47TkRlTAck6XjO6BtXr1akydOhVZWVno0aNHszI1MwQsy5B3mjXSTX8xBSxpWgEtcnmOGvUCFsUrYo4Fy55tT67A111vES3FZHmwKeSdpk+LZr2Sz5gR5B0uvlagEC5am4PyqnpRW4Fp5J1mzYymvZgCFpPQlMRAUYrc1n3ntT4AyimEtBCyf8hFa4l2kt0Cu5NjWCrSd5RpTcqlbQVWIe9QwCIooWOrRruWlAXDmbzTtNn8633VvuPlWL/3rHgs+93NkeoFrPnzAdI+BdsFZNhOIKl9sDixmjNCeQXWypUtWnN+ar3KnPo82vlewIcHa0Rj2cI1OeZYCNnEfs6cxkqjFqzP+nvZxD3Lqy3KqurELXIpXYLULiwtJOdqX/Yn7JlL6nth3vRuYusz9xrtY3zwt42n1QtYjPGCew3mDPa3P0ZSh2CtpYK+bkjEMh5eWEnAIk1XkljdIdoHXh6uljjM437s/t/E4OjpStFYxhzLkAosVSvb+fPnMXToUHz55ZdwdXVt0sfW1NSgtLRUe+3s2bORyaaSCq+3txfgXNkFUVuBKeQdg8aMAla7SG+xUkzdvmEKhXDAgEayjiBZxvZgOs4HRiK7zE2UImcKecegOfSPz4sMIe9EBHpYQsDiwj91cJSorcA08g5tO8KXvcwLVbFtcPzcBVGL3OrPCjG2f7h6AYtN3NesAV57TcTC41iagfRh8yFN3qGt3koVWGzizma1RpF3hKe98tu9+0URhncPEbXI8Y/o08GEJu5hYUDbtqLtAjKih2PE3QPFLMykfJKqmueoVi9gsYn7/v2iFsvMNz6Hb+/rkZwYLBrLWClrShN3zp8OHQAexNMK1kJ6dfbO/Xjfv5c4sTou3AvDzWjinpjIUgvRWLbw3+6I7xgpapHjXoOHYMorsHSRT9Biad+YhTV+PUX3GqT1cQ9sJQFL2iLHNSglMcgyAhZ77tJ9INWOg7HM29PlUqWsYRVYTCho8XM4HD+ZILH/VevWra8oeXrttdfw6aef4t1338X27dths9ng7++P6dOn47rrrvvJe+7evRt/IdL34qVawFq1vQBDiBHdki9WtmoKeeeKfrFffpNuIZSkFdC+QSuQ8lNHNnH39hYly9g+sMMRFIW7bokRK8Ukrc8U8s4vT4cresXL608ZQt4JC7CGgMUm7imdA0VtBaaRd2hNCQxstBd06tRYZdS7dyOeneX0PMneuhUYOhT47juAcJHu3YHPPgP69Gl8Nn/0XnubXvhn/K14aFRrUYvc2dJajZilvAKLdn4h8hepYY5ps5CeEwlp8g7tdVbqgVVZU69ZdSVjmTN554oWx1/Rm179OA9RwZ6itgJuHE1p4k7619y5ou0CMgbOhruPlyyxesMpUIBQngulpgLPPy9qscycvhDnotqga0KoaCzbe7jUnAosxqNRo9ASMqPze7P3Hce6m2eitLJObK/Bdhzs7/TImFZqVxKKMwcOAGvXisayJQPmIq5TrCEWOeUCFpu4M88RtFjaXSLQKW2u6F6DtvrXN522lIDFan1JYvUGzQGgWMA6eLDx+RK+0trdhfH9QvDlsQrRWPbyB7nGC1grVqzAPffcAxcXl58cFopP40luuYJr7dq1eOONN7Bs2TKkpKTg22+/1RrGU9SqrKwEaYg/d5llIWSPD0lbgSnknSv4vZryFgpYPIWXpsiZRt5hQBEky9jC+2F/l0GIiQm4+sk7TZkQV/AaboyMIO9YxULICizadFnu3rm1rxgRdcu+8+pPHSdNasRGv/deo3glYOGxT5uH6kcew4ajELfImdLEndYmIVsKx9nxzfdIr+xy6XRQMpZZiUI4oleottmTjGXO5J0rWBp/VW+h2OQoqxW1FdDqYkoFFkXiJ54QtfBkLPsM46b0F1ufSfm8KSkIXx0tUy9g8RDh1CmR9VknMvO37h3tih3Ha0Vj2cptBZh3Ec+u7IGh6PDMM6IUy+z5LyArv0F0r8GcwZRDBgpYY8c2OhoEY9mLOyoxf2qiqEVu9ogYLPswT30uxDES3GtwnO2D78TeIyWiew0+U1z7rVSBJU2sTr0hVL2FkGs0HWnLljUe/ArZUdO6zzaEWE3yueEWQvbAokjFBuu+vr6i8YB2wICAAPAz/v3vf19q4D5s2DC0adMGb7Jx9s9cZghYG7LOwcPdRdRWYAp5R/SX/P9vRgGLGyKWCM4YFi1GduApuPJTR/YzeOABQJAsY4tJwQV3T0REB1795B2D5tA7OwoNIe/U1DZYwkLIHliPjG5tDfIOT/YZcG02oLBQxMJjv38BdtZGIHVgDFjuLkWRY8+f0X3D1FdgEc8uZEvhODuy85De537NQihJ3uE4HzpVaYmyeYrErHQhxVIyljmTdwxaPpXdlpWy4weEi9oKSBu+vV+Y+h5YbMCdkSHaLiBjzt8Rn9RKlFj97ckKhAa4q8+FeNCQkCCyPuOFF7RxzvTpgZzuA7VKWZKUpYioZ0pqMf9ic2BlDwMFLE/PFtsGneNg9oNPYsVND2jr6cDEILFYVnC+Bg+MiFU2NNoHUZzJyQGGDxeNZYt9B6HSP0R0r7F6R6HWd0x5BRZJqEVFohZL+8oP4Zj5e9G9BnMGEqutJGC1iWiM9VIWuaW2U7hzYITaXIgC1qBBohRL3Hor0vb5oV2oG1pH+YnGsp0HS4xv4u7n54fy8nLDFrtFixbhj3/8I/bv34+uXbtqn/P000/jwIEDWMO+H78yAcsy5B2DflEKWOGBHqK2Alrk2IfEFAErN1eULGNbfwA/tOuJ3w2OEqXImULeMWgOscmkEVlXjokAACAASURBVOSdwV2DLSNgVdU0iNoKTCPvsPKB9h1WYc2eLWLhsWeXYGd9DNq1DhSlyB3MrdCSEuUWwsmTxWwpHGcmtOm7qnGNvHP5BYwClr+3m3gscybvGLR8Krvt5m8coCDHylad1NlSShETf/aZU04hfPTRRnscLclCFh42cQ+PDRElVu85VIqKmjr1uRAFiAcfFFmfsWmTNs6Zo+Yh1rMW245dEI1l7+wowOPj2yh7DrQP4pxhLBOkWGY//iKyQhO12zMHliKibt7nwMSBEWrHh/MnOBigEPrcc412XYGxeil+Iv4wJUnUIteplQ9IwlYuYJHyuX69qMXSPn4Wogb0EFufdQKd1SyEM4ZGixKr20V4wdvTTb2A9eSTohRLkq/TJi7FfUMisOdohWgsW7m9QE0FVl1dnWGLHe/t5eWFRx55BBSzeE2cOFH7Nyu/fm0C1ro9Z7D/RIWorYAbduXkHYN+UQpYSXG+4rYCfl3lAhY96bt2iZJlbHNexpmQVjhe4X71k3cMmkO0FhhB3vH1crOEgKXTOyRoMqs+LdDsG6aRd/iM9eolWvZsP1muWQh/qPbRZqiURY72L1MELB7kCFosHSPuQPrMVyFN3uE401rAioGr/eIzRhtAUbGsRc6ZvHO1j9HO74pFLcy0yFE0NMVCWFwMpKSIWngyukzCjLmDoa+xEnbvkTeEgg2CledCH33UuLEWsqXQKpX5/HvAzTeJrc/6OO89UmpOE/chQ0QtltmvvoO3wwaJ7zXG9AtD93Z+apcfCliM9bTICcayhe8cRmTbcFGLHK1Needq1AtYHKNz50QtlvbTNcg87iW61yCtj43urVSBNax7sGgs2/l9idb0XGkupPeKFSZ+pq05DRc0YMGEtqKxzM/b1fgeWKyCYrP15cuXIy4uzpBFr7i4GMOHD9f6bIWEhGifs3TpUvj4NG5ALneZYSF8c2s+xiaHi9oK+PcpT9oM+SUBCljsHSJViqnbN0yxELKJe0WFKFnG9m0lyvyCMax3+NVP3jFoDi1Zl2sIeSfcQk3c46O8RW0FppF3Zs1qJDZNmADdWoIWUnjs42Zhze4zorYCWhFr6xrMsRCyAkvQYul4bAHST0ZAmrzDKtmkOD+1SZtRa9D6XLi6uGBcf1mLnDN5x6Cvruy2FOOubytrK9h2oFj9Yd7IkY3Nk2+9VbRdQEZgCqrcvcUszKR8vruzCBFBHuoFLAOIzJnzXkeVfyC8A2QtcodOVZhTgSVMscz2jcaW5EnId9SIxrK3tuZrhxdKL26qjx0DWKQgGMteGv0MkpPbGmKRU16BxWeM+ZBguwD70WJEPTNfdK9BEmq67ZSlBCzmQlIWZloRvzpaio6xvmpzIQpY/KeF+fOP42Bal5mY0CcIW78vF41lyz/Jx2N3NGpKhlEI2Z+qoaHh0lr342buLWni/uMFtLCwUOuJ9UvClf4+MwSsxWtzER/tLWqRM4W8Y1D0ooDl7uYiaitg2WpMqKc5SRs3j4JkGdsx4EDijRh0fdjVT94xaA795YNThpB3bu4aZJkKLPbnkbQVbDtwHvuPl6s/dZw6tZE2yH6HF60lLbXw2Be9hfLZc7G70B3jB0aIUeT+vuk07ropUr2FkD2wBC2Wjj1fI90nBdLkHR4yWEnA6hXvD1r+JC1yzuQdg5ZPZbcl+ZY9z0ifJN2MpOCWjtXGrx0Y2DlQvYVwzBiAVUZsgitE/Mz47DxSU7uIEqsDfNxxKK9CfS7EjREpcoIWy8zNx5EQH4ojjgbRWPb65tPm9MBiddG4cWKxLPv2qfi0PFQTdHXrlgQRtXWYl9qNNVckClg33gicOSMayxbvrcf0cZ1ELXJDu4doTeGVC1gPPQQ8/LCoxdI+Yz4cFXVi67NuFWeuaKUKLP4tzIGlYlm7SG9EB3uqfc50AUvIAq/HwbTw0YYQq/ccKcWjY1obK2CdOHHiZxOiiIgI8ebuTc3AzBCw2MQ92M9N3CJnpQosnlqzckqS7PD+njPqk7annwamTRMly9gmL9Cmd1G959VP3mnqg9rM1zF5kLJ96bYCkneqa+stIWDpJDOOEy+JsTKNvNO/v6gtBf37w/72x9h9rBLThkSD5e5SFDn2+2FZuPIeWKQQCpJlHOcqkD54nuj6rI+zlSyE/RICRG0FtMg5k3eauSz+6l6e9o8TWiWHpEUuKthDq+BW3gOLwoxwu4CM+/6KkKR4kfX58fFx2ji7u7rA29NVfS5E+5cwkTmz1S042HmA2Pqsx0FfL1c8agaF8MgR0ViWPfFerLh9AdpGeola5LhGKxdnKGCxl3J1tWgsW9TxbpT7BIrGsucyT4IlG8rHyCAi894ZT4juNdgLlMRqKwlYbq4u4sRqrkemWAiZU5PoTQiZAPEzbbcLYv2BkFBf0VhWWFxrfBP3X13W5PSFzBCwWIE1MSVC1CJnCnnHoB+WFVi0N7HcnWQZKbIDLU7K+z7MnNk4SgsWiJU925Z9hMPxN4hb5Ewh7xg0h7gxMoK8k9wx0BIC1uJ1uaisrhe1FZhG3tH9+oJlz/aNWfgqshv8wgLBcncpilzWkVJMSDGhiTubAwtaLB0jxyL9K0CavMNx5uGF0qTNoDWI9jgmteznKBnLnMk7Bn11Zbfd8o0D3+VUiNoKVm0vxB3JJlAI2cR92zbRdgEZ+4F2cUGixOp1e8+ivsGEXOgvfxG3WGa2HY4OIS7YcFDWIrfik3w8cadiixyrHhjLVq0Ss/BkL/ob9iAWcWGe4ha5W3uGKFsntA/i2Li7A089JRrLlgQPxdRxnUX3GskdA/D65nz1ApZBROZOw3qLUj65p2MrHSsJWCQySxKr/bzdtKpSpbkQK7DYxJ09U197TSyWpQ15EtMHR+DQ6WrRWEYbqn7QYJiFUO0q17xPM0PA4oPLq6Wl8s7UHlPIO80b6ia/WqcQSpVi6uPsKDeBQsieGPTsC9BSdMKa7bdpyIvugIILnlc/eafJs6J5L9QriyQtciTvJET7WELAemldrpY8SNoKTCPv6Cf7gmXPdpcIFI8ai3IPP5RU1onZvZdvzTdHwPrgAzFbCu2ZjqeeR/q4FyBN3uFaTUuZ0qSteUtLk19NAeu23qGaQCMZy5zJO03+Mr/SF2762iFGRtPtGzlna8ANpPIKLA8PgE24BdsFZDjikDolRczC/OaWfA0s8EN+pfrDvP/+70aBT9BimbnpOFy7JeH2fuGisYzW1nkXrSnKHh3Gr549RS2W2cvfx9roGzFlcKSoRa5LnC+G9TBBwGJlCG2Wgu0CFu6tR0q/OFGLXO7ZGg2UoLwCyyAi85qyWNG9Bq3iJ4uqLSVgDegsS6wur6pD7/YBanMhCliDBolZ4HVaaNp3wfD3dMFdg6NFY5mPlyseu1gpKypgkQL4HkkRTbgke2A14eP+10vMELDW7jmDG7sEiVrkTCHvNHewm/h6CljcGEnaCmhFZIKrvAKLTdzZf+aLL8TKnm1bs1Hp4y9aikmKnCnknSbOiea+jHQ9KduXbisgeaeursESAtbC93MQGeQhaiswlbzDpFaw7Nk++E6th4WkhZkWOVJTTLEQ/ulPjSfYvATGyrHuY6RvK4Y0eYcWuX4JgWqTtuYuLk18PQWskoo6cYucM3mniV/lV/syvVJWwsKsW+ROFFZj2i1R6gUsVjjedJNou4CMUU+goMJFPJZ1bu2jPhcygMic+fDfUBUUigs+vqKx7PCpSixQ3aScAhZzRYH1Wbf/ZMd0xsfJk1BwvlY0lj2beVK9OMP4RVuTIMWSOcOS+zIQ0ibSEIuccgHLICJz0upXIEms1mmqVqrA0g/dpGLZim0F6N9JcS5EAYsHDAK2QYwff4kWmuZ5M+YMC8drn5wVjWV6KxQmOKIC1osvvoidO3c2KXH64x//iIEcMBMuMwQsLv48IZS0FZhC3jHo96KAVVVTL2oroBWRNkvlAhYrsPr2bSzLFLLw2FwTsD9xEBLig0UpcqaQdwyaQyzfNoK8M7J3qCUErJfW5yI5IUDcVrDrYIn6xHb0aKCoSLTs2b7yQ+TfPhnHa3zELMw6eeduM5q4FxeL2VJYXu5YvQbprUZrFEJJ8g7Js+w1Z5UKLDZxZ7Pa398WK2bBcCbvGLR8Krste+nknpW1Fbz9aSEI21BegcV1KCtLtF1AxspvMGFyLzELMymfCTE+OHLahAqszZuBzz8Xs6WwLUPmEVd0auOP0jo30Vj2PzsKLuHZlT0MuoVwxgyxWJbddSC+KAvEb3qGiFrkWG3dtY2fsqHRPogCFveJPAwWbBewaJMDj0zpIrY+c6/RNyEA7+06oz4XMojIbM8pF91rMGfY+X2JpSqwaCH89kS5mEWO4hVthEpzIQpYp06JUixRWAhSCI0gVrOnrF4pKypgqV3ZrvzTzBCwbFlnUXOhQdRWYAp558qH/WffSQErtU+YKHmHhKM9h0vUC1j33gv8+c+iZBnb8Nmod3NHtbvn1U/eMWgOLf+kwBDyjlWauC9em4PpQ6JFbQWmkXdGjADWrxcte7aPn4XD3rHonRQuQkbT7d60FZhSgUUBS9Bi6fDwR3rCJC0BlSTv0ELIagGlSZtBaxArsLjJ69rWTzSWOZN3DPrqym7Lw7x7hsraCqJDPLXKQOUClptb4xok2C4gY8ZShCfFi1mYSaDj4aApTdxvuw3gWi1oscw85Y+ibn0x8SbZWFZ9od4cAaukRNRimb10Bd5Ovge3dAsStcjtP2GCxZICVlkZ4O8vGssWXTcBVX5BohY57vHYYFp5BZZBRGb7vfNF9xo6sdpKFVih/rLEatq9lfcDpYDVoYMoxZKtb9J21CIp2h1u3l6isYyE5z+OjdPylWsClqK0zTLkHYPGiwJWiL+7uEUuz1GjXsCieLVxo2jZs+3JFfi66y2ipZgsDzaFvGPQHOIzZgR5hxvsXu39DfrW6m67aG0OyqvqRW0FppF3mNieOyda9mw/XQPbMRek9IwUpcht3Xced5lRgUULoaDF0jEsFek7yrQm5bp1izZk3RrQEuulcvKOQY8dBSyCEjq2arRrSVkwnMk7Bn11Zbfdd7wc6/fK2go4zr+7OVK9gDV/PkDap2C7gAzbCSS1DxYnVvMHVl6NvnKluMUyc+rzaOd7AR8erBGNZQvX5JhjIXzjDTHyFy08bOKe5dUWZVV14ha5lC5BytaJSxVY/D8ELZas6FpS3wvzpncTW58ZB9vH+OBvG0+rF7AMIjIndQjWWiro64ZELOPhhZUELNJ0JYnVHaJ94OXhqvYwjwIW82m2f6JdVyiWpT34f3H/8CgcLagWjWXMsa5VYNHzqfB6e3sBzpVdELUVmELeIZa9tFR85DJifoN23duJlWLq9g1TKIQDBgBMSgTJMrYH03E+MBLZZW6iFDlTyDvis6fxhv/4vMgQ8k5EoIclBCwu/FMHR4naCkwj7/AZY+l8jx7AK6+IWHjsR4tR9dupOF7rI2qRW/1ZIcb2D0fHWB+DZv5P3JZ9+NjEXZAs41iagfRh8yFN3qGt3koVWGzizma1tG4NTAwSoRQ5k3fUTSJjPundL4owvHuIqEWO37RPBxOauIeFAW3birYLyIgejhF3DxQlVtPKnOeoVi9gsYn7/v0i6zNtKWzLkPnG5/DtfT2SE4NFYxkrZU1p4s75wwoIoViWvXM/3vfvJU6sjgv3wnAzmrgnJrLUQjSWLfy3O+I7Roqtz7QQcq9Be7TyCiyDiMxr/HqK7jVI6+Me2EoClrRFjmtQSmKQegGL64/NBn2NlWh9k7bPD5H+rhiVHCkay7w9XS5Vyl6rwDImR/uPu67aXoAhxIhuyRcrWzWNvFNdDZC+Q3IBK4369Gks883LA3r1Aj75BLj+eoDl9ewPwTLyLVsAbjrptT1z5j/em5E4Eam/GyhKK2BFAMkXyk8duXn09hYly9g+sMMRFIW7bom5+sk7Bj1zL68/ZQh5JyzAGgIWm7indA4UtRWYRt556CHg4YdFy57tM+bjn7vP4KFRrUUtcmdLazVilnIBi3Qi2psiI0UsPI5ps5CeEwlp8g5pfVbqgVVZU69ZdWndkiKiOpN3DFo+ld321Y/zEBXsKWor4MbRlCbuzHPmzhVtF5AxcDbcfRptF87U6ZbQY5duOAUKEMpzodRU4PnnRS2WmdMX4lxUG3RNCBWNZXsPl5pTgcX8WdBimb3vONbdPBOllXView2242B/p0fGtFK2TlyqwDpwAFi7VjSWLRkwF3GdYsXWZx0Yxd6HygUsg4jMndLmiu41aKt/fdNpSwlYKYmBosTqDVlnzRGwuC//4Qfo1HsJ4mda9FiM7xOEL49Xicaylz/IvSZgZSquwLIUeaegANi1S7TsOeO+v6IgKEbcImcaeWfoUNGyZ1t4P+zvMggxMQFXP3nHoBSIGyMjyDtWsRCyAos2XSnbl24Z27LvvPqkbdKkxoArWPZsnzYP1Y88hg1HIW6RM6WJO61NgmQZxzffI72yy6XTQUmLnJUohCN6hWqbPUkiqjN5x6DlU9ltKTY5ympFbQW0uphSgUWR+IknRNsFZCz7DOOm9BclVt+UFISvjpapF7D0BsFCthTS6Phb9452xY7jtaKxbOW2Asy7iGdX9jCwR+Ezz4hSLLPnv4Cs/AZRCzNzBlMOGVhdNHZso6NBMJa9uKMS86cmilrkZo+IwbIP89TnQhwjYYslicx7j5SI7jX4THHtt1IFVkvaJvzUe1NvCDXHQkg9hO4qEnWFiJ9p3WcbQqwm+fyahVCxgLUh6xw83F1EbQWmkXcefRTYtk207DljPzDhltaitgLaN3gKrvzUcc4c4IEHAEGyjC0mBRfcPRERHXj1k3cMyg7f2VFoCHmnprbBEhZC9sB6ZHRra5B3eLLPgCtY9my/fwF21kYgdWCMiO2LtgKSd9jzZ3TfMPUVWMSzC9lSOM6O7Dyk97lfsxBKkndo9z50qlJt2bxBaxBFYla6DBO2yDmTdwz66spuy0rZ8QPCRW0FpA3f3i9MfQ8sNuDOyBBtF5Ax5++IT2olSqz+9mQFQgMae4wqvXjQkJAgarHM9OmBnO4DtUpZfY2VoHufKanF/IvNgZWNEQUsT09Ri2X2g09ixU0PaOuplIWZ41xwvgYPjIhVNjSXKrBycoDhw0Vj2WLfQaj0DxG1yK3eUaj1HVNegWUQkdkx8/eiew3mDCRWW0nAahPRGOtJUi4orgWt2q98mHfF82qp7RTuHBihNhfiIQPdVBMmAC+8IBbLaCFsF+qG1lF+orFs58ES45u433PPPXjrrbd+crHjf5s9ezb6sHTWhMsMCqGlyDu0Dw4ZIlr2nOGIQ3i/60VtBbRvsA+J8qSNAlZurihZxrb+AH5o1xO/GxwlZiugJcEU8o5BzzybTBpB3hncNdgyAlZVTYOorcA08g4rH2jfESx7tmeXYGd9DNq1DhSlyB3MrdCSEuUWwsmTRS2WTGjTd1XDEuQdg9YgClj+3m4ID/QQjWXO5B2Dvrqy227+xgEKcqIWOdsprc+ccgohD/NIIGRVuhDxk03cw2NDRInVew6VoqKmTn0uxOqQBx8UtVhmjpqHWM9abDt2QTSWvbOjAI+Pb6PsOdA+iHOGsUyQYpn9+IvICk3Ubi9lYWa1yOZ9DkxULYBy/gQHAxRCn3uu0a4rMFYvxU/EH6YkiVrkOrXyAUnYygUsg4jMUQN6iO41xg+MsJyFcMbQaFFidbsIL3h7uqkXsJ58EhK2Qec4mDZxKe4bEoE9RytEY9nK7QXGV2C5ubmhrq7uJ4MB/9u7776L8ePHqw0WFz/NDAFr3Z4z2H+iQtRWYBp5h0otSw35+wlZeDJGPWEd8g496cIWS9ucl3EmpBWOV7hf/eQdg556WguMIO/4erlZQsDS6R0SNJlVnxZo9g3TyDt8xthvT7Ds2X6yXLMQ/lDd2GxdyiJH+5cpAhYbuAutzxxnx4g7kD7zVUiTdzjOtBawYuBqv/iM0QZQVCxrkXMm71ztY7Tzu2IRcqWzBYOioSkWwuJiICVF1MKT0WUSZswdDH2NlaB8jrwhFGwQrPww76OPGnsXCdlSaJXKfP494OabxNZnfZz3Hik1p4k7D4MFLZbZr76Dt8MGie81xvQLQ/d2fmqXHwpYjPW0yAnGsoXvHEZk23BRixytTXnnatQLWAYRmTOPe4nuNUjrY6N7K1VgDeseLBrLdn5fglF9wtTmQqzAYssbHQYgZEdNW3MaLmjAggltRWOZn7er8T2wLidg5ebmok2bNti8eTOGctBMuMwQsN7cmo+xyeEtKi/8cWkih86UpI0lq2zOvmCBmIUnY+U3GHF7d7FSTH2sTLEQsol7RYWoxdL2bSXK/IIxrHf41U/eMeiZX7Iu1xDyTriFmrjHR3mL2gpMI++QQEj6oGDZs33cLKzZfeaKy78vVzpeW9dgjoWQFViCFkvHYwuQfjIC0uQdVskmxfmpTdq+/LJR/BS+lgx+FK6hoRg3IEI0ljmTd4S/svLbUYy7vq2srWDbgWL87uZI9RVYzGFvvVW0XUBGYAqq3L1FidXv7ixCRJCHegHLACJz5rzXUeUfCO8AWYvcoVMV5lRgCVMss32jsSV5EvIdNaKx7K2t+drhhdKLm+pjx4BFi0Rj2Uujn0FyclsR25dz3KdFTnkFlkFE5qhn5ovuNWivI03XSgIWcyG2iZCwMNOK+NXRUnSM9VWbC1HA4j9RUaKxLK3LTEzoE4St35eLxrLln+TjsTvitGVIlEL43nvvYeLEidqNGxoa4OLi8pNrXVhYGI4fPw5fX3NOXM0QsBavzUV8tLeorcA08g7pgjxVEyjl1akHGTOWwr1dG1FbAS1yMaGe5iRt3DwKkmVsx4ADiTdi0PVhVz95x6AM6C8fnDKEvHNz1yDLVGCxP4+krWDbgfMwhbwzdSpw+LBo2bN90Vsonz0XuwvdwXJ3KYrc3zedxl03Raq3ELIHlqDF0rHna6T7pECavMNxVi5gMWE7cgT46isxWwpj2ZIN+ejVuzWOOepFY5kzeceg5VPZbb89Wa71PCN9knQzkoJbaifc+LUDAzsHqhewxowBWGXEnqpCxM+Mz84jNbWLKLE6wMcdh/Iq1OdCfM5IkRO0WGZuPo6E+FAccTSIxrLXN582pwcWKx7GjROLZdm3T8Wn5aGaoNsScuWP39s6zEvtxporEgWsG29sJJcLxrLFe+sxfVwnUYvc0O4hWlN45QKWQURmR0Wd2Pqs01SZK1pJwOLfwhxYKpa1i/RGdLCn2udMF7CELPB6HEwLH20IsXrPkVI8Oqa1vICVl5eHLFbmgOCIsXj//ff/V1Lk6uqKXr16oVUrxSjWH6VmZghYbOIe7OdmDfLO/PkACVeCZc/s+zDuplhR8s6Um6Pw/p4z6pO2p58Gpk0TtVjaJi/QZnFRvefVT94xaKvE5EHK9qXbCkjeqa6tt4SApZPMOE68JMbKNPJO//6ithT07w/72x9j97FKTBsSDZa7S1Hk2O+HZeHKe2BxjRa0WDrOVSB98DxxWwHHWbmFkEkbN0eCthTa6pfc9zr69Wsjais4fLoSzuQdg5bP/33bvDyAldYGXGnz1miVHJIWuahgD5D+qLwHlkFE5pCkeJH1+fHxcdo4u7u6wNvTVX0uRPuXMJE5s9UtONh5gNj6rMdBXy9XPGoGhZBCuqDFMnvivVhx+wK0jfQStchxjVYuznCNLi8HqqtFY9mijnej3CdQNJY9l3kSDYD6MTKIyLx3xhOiew32AiWx2koClpurizixmuuR0nYKuoWQOfWOHQB7OAsQP9N2uyDWHwgJ9RWNZYXFtcY3cWc1llk9rn4p5zJDwGIF1sQUWVuBaeSdsDBAuOw5I3o44m/uKVaKqVMhaHFS3vdh5szGKShosbQt+wiH428Qt8iZQt75pQf0Cv972j9OGELeSe4YaAkBa/G6XFRW14vaCkwj7+h+fcGyZ/vGLHwV2Q1+YYEtpsk42wqyjpRiQooJTdzZHFjQYukYORbpXwHS5B2O1bj+4eqTtvx8wOEACgvFKGlLdtXALSwESdcFisYyZ/LOFS6PzXubLmC9+WajVVcwlm35rhzf5VSI2gpWbS/EHckmUAgNIjK3iwsSJVav23sW9Q0m5EJ/+YuoLQUdOiCz7XB0CHHBhoOyFrkVn+TjiTsVW+RY9cBYtmqVmIUne9HfsAexiAvzFLfI3dozpHnrSEtfzbFxdweeeko0li0JHoqp4zqLWuSSOwbg9c356gUsg4jMnYb1FqV80iLHVjpWErBIZH7viyKxWObn7aZVlSoXsNjEnT1TX3tNrPVN2pAnMX1wBA6drhaNZbSh6gcNohbClq5Vqt5vhoDFB5dXS0vl9VJM3ofITVPIO6R/kQYiWPacMXA2wsP9xEox9XF2lJtAIWRPDHr2BS2Wtt+mIS+6AwoueF795B2DHnS9skjSIkfyTkK0jyUErJfW5WrJg6StwDTyjn6yL1j2bHeJQPGosSj38ENJZZ2Y3Xv51nxzBKwPPhCzpZCW5XjqeaSPewHS5B2u1bSUKU/a1q9vJFzNni0Wy5YEDMZtQ+Px3eka0VjmTN4xaPn86QqsHj1ELZbMGTa9+pEo5ZP2jZyzNeAGUnkFlkFE5tQpKWIW5je35GtggR/yK9Uf5v33fwPbtolaLDM3HYdrtyTc3i9cNJbR2jrvojVFyTPGD2H86tlT1GKZvfx9rI2+EVMGR4pa5LrE+WJYDxMELFaG0GZJMX3TJpGxWri3Hin94kQtcrlnazRQgvIqNYOIzGvKYkX3GrSKnyyqtpSANaCzLLG6vKoOvdsHqM+FBg0Ss8DrtNC074Lh7+mCuwZHi8YyHy9XPHaxUtYwAYs9sBITE3GE5bE/cf2/RiFcu+cMbuwSJGqRM428wwXziSdEy54zln2GGbNvFLUVkFJEf7LymKtdzAAAIABJREFUCiw2cWf/GUGLpW1rNip9/EVLMUmRM4W8Y1B2SLqelO1LtxWQvFNX12AJAWvh+zmIDPIQtRWYSt4RoqXoJdP2wXdqPSyc6Wa0IbfUTkhqiikWwj/9SZQs41j3MdK3FUOavEOLXL+EQPVJ2z/+0XjiSKKukIVnSae7UeIdKG6RcybvGLR8/rSAJWyx5DjrlbISFmbdIneisBrTbolSL2AZRGQuqHARj2WdW/uoz4UMIDJnPvw3VAWF4oKPr2gsO3yqEgtUNymngMVcUTCWZcd0xsfJk1BwvlY0lj2beVK9OMMKLNqahNZnfZyX3JeBkDaRhljklAtYBhGZk1a/AklitU5TtVIFln7oJhXLVmwrQP9OJuRC7OEoYBvE+PGX2jKked6MOcPC8donZ0Vjmd4KhQmLYQJW37598dVXX2kfEBLyn6p9cnIyWrdubMSl+jKjAouLP08IpWgFtMiZRt4pKQEyMkTLnjPm/B1VgSFipZj6ONNmqVzAYgVW375ithSWl9tcE7A/cRAS4oNFKXKmkHcMeuBZvm0EeWdk71BLCFgvrc9FckKAuK3AFPIO+/MUFYmWPdtXfoj82yfjeI0PWO6u25BJz7kcYfD3t8X+Ypk9S57vNqOJe3GxmC2F5eWO1WuQ3mq0RiGUJO9wnNlrTnkF1rlzwOrVwAsviMWyJTur0Kt3HPbn1YjGMmfyjkHL508LWIQlCFosGcvsDzyF3LOytoK3Py0EYRvKK7AMIjJPmNyrRWvOj9erhBgfHDltQgXW5s3A55+L2VJoZc084opObfxRWucmGsv+Z0fBJTy7kmdMr8CiSDNjhlgsy+46EF+UBeI3PUNELXKstu7axk/Z0GgfxLHhxpqHwYLtAhZtcuCRKV1+MXY3J+73TQjAe7vOqBf5DCIy23PKRfcazBl2fl9iqQosWgi/PVEuZpGjeEUbofJc6NQpgNXWgu0CSCE0gljNnrJ6paxhApaHhwdqa2vVLnZN/DQzBCxb1lnUXGgQtRWYRt5h3wfa4wTJMmzinjq4rSh5h4SjPYdL1AtY994L/PnPYrYUjrNt+GzUu7mj2t3z6ifvNPE5be7Lln9SYAh5xypN3BevzcH0IdGitgLTyDsjRgC0gAmRv1j2bB8/C4e9Y9E7KVyEjKbbvWkrMKUCiwKWoMXS4eGP9IRJWgIqSd6hhZDVAsqTNvZ9ELSl4PHHsWTMM+jaI07cIudM3mnuunhFr9d7YPE5E7RYMpY92+sB3DNU1lYQHeKpVQYqF7AMIjKHJ8WLWZhJ+ayqqTeniftttwGcQ4JE5sxT/ijq1hcTb5KNZdUX6s0RsHggLEixzF66Am8n34NbugWJWuT2nzDBYkkBq6wM8PcXjWWLrpuAKr8gUYsc93hsMK28AssgIrP93vmiew2dWG2lCqxQf1liNe3epvQD7dABuvVPqvVN2o5aJEW7w83bSzSWHSuoMr6Je3BwMM6fP39FuZPRbzJDwGLZvGXIO9wYpaSIlj1ndJmEkD7dxC1yeY4a9QIWxauNG0XLnm1PrsDXXW8RLcVkebAp5B2DHnA+Y0aQd7jB7tXe36Bvre62i9bmoLyqXtRWYBp5h4ktK2gEy57tp2tgO+aClJ6RohS5rfvO4y4zKrBoIRQkyziGpSJ9RxksQ94h3YrWFF5CFp4lq75Dpbc/Ol4XJBrLnMk7SlYMXcDatUvUYslx3ne8HOv3ytoKGMt+d3OkegHLICJzUvtgcWI1543yavSVKxvnj5O1pKWtFTKnPo92vhfw4cEa0Vi2cE2OORbCN94QI39xnNnEPcurLcqq6sQtcildgpQsP5c+RIe1CK3PeruAJfW9MG96N1GLXPsYH/xt42n1ApZBROakDsFaSwV93ZCwE9KJZCUBi3v6lraYcG570iHaB14eruoP8wwgMqc9+H9x//AoHC2oFo1lS9bnGl+BNWbMGDz33HPo1q2b2gWvCZ9mhoD19vYCnCu7IGorMI28QywybXKCZc8ZgSlo1y5UrBRTt/aYQiEcMABgUiJIlrE9mI7zgZHILnMTpciZQt5pwjN6JS/5x+dFhpB3IgI9LCFgceGfOjhK1FZgGnmHzxhL5wXLnu1Hi1H126k4XusjapFb/VmhBtvoGOtzJdP6yt7DPnxs4i5IlnEszUD6sPmQJu/Q7m1KBRbXZzZQFoxlS9qOw23DOuDkuVrRWOZM3rmyCdHMd+kCFts8CFosmTO8+9IHGN49RNQix7+uTwcTmrgbRGQecfdAMQszbVC0Qec5qtULWGzivn+/KMUy843P4dv7eiQnBovGMlbKmtLEnURvVkAIxbLsnfvxvn8vcWJ1XLgXhpvRxD0xkc1uRGPZwn+7I75jpKhFjnsN+8kK9QKWQUTmNX49RfcapPVxD2wlAUvaIsc1KCUxSL2AxfXHZhNtF5C2zw+R/q4YlRwpGsu8PV0uVcoaZiF8+eWX8dhjj+HFF19Eu3bt/iN7+n+tB9aq7QUYQozolnyxslXTyDtjxgAffSRa9pzx2XmkpnYRpRWwGTPJF8pPHbl59PYWtVjaPrDDERSFu26JufrJO83cSzX15S+vP2UIeScswBoCFpu4p3QOFLUVmEbeeegh4OGHRcue7TPm45+7z+ChUa1FLXJnS2s1YpZyAYuwDUGLpWPaLKTnREKavEOKnCk9sChgMfl//HGxWLbE/2ZU+gZg+rBY0VjmTN5p6nrYotfpAhbHSIj8pY/zq5+cQVSwp6itgBtHU5q4G0RkdvdptF04U6dbQo9duuEUKEAoz4VSU4HnnxclMmdOX4hzUW3QNSFUNJbtPVxqTgVWnz6iFsvsfcex7uaZKK2sE9trsB0H+zs9MqZVi5aVZr+Z6/OBA8DataKxbMmAuYjrFGuIRU65hdAgInOntLmie42ubf3w+qbTlhKwUhIDRYnVG7LOmiNgsQfWDz+ItgtIix6L8X2C8OXxKtFY9vIHucYLWG5ubiCJ8HJXZmYmxrOs2ITrZyuwRo405Bul/fZVTVWVohWs+rQAppF32PuK1oI5c8QsPBn3/RUFQTHiFjnTyDusUhMse7aF98P+LoMQExNw9ZN3DHnCgFc/zjOEvGMVCyErsEL83cVtBVv2nVd/6jhpUmPAFaSk2afNQ/Ujj2HDUUCnm5HUqdNzWkInNKWJe3a22PrMcXZ88z3SK7tcOh2UjGWmUAhpIeQaTcqVUCxbsvkcRgyJx3v/KhGNZc7kHYOWz/99W13AYhzjJRjL7AvS4SirFbUV0OpiSgWWQUTmcVP6ixKrb0oKwldHy9QLWFu3AtwcCRKZ+Vv3jnbFjuO1orFs5bYCzLuIZ1fyjPFD2KPwmWdELZbZ819AVn6D6F6DcVD5IQPHhwLW2LGNjgbBdgEv7qjE/KmJoha52SNisOzDPPW5EMdIcH3mOJPIvPdIiehegz8nDxqsVIHVkpzwp96bekOoORZC9uBbtky0XUBa99mGEKtJPje8ifsvNXCnwOXq6qosTjh/0M8KWFSz2YT7ww8BNivnwtmqFTBsGJCW1hhs2Px13DjAzw94/XVg8WJg6VLgjjuAqqqffO8G1w7wCAoQtRWYRt7huGzbJlr2nLEfmHBLa1FbwcDEIO0UXPmpIzdDDzwgarG0xaTggrsnIqIDr37yjkFP/Ts7Cg0h79TUNljCQsgeWI+Mbm0N8g5P9hlwBcue7fcvwM7aCKQOjAHL3ZtCGGwKpYg9f0b3DVNfgUU8u5AthePsyM5Dep/7NQuhJHmH43zoVKX6snn2CCMI4LXXxGLZkgEPIq5jNIb1CBWNZc7kHYOWz58WsO6+W9RiSavUy8FDMX5AuKitgLTh2/uFqe+BZRCROT6plSix+tuTFQgNcFefC/GgISFBlMic6dMDOd0HapWy6788K2b3PlNSi/lj45Q8Xpc+hAKWp6eoxTL7wSex4qYHtPWUObBULCs4X4MHRsSqHR+KMzk5wPDhorFsse8gVPqHiFrkVu8o1PqOKa/AMojI7Jj5e9G9BnMGEqutJGC1ifASJVYvtZ3CnQMj1OdCgwYBEyaItgughbBdqBtaR/mJxrKdB0uMb+KudpVr3qf9ooDFpH/uXNGy52cfftc65B0PD2DIENGy5wxHHML7XS9qKwjyddcEQ1MErNxcMVsKCT629QfwQ7ue+N3gKDFbAS0JppB3mve4NvnVbDJpBHlncNdgywhYVTUNorYC08g7rHygfUew7NmeXYKd9TFo1zpQlCJ3MLdCS0qUWwgnTxa1WDKhTd9VDcuQd0i3+uorIDJSLJYt+RfgHx2K8FAf0VjmTN5p8oLYkhc6WwgFLZaMZZvPB4GCnKhFznZK6zOnnEJoEJE5PDZElFi951ApKmrq1OdCFCAefFCUyJw5ah5iPWux7dgF0Vj2zo4CPD6+TUuemua/lwIWYxmp3kKxLPvxF5EVmqh9F+bAtG5JtC7ZvM+BiQMjmv83tuQdnD/BwQCF0OeeE9uXvRQ/EX+YkiRqkevUygckYSsXsAwiMkcN6CG61xg/MMJyFsIZQ6NFidXtIrzg7emmXsAygMicNnEp7hsSgT1HK0Rj2crtBcZXYHHNys/PR/v27VFVVYW6ujptGcvKysKyZcuwknQSgYv360MPeTOuXxSwBG0pGoFl926s23oC+8+6iNoKTCPvUKkVJstkjHoCliHvsIpP2GJpm/MyzoS0wvEK96ufvNOMZ7U5L6W1wAjyjq+XmyUELJ3eIUGToYWZtgLTyDt8xnr1Ei17tp8s1yyEP1Q3NluXssjR/mWKgMUG7oKxzDHiDqTPfFWj6UqSdzjOtBawYkDZRWsTm5MTQS4Yy5ZUd0Pq8A4oqmgQtcg5k3eUjJEuYPGwStBiSUrazlWfiNhynS0Y/t5u5lgIDSIyz5g7GPoaK2FhHnlDKNggWPlhHnulsg8faZ9CRLnM598Dbr5JbH3Wx3nvkVJzmrjzMFjQYpn96jt4O2yQ+F5jTL8wdG/np2T5ufQhnDOM9bTICcayhe8cRmTbcFGLHK1Needq1AtYBhGZM497ie41mDOw0b2VKrCGdQ8WjWU7vy/BqD5h6nMhtgoQWp918nXamtNwQQMWTGgrGsv8vF2N74H19NNP49lnnwX/vXHjRnzBBRrAsWPH0KFDB3z99dfo3r17ixZDd3d3uLi4aPfq2rVrk+/1iwIWk9rCQtGy5zdvnvP/sfcuUFmVaf//l4Ocz2cQRFFURFMhFQEVTCwNDwl5yPKQdtBJOzgt30mTydJl6lNY1oQzTR56bWQyNbTU1Ekj0yHf8oCppCAeABUfFTkL/tf10PbH9Dqh8t33fof132u1aibwic3z3Pd1X/v7uT4YFR9AxQrkBzZk7oNEVnNyqLHnjFU/YsjI7lSsYEpSgDEIoQxxr6igYSmYOxdZRypx3dkDSdE+//nmnTv+pN7dF5o2ntXFvOPTgoa4h/k7ULECw8w7YiB8911q7Dk35Rms/+4SFSsQfKO27qYxCKEksIiIpfnluUgv9AXbvCMp2cgQZ/VFW3Z2A/Yv76O5cyn3yhQ2GtZenkiJ9aXuZY3NO3e3Kt7jV2sNLDFZEhFLuc+mg7a4L5SLFew6fBVPJPipT2DpZGSusnWgIcxi+VyXfRG+7q3UN7B0MDJnzlqBKhc3OLhyEbnj5yqMSWCJhVASECSEJ98pAF/FjEWxuYa6l/11R7Hl4YXSSw7Vp04BixdT1mftPi8dPh8xMaG6IHLKE1g6GZn958+mnjXEhCo23ZbUwJJayM3RhobIHThZho5BTuprIXmg5+9PHReQ1mUqRvdyx46fyql72Uc7i/HyIw2oty4WQklbOTg44OzZs/D398eYMWOwbt26W+uezL+S/93cIe7y5zz++OM4d+4cdsgv4Dcu+W+qqamxfMXEiRMhQ+Rve0m3XyKZ06ZRY89Lop9FWLALFSswzLxjY9PwVI0Ye86Ysgy2bdtQsQJB5AK97Iwp2uTwOGwYLfacdQo4HNEP/e/z/s837+hUAb39+TldzDsJXd1bTAJLTFRMrGDX4Ss4VFCu/qmjPGQ4cQL48EOaJS138V9RPm0GvrtgC4m7y/w8xr3687YiPDbATz1CKDOwSFiK3Gfzvh+Q7hgPtnlH7rMhDay8vAaEkDguwLS5GFHRwThlrqfuZY3NOzotn//6x2oNLKmFiIil1AxHElMtM8/EPil2MzEFNxcn3PqDGXGd3dQ3sHQ0MjOwL1mf5T67Otri+PkK9bWQ1OVikRPxj+ByBBw1c3sBwsO8kGe+SVmftfu8YnuRMTOwJF0kM3VJe1n+yIn4utzL0tBtjrny198b7G2v9mAtK5I0sPr1Ay5dou5lS/bXY3JKJyoiN6i7p2UovPIGlk5GZnNFHW191myqUiu2pAaW/CzaGsvYy9r6OSDAw07t50zWaPmLtD5r5us0n+G6GKv35ZXh9yOC9WtgHTx4EOPGjcPRo0ctL6JXA0sSWNKUatWqleXv0tD6d9ff//53SPJKrkcfffS3G1iCf/2C/rFidZu/LoSHnzsVKzDMvDN7NiCGK2LsOSPrNFIGBFHNOxMS/PHZvkvqi7Y//hGYNIlqlskaN9fy3r1Yb/efb97R6QQmnwcW9qVhBWLeqa6tbxENLM1kJvdJLsa9Msy807cvFUuR2HPumi/x3alKTHoggIrIybwfiYUrn4ElazTRLGO+XIH0xFl0rGDemDbGIIRyOCJiKVIzmJ5egT592lCxghNFlWhs3tFp+bx9A0uae0TEUmqGtMQ5liQHE5Hz92iFIVFe6htYOhmZPSPDKOuzZlO1tbaCg521+lpIHgiTjcyZrQfiWOdYOiLnZG+N3xthIZRGOhGxzB/zFFaOnItQP3sqIicPzJU3Z2SNFltsdTV1L1vccTzKHd2oe9kbmYW4Cai/RzoZmfdPmUM9a8gsUDFWt6QGlo21Fd1YLXW58nEKskZLTU0cF5D2nRWCXABPLyfqXnbhaq2+Q9zNZjPatWuHK1eu/K8GliShpOEkCajmJLDq6+thZ2cHsR3+6U9/wu9//3tcunQJR44cQe/evX+zxmsSIQwOpk7jx5QpWPJyJsb086NiBYaZd7y9AXLsOSNgMMISetKimIUXqyzxYEGclM99mDq14f1HwlIk9py1/AucCLufjsgZYt7R6QSW9slpXcw7MR3d1DawCgqAiw1NJua1JN8blTdtqViBYeYdjdcnxp5zt+bggF83OHu7QeLud2IYFDxHTFhJ3T3/7dqek1eG0fEGDHGX4cAkLEXi5eaHRyH9AMA278h9Tunro75oKy4GzGbquADT3hrYeHsisp0bdS9rbN5hrgn/9s/SEliSCiEilrKXfXW0HEfPVFCxgtX/uIBHYgywEOpkZG4b4k41Vm/cX4r6mwbUQm+/TcVSxGKZGToYHTytsPkYF5FbubMYcx5VjMhJ6kH2stWraQhP/uIPsA9BCPG2oyNyD/b0VLL83HoRuTe2tsC8edS9zOQxCBNTOje5dwvefqcmx5iOrlixvVh9A0snI3OnpGiq5VNqpA93FLeoBpYYmVmWT0ERnR1sLKlS5Q0sQZhlZipxXEDaA69icqIvjhdVU/cywVC1Bw26IISy+Mjw9tmzZ1sQv8mTJ1uQQWk6zZkzB4sXL8aZM2cQJIjDPV4VFRVwdXW1DIcvLy+Hm5ubJYG1cOFCSzPrt64mG1iymWzbRo09f7j1LODk1OyovBbFlMi9KDcNMe+I/UuezBJjzxlx0+Dj40zFCuRemcsNsBA++GADs09ELLMeT8P5gA4ouWH3n2/eucfPfFPfpiWLGNiXhhWIeSc8wFFtA0tmqO3ZA8iMQPm7SCrkSb9Y0zp1anhKEh0NVFU1YHSSkJAIsDxFkdRrbe1tv3fpIwvxwqRuVKzAMPOO9mSfGHvOtfLF1WGjUN7KGdcq62i490c7io1pYMn8IhKWIvFy87wFSE9ZCLZ5R/YyQcqUF22bNjUYrojjAkyuiRg6KAxHi2qoe1lj805T6yDl32sNLB2MzNve/4JmRtPwjTOlNZADpHILoU5G5uQJ8TSEWfay5Pu98HNxpfqHee+8A+zaRTUyZ24rgHW3SIzs40Pdy44UlhszxL1nT+pZI/+jz7AhoB8mJPpREbkuIU5I6mFAA0uSIYJZEveyRfvrEd8nhIrInS2tsYgSlKfUdDIyr78eRD1rCCpeeLG6RTWwYjtzjdXlVXWIbu+qvhbq379hLBBxXEDaUQ+42FnhscSGWdSsc5mjvTVe/iUpq1sDa+fOnUhKSrIMWb9586bl73LJPxcVFVlmYzXnunjxIgIDAy0JrC5duiBPYriQs1vtrdf6d39+kw0sOQjKJYsmKVa34bE09IvyoyJyhpl3ZMGcM4cae85YvgdTpvWjYgViKZICV3kCSxoQ0pwlIpZZO/JR6ehCjWKKRc4Q805zPvi/8b1i1xMciYnIiXmnru6m+gaW/JyCgMXF0RCeRXuq4Nfag4oVGGreIa7Pcp9zEx+1vHca280EQ26ucU+sKYYghH/4A9UsY974JdJ3XQXbvCOIXJ9wN/VF2yefNDxxJI4LMHUaj2sObnRErrF5R6fl81//WK2BRUYsBZXSkrIMhFlD5E5fqMakgf7qG1g6GZlLKvjG6s7BjuprIR2MzJkvfoAqdy/ccHSi7mUnzlViruoh5fIARmpF4l6WH9gZX8aMRcmVWupe9npmofrmjCSw5IEdEbGUM53p6Qx4tvHTBZFT3sDSycgcufZdMI3Vmk21JSGE2kM31l62clcJ+nYyoBaSmeDEs4Z8ZtPsEvBckg/+tLOUei7TRqFIwaJbA6vh/JVvsQ9u3rwZV69exfDhwxEVFYU+ffo0uwbTGlhhYWF49913MXjwYDz44INo06YN/vKXvzQvgTV+PD32/Hqrfojp4knFCgwz71y7BmRkUGPPGc/9GVVunlSsQNAewSyVN7AkgSUYK9Esk2UdjkMR/REe5nHHkeY7waAMMe80+9N/+z9A4tt6mHcejvZS38DauhV48klAEhAkhGepYz/ExLajYwV7j11TX9iKCVUwS2LsOXfVFhSPHIeCGsffRALvBivQzDvjjRjifvUqDUuR+2xeux7prYdbLIRM847g3jJrTnkC6/JlYO1a6rgAU3YVoqJDcOh8DXUva2ze0Wn5vH0DSwcjc+70eThbysUK1nx9ASLbUJ7A0snIPHpcFA1hlvUqPNAReUUGJLC2bwe++YZqZM7Ms0anNi4oq7Oh7mX/vbvklp5dyWdMXkRDCKdMoe1l+V3j8O11NzzU05OKyEnaumsbZ2W3xvJC0sCSg7U8DCaOC1i8zYyXJnShInK9w13x6d5L6mshnYzMuWfKqWcNqRmyf7qmPoEl57GXXwakL9C2LSBpozfeAObPb3h/yXlf5mcLebVwIZCeLoO7AamfZP164YX/9b3mua8j/WoHCEJ45HQ5DZGT5pVghMproXPnqGcNXLgAsRDqYayWmbKz9BziLutObGws9sowdB0vsQl++OGHkGHucp0+fdrSwNLSXvecwJI3MsGW0jiSl1VgjRp7JypWYJh5RxBNweOIZhkZ4p6cGAqmeUesEPtOXFPfwHrqKeC116iIZdbgaai3sUW1rR0tiilJE0PMOzqtCR/tLNHFvKN8iLsk+EpLgeeeo1ksxUa3pP1YTB7VkYoVGGbeETuaIGDE2HNu6jM44RCE6EgfihlNw70FKzAkgSUFGBGxNLdyQXr4WEsByjTvCEIoaQHlRZs8YCBiKVIzmEbMR9ceIXRErrF5R6fl8/YNLB2MzK9HTceTg7hYQYCnnSUZqLyBpZOR2ScyjIYwC75RVVNvzBD3oUMbrN5EI3PmORdc7NYbYwYEUPey6hv1xjSw5IGwJCBIe1n+spVYE/MkBnZzpyJyh04bgFhKg0FGJ7i4UPeyxe1Go8rZnYrIZeWUQgZMK09g6WRkzn1qNvWsoRmrlSewZA2ShpQORmYvF66xWs6/hswD7dCBetaQsQxpu2sRGWALGwd76l52qqRK3yHuUgl5enpChrn/X7yaRAhlrgFxGj9SU5E2az0dKzDMvCMHo/h4auw5o8tYePbqRkfkzptr1DewpHklCRpi7Dnr1ZX4oetAahRT4sGGmHd0WhQETdHDvCMH7Kj2Ljr9V9/mj5UG1unTwPffUy1piz8+3nLMO1LYSoKGGHvOLapB1ikrxPf0o1rkdhy8gseMSGAJQkhC4OU+m5OSkb77OlqMeUfsVrJGy0VCeEyrj6LSwQUd27lT97LG5h0lC5GGEOpgZD5YUI5N+7lYgexlTyT4qW9g6WRkjmzvQTdWy/tGeRp91SoaAm+pyb/9FpkTF6Ct0w1sOVZDReQWrT9jDEIoyRB5WEXay2SIe459KK5X1dERufgu7kqWn1svoslaSOuzdp9N9VGYNbkbFZFrH+iID7YWqW9g6WRkjuzgQR3HIbi3YKjKG1gPPCBDuakWS83ILDbd5o6YaDz2pEOAI+xbWat/mKeDkTlt5t/w7GB/nCyppu5lpk1n9U9g9ejRA1u2bEHr1q3VLnh38GpNNrBk+C1xGr/Y6Nb8ZIXLN2ypWIFh5h2ZESaxTGLsOcMtHm3betGimL8bGmSJBxtiIYyNbYicEs0yWTPTccXND/nXbagWOUPMO3fwGb2XL/nkm4u6mHd83Vqpb2DJwVoG4GZl0SxppuHzMTE1gooVGGbekc+YROeJiGXuyauoenwiCmodqYjc2j0XLLKNjkGO9/K2vrfvkSao7GNExNK8LAPpSbMtsXmmeUdMjoYksGR9lgHKxL3MFJqCoUkdUHi5lrqXNTbv3Nsb4i6/S2tg6WBkXrf0cwzu7klF5OSn69XBgCHuOhmZh4yPoxqrBWU+b65W38CSPezQIaqROfMv38Ap+j7ERHhQ9zJJympoyl1+Wu79yyUhK0ZvSUCQ9rL87EP4zCU47j6XAAAgAElEQVSKbqwO8bHHYCOGuEdEyLAb6l626H9sEdbRj4rIyVkjt7BCfQNLJyPzeuee1LOG1AyXr99Q38CSBNbGjVSLpWZkZiNysgbFR7irb2DJ+kM8awiKmXbQGX4u1hgW40fdyxzsrG4lZXWbgSW2wUWLFiE9Pd0ybP3XV0xMDIKlODLgarKBJZFn4jR+we1W+yfggd6BVETOMPPOiBHAF19QY88Ze64gObkL1VYgiJyYL5Q/dZTDo4MDFbHM+jwXZnd/PDYw8D/fvKPTZ/6tTed0Me94uxrQwKquBtq1o8aeF+UA8b1aU7ECw8w7zz8PvPgiNfacO2U2/v7dJTw/LJiKyJWW1VqMWcobWCLbIGEpMjPCPOkZpJ/xA9u84+/eypgZWNLAkuKfOC7A5JKASidXTE4Kou5ljc07Oi2ft0cIdTAyv7/zEvw97KhYgRwcDRnirpOR2daxAbtobJ1+74vzSI3zvaf31bLN5yANCOW1UHIysGAB1cicOXkRLvu3QddwL+petv9EmTEJLLEMExHL/IMF2JgwFWWVdVRETuY7vTRCcSBB1ufDh4ENG6h7mSl2BkI6BemCyClHCHUyMndKm0E9a3QNdcaKbUXqG1gPPdQwz4o4LkAzMsdHuFGN1ZtzSo1pYMkMLCJiiW3bkBYwCqm93PHPgirqXvbW52f1b2DZ2NhYjIP/7srMzERqaqqSWuzXL9JkA2vGDHrsOS1xjqWryrIVrP66BIaZd2T2laAFxNhzxtPvocQ9kI7IGWbekZQaMfac5dMHh7r0R2Cg63++eUenT/37X57XxbxjCEIoDWJ58rh8Oc2SZuowFp7tAuhYwVcHr6h/6jh2bMOGS7Sk5U6aheqXXsbmk4BmNxNTp2bPaY6d0JAh7mSLpfnHn5Be2eXW00HmXmaIhVAQQlmjieMCTNsvY8gDYfj0+2vUvayxeUen5fP2DSwdjMy5c9Nhvl5LxQrEHmpIAksnI3PKhL5UY/WASHccOHldfQNrxw5ADkdEI7P8rqMDrLG7oJa6l63aVYJZv+jZlXzG5EUkgSXDpOUsRNrL8mcvRE7xTepZQ/ZB5aINuT/SwBo1qoFoICGWcp/f3F2J2RMjqIjctCGBWL7lvPpaSO4R8ayhGZn3512jnjXk1ykPGpQjhLKHyTpExFE1I3NzasLbfW/y/V7GIIQyg4941pDfdVr3aboYq8V8rvsQ9/MSQf+NS2ZkOToqRCoa/bc02cCSTi3J/CXT+MVGt3lvMVq5u1KxAsPMOzLEfdcuauw54xAwemAwFSuIi3C3PK1U/tRRGnvTp1MRy6zAeNywtYNvgNt/vnlHp+rw490XdDHv1NTeVI8Qnj0LvP02Nfa82OtBvPR4A0LIssgZZt6RJ/uy4RJjz7nPzkV2rS+S47iInMz8Gd7bW30CS/TsJCxF7rM5/zzSez1LN+8I7n38XKX62LzMCBMRAHFcgCl2JkI6BiCphxd1L2ts3tFp+bx9A0sHI/NbHoOQGutDxQrENjyyj7f6GVg6GZnDIltTjdVHCivg5WqrvhaSBw3h4VQjc6ZjD5zpHmdJyjL3skvXajF7VIiSj9etF5EGlp0dFbHMn/kqVg6YbllPpQZm4d4lV2owfUiQ2vsjTYczZ4DBg6l72RKn/qh08aQicmt3X7DMHVOewNLJyGye+jvqWUNsfWKsVt7AevhhoFs3qsVSMzK38bWnGquXZZ3Do3G+6mshMTOOHk01MgtC2NbLBsH+ztS9LPvYNf2HuHt4eODKlStqF7s7fLUmG1hS9EsKS0x7pFjd6y+uaznmHRlyL4PxiLHnDHMIfPrcR8UK3J1sLQ1DQxpY0oAgmmWyNh3Gz2174olEfxpWIEiCYeado0eBLl0AuU9yCU587FhDsVtcDIhZ1MsLyMtrQOkEqbt4seHf/5vvnT/rU13MO4ldPdQ3sIqKgJwcaux58b66lmPekeSD4Duk9Vni5bn515BdH4i2wW5Ui9yxsxWWokQ5QjhuHBWxlII2fW81Wox5R+xWBw5QxwWYvgdcArzg4+VI3csam3fusMxp3pdpM7B0MDJvv+IOachREbmsc5Y5c8othDoZmX2CPKnG6n3Hy1BRU6e+FpIGxMyZVCNz5rBZCLKrxa5TN6iI3Me7S/BKapvmfW7u9rulgSV7GfGskf/Km8jxirD8l0gNLOgWw+69/aAZY+J87/YnbN7Xy/vHwwOQRugbb9DOZUvDxuCFCZFURK5Ta0eICVt5A0snI7N/bA/qWUPwZ0MQQjmrCqarg5F5yqAAqrG6ra89HOxs1DewdDAyp41Zhqcf8MW+kxXUvWzVP0r0T2C5u7vjqnCn/wevJhtYpChv40jexh2ncajUiooVGGbekU7tgAHU2HPGsDloMeYdYdLJiGXWc2/hkmdrFFTYtgzzjqRDyLHnzA5DdTHvONnbqG9gyQBuosVSbHSmpzMwa/J9LcO8I5+xqChq7Dm3sNyCEP5c3ZAMZiFygn8Z0sCSAe7Evcw85BGkT33fYtNlmnfkPgtaIIkBZZcgBQsXAqIgJ+5lpupuSB7cARcrblIRucbmHSX3SGtg6WBkzl69k4LlNkYwXBxsjEEIdTIyT5mRCBkTwUKYH77fCzIgWPnDPEHhZQ4fcS/LXPApkDCAtj5r93l/XpkxQ9zlgE1ELPPf/xhrvPvTzxoj+nije1tnJcvPrReRBpbs9VIrEveyRR+fgF+oDxWRE7Tp/OUa9Q0snYzMmQX21LOG1Awy6N6QBNaWLboYmZO6e1D3suyfrmFYL2/1tZBglkTEUsYypK0vghVuYu7oUOpe5uxgrf8MrMTERLz55pvo3bu32gXvDl6tyQaWFLW/oH+sWN2HCc9hVHwAFSuQH9WQuQ8SWZV0yNy5NIQnY9WPGDKyOxUrmJIUYAxCKEPcKyqoiGXWkUpcd/ZAUrRPyzDvyGJJtFgKKmXK99bFvONjxBD3GzcAmdHj70+zpC3afgVh4b5UrMAw844YCAXzJsaec1OewfrvLlGxAsE3autuGoMQSgKLiFiaX56L9EJfsM07kpKNDHFWX7RlZwOPPEIdF2AKGw1rL0+kxPpS97LG5p07KHGa/yVaA0sHI7PpoC3uC+ViBbsOX8UTCX7qE1g6GZmrbB2oxup12Rfh695KfQNLByNz5qwVqHJxg4MrF5E7fq7CmASWWAglAUHay/KdAvBVzFgUm2uoe9lfdxRbHl4ovaROPHUKWLyYupctHT4fMTGhuiByyhNYOhmZ/efPpp41xIQqNl3lDSzBT8vKqBZLzcgstRBrHEdSd08cOFmGjkFO6msheaBHPGvIWIa0LlMxupc7dvxUTt3LPtpZjJcfaUC9dbMQLliwAPPmzcNrr72Gzp07/6817/+8hXDaNGrseUn0swgLdqFiBYaZd2xsGp6qEWPPGVOWwbZtGypWIIhcoJedMUWbHB6JiGXWKeBwRD/0v8+7ZZh3ZHYIEbGUePnbw1/TxbyT0NVdfQLryy8BKUyIsWdTaApCIlpTsYJdh6/gUEG5+qeO8pDhxAkqYpm7+K8onzYD312wvWfb1+1MYX/eVoTHBvipRwgl5UhELM37fkC6YzzY5h2ZU2hIA0vwZEEIieMCTJuLERUdjFPmeupe1ti8o+QAqTWwdDAyH0lMtcw8E/tkG18HCoKx9Qcz4jq7qW9g6WhkZmBfsj7LfXZ1tMXx8xXqayE5GIlFTsQ/pL0sc3sBwsO8kGe+Sd3LVmwvMmYGlqSLUlJoe1n+yIn4utzL0tBtjrny198b7G2v9mAtC500sPr1Ay5dou5lS/bXY3JKJyoiN6i7p2UovPIGlk5GZnNFHW191myqUisa0sDavJlqsdSMzPKzaGssYy9r6+eAAA87tZ8zWaPlL9L6rJmv03yG62Ks3pdXht+PCNa3gfUfbSEU/EuwAmLsefPXhfDwc6diBYaZd2bPBsRwRYw9Z2SdRsqAIKp5Z0KCPz7bd0l90fbHPwKTJlERy6xxcy0f2Iv1djSsQBAMw8w7YpUhWiwlXp55zpmOFYh5p7q2Xn0DS9AUMmL5Jnq3HPNO377U9VkQy9w1X+K7U5WY9EAAFZGTeT8SC1c+A0vWaKJZxny5AumJs+hYwbwxbYxBCOVwRMRSpGYwPb0Cffq0oWIFJ4oq0di8o7SBpZORWZIcTETO36MVhkR5qW9g6WRk9owMo+5lttZWcLCzVl8LCf5FNjJnth6IY51j6Yick701fm+EhVAa6cSzRv6Yp7By5FyE+tlTETl5YK68OSNrtCTRZQYqcS9b3HE8yh3dqHvZG5mFuAmov0c6GZn3T5lDPWvILFAxVitvYMkQ99atqRZLzchsY21FN1YL5q18nIKs0VJTE43Mad9ZIcgF8PRyou5lF67W6j/Evba29jfrLGlwWVtbK6nFfv0iTSKEMlBa5mPIAFNSrG7Jy5kY08+PihUYZt7x9gbIseeMgMEIS+hJtRWUXK21MNfK5z5MndrwliMillnLv8CJsPvpiJxh5h15/3ToQDXLSMdfD/NOTEc39Q0sGVQv6RmZY0SypC05YIVKZw8qVmCYeUfj9Unrs9zn3K05OODXDc7ebpC4+7tbzlPuVU5eGUbHGzDEXYYDk7AU2QfND49C+gGAbd6R+5zS10d90SayCLOZOi7AtLcGNt6eiGznRt3LGpt3lBRNWgJLByPzV0fLcfRMBRUrWP2PC3gkxgALoU5G5rYh7lRj9cb9pai/aUAtJCbdBx+kjgvIDB2MDp5W2HyMi8it3FmMOY8qRuQk9SB7GfGskb/4A+xDEEK87eiI3IM9PZUsP/8yA0uEPvPmUfcyk8cgTEzpTEXkYjq6YsX2YvUNLJ2MzJ2SoqmWT0HkPtxRrL6BJTPm5HOmk5GZZfkUFNHZwcaSKlXewBKEmXjWkPEeaQ+8ismJvjheVE3dywRD1R406IYQql3l7u7VmmxgyWaybRs19vzh1rOAkxMVKxDlpiHmHbF/yZNZYuw5I24afHycqViBxFbN5QZYCKVgE2afiFhmPZ6G8wEdUHLDrmWYd8QKQkQspdmT+dBMy0LANu+EBziqb2Dt2QNs2kSNPS+NnYkXJnajYgWGmXe0J/vE2HOulS+uDhuF8lbOuFZZR8O9P9pRbEwDS+YXSQOCtJeZ5y1AespCsM07YqMTpEx50SafLzFcEccFmFwTMXRQGI4W1VD3ssbmnburdu7xq7UGlg5G5m3vf0Ezo2n4xpnSGsgBUrmFUCcjc/KEeMv8TtZelny/F34urlT/MO+dd4Bdu6jjAjK3FcC6WyRG9vGh7mVHCsuNGeLesyf1rJH/0WfYENAPExL9qIhclxAnJPUwoIElyRBJoxP3skX76xHfJ4SKyJ0trbGIEpSn1HQyMq+/HkQ9a3x10IzCi9XqG1iSwHrvParFUjMyx3bmGqvLq+oQ3d5VfS3Uvz/1rCH9gbSjHnCxs8JjiQ2zqFl7maO9NV7+JSn7/zewfl3faQcj+f+JCM+Gx9LQL8qPisgZZt6RBXPOHGrsOWP5HkyZ1o+KFQgiJwWu8gSWDHGX+TNExDJrRz4qHV2oUUwxHBlm3pk/n4pYSrx8/oZiOlYg5p26upvqG1iy/ggCFhdHs6Qt2lMFv9YeVKzAUPMOcX2W+5yb+KhlhkVju5lgyM017ok1xRCE8A9/oJplzBu/RPquq2CbdwSR6xPupr5o++SThnQjcVyAqdN4XHNwsww7ZiJyjc0799iSurtv0xpYZMRSUKm0T05bftcsy6fc59MXqjFpoL/6BpZORuaSCr6xunOwo/paSAcjc+aLH6DK3Qs3HJ2oe9mJc5WYq3pIuTyAIRuZ8wM748uYsSi5Ukvdy17PLFTfnJF0mmBNRMRSMzJ7tvHTBZFT3sDSycgcufZdqrG6c7CT5fyrHCFMSmpIWhP3Ms3IrD10Y+1lK3eVoG8nA2ohmUdMPGtYLIR2CXguyQd/2llKPZeJ1Xv2KJ2HuAsieLvr5s2bsLKywrp165Camnp3RRXpq5tMYI0fT489v96qH2K6eFKxAsPMOzKAOyODGnvOeO7PqHLzpGIFm/5ZCsEslTewJIEl9k2iWSbLOhyHIvojPMyDapEzzLxjZ0dFLAWVWjH9A13MOw9He6lvYG3dCjz5JDX2vNSxH2Ji29Gxgr3HrqkvbMWEevEiNfacu2oLikeOQ0GNIyTuXnixinKvJPI83ogh7jJHjYhYmteuR3rr4RYLIdO8I/dZZs0pT2BdvgysXUsdF2DKrkJUdAgOna+h7mWNzTukMui3/xitgaWDkTl3+jycLeViBWu+vgCRbShPYOlkZB49LoqGMIvlMzzQEXlFBiSwtm8HvvmGOi4gM88andq4oKzOhrI+a6j4f+8uuaVnV/IZkxfREEKikTm/axy+ve6Gh3p6UhE5SVt3beOs7NZYXkgaWHKwlofBxL1s8TYzXprQhYrI9Q53xad7L6mvhXQyMueeKaeeNaRmyP7pmvoGlpzH5Lyqg5H56QcDceR0OQ2Rk+aVYITKa6Fz56hnDVy4YLEQ6mGslpmys/Qe4n67Ve7ixYuQ5tGUKVPw+OOPq10IG71akw0sQQhfeYUae84qsEaNvRMVKzDMvCNzHwSPI5plZIh7cmIomOYdsULsO3FNfQPrqaeA116jIpZZg6eh3sYW1bZ2tCimJE0MM+9Iio+IWEq8/KMib13MO4YMcS8tbRhy/8YbNEvakvZjMXlURypWYJh5R+xoZMQyN/UZnHAIQnSkD8WMppl3BCswJIElDSwiYmlu5YL08LGWApRp3hGEUNICyos2ecBAxFKkZjCNmI+uPULoiFxj846SwqmxhZCIWErN8HrUdDw5iIsVBHjaWZKByhtYOhmZfSLDaAiz4BtVNfXGDHEfOhSQtZo4LiDznAsuduuNMQMCqHtZ9Y16YxpYZCNz/rKVWBPzJAZ2c6cicodOG4BYSgPr+nXAxYW6ly1uNxpVzu5URC4rpxQyYFp5AksnI3PuU7OpZw3NWK08gSVr0JgxVIulZmT2cuEaq+X8a8g8UJlHTDxryFiGtN21iAywhY2DPXUvO1VSpf8Q998qsiSdtWPHDiQmJiqpxX79Ik02sGSuAXEaP1JTkTZrPR0rMMy8Iwej+HgqYpnRZSw8e3WjYgWCyJ0316hvYEnzShI0xNhz1qsr8UPXgdQo5vx1hTDMvCODFYmIpTypS+s+TRfzjhywo9q7qFurBEE9fRr4/ntq7Hnxx8dbjnlHCltJ0BBjz7lFNcg6ZYX4nn5Ui9yOg1fwmBEJLEEIiWYZc1Iy0ndfR4sx74jdStZo4rgA0+qjqHRwQcd27tS9rLF5R8lCpDWwdDAyHywox6b9XKxA9rInEvzUN7B0MjJHtvegG6vlfaM8jb5qFQ2Bt9Tk336LzIkL0NbpBrYcq6EicovWnzEGISQbmWWIe459KK5X1dERufgu7kqWn1svoslayOMCTPVRmDW5GxWRax/oiA+2FqlvYOlkZI7s4GEZqaCtG7LGvpIa0iw0XjBU5Q0sOWu0b0+1WGpGZhkV0NwRE2Jh1u5zhwBH2LeyVv8wTwcjc9rMv+HZwf44WVJN3ctMm84ak8DSFiVpYP2fRghl+C3J/CXT+MVGt+YnK1y+YUvFCgwz74hyk2yWyXCLR9u2XrQo5u+GBlniwYZYCGNjASlKiGaZrJnpuOLmh/zrNhQzmmAFcRHuMMy8Q7ZYSrz8k/sf18W84+vWSn0DSw7WMgCXGHs2DZ+PiakRVKzAMPOOfMYkOk80y+SevIqqxyeioNaRisit3XPBItvoGOSorviXJqjsY0SzjHlZBtKTZkNi80zzTs8wF2MSWLI+ywBl4l5mCk3B0KQOKLxcS93LGpt3lLyJtAaWDkbmdUs/x+DunlRETu5Jrw4GDHHXycg8ZHwcDWEWRE6squfN1eobWLKHHTpEHReQ+Zdv4BR9H2IiPKh7mSRlNTRFyWdMQwjJRub87EP4zCWKbqwO8bHHYCOGuEdEAB98QN3LFv2PLcI6+lEROTlr5BZWqG9g6WRkXu/ck3rWkJrh8vUb6htYksDauJFqsdSMzGxETtag+Ah39Q0sSWARzxpYuBBpB53h52KNYTF+1L3Mwc7qVlJW+RD3w4cPo3v37ti4cSOGy/wAA64mE1gSefbzo8aeV/sn4IHegVREzjDzzogRwBdfUBHLjD1XkJzchWorEEROzBfKnzrK4dHBgYpYZn2eC7O7Px4bGNgyzDvyRI1osRRU6q08d13MO96uBjSwqquBdu2osedFOUB8r9ZUrMAw887zzwMvvkiNPedOmY2/f3cJzw8LpiJypWW1FmOW8gaWYLqvv07by8yTnkH6GT+wzTv+7q2MmYElDSwp/onjAkwuCah0csXkpCDqXtbYvKOkZNIaWDoYmd/feQn+HnZUrEAOjoYMcdfJyGzr2IBdaBiy/PN7X5xHapzvPb2vlm0+B2lAKK+FkpOBBQuo4wIyJy/CZf826BruRd3L9p8oMyaBRTYy5x8swMaEqSirrKMicjLf6aURrZUsP/+SwDp8GNiwgbqXmWJnIKRTkC6InHKEUCcjc6e0Gc1ac263Xq3YVqS+gfXQQ4BQQ8RxAZqROT7CjWqs3pxTakwDS2Zg/fwz1cicFjAKqb3c8c+CKupe9tbnZ/VvYP27Ie7awlRXV6d2IbybGVgzZtBjz2mJc1qOeUdmXwlaIDN6SAhPxtPvocQ9kI7IGWbekZQaMfac5dMHh7r0R2Cga8sw7+TlURFLQaXen7deF/OOIQihNIjlyePy5TRLmqnDWHi2C6BjBV8dvKL+qePYsQ0bLtEskztpFqpfehmbT6LZUflfG+gMGeJOtliaf/wJ6ZVdbj0dZJl35F4ZYiEUhFDWaOK4ANP2yxjyQBg+/f4adS9rbN5RUjhpDSzZx4iIpdQMuXPTYb5eS8UKBMEwJIGlk5E5ZUJfqrF6QKQ7Dpy8rr6BtWMHIIcj4rgA+V1HB1hjd0EtdS9btasEs37Rsyv5jGkJLLKROX/2QuQU36QizDKOQ7loQ+6PPGAYNaqBaCCdNaRmeHN3JWZPjKAictOGBGL5lvPqayG5R8SzhmZk3p93jXrWkF+nPGhQjhDKHibrEBFH1YzMbGN18v1exiCEYiEknjXkdy0jXfQwVov5XPch7qvlyd2vLnt7e9jZ2eGRRx5Rtj/c7oWaTGBJp/YX9I8Vq9u8txit3F2pWIFh5h0Z4r5rF9Usk3EIGD0wmIoVCCInA0yVP3WUxt706QDRLJMVGI8btnbwDXBrOeYdImIpqNTHeba6mHdqam+qRwjPngXefpsae17s9SBeerwBIWRZ5Awz78iTfdlwibHn3GfnIrvWF8lxXEROZv4M7+2tPoElenYiYmnOP4/0Xs9aEEKmeUdw7+PnKtXH5mVGmIgAiOMCTLEzEdIxAEk9vKh7WWPzjpLiSWtg6WBkfstjEFJjfahYgdiGR/bxVj8DSycjc1hka6qx+khhBbxcbdXXQvKgITycamTOdOyBM93jLElZ5l526VrtLT27ks+Y1sAiG5nzZ76KlQOmW9ZTqYFZuHfJlRpMHxKk7NZYXkiaDmfOAIMHU/eyJU79UeniSUXk1u6+YJk7pjyBpZOR2Tz1d9SzhtQMYqxW3sB6+GGgWzeqxVIzMrfxtacaq5dlncOjcb7qa6H+/alnDRnLIAhhWy8bBPs7U/ey7GPXjB3irnYF/N+v1mQDS4p+SWERLWmvv7iu5Zh3ZMi9DMYjmmUyzCHw6XMfFStwd7K1NAwNaWBJA0K62iSEJ2vTYfzctieeSPSnYQUS8TXMvCOzZ4gWS7nP87s+pYt5J7Grh/oGVlERkJNDjT0v3lfXcsw7knwQfIcYe87Nv4bs+kC0DXajWuSOna2wFCXKEcJx46iIpRS06Xur0WLMO2K3OnCAhlhKzWD6HnAJ8IKPlyN1L2ts3lFSPzVGCImIpdQM26+4QxpyVEQu65xlzpxyC6FORmafIE+qsXrf8TJU1NSpr4WkATFzJnVcQOawWQiyq8WuUzeoiNzHu0vwSmobJR+vWy8illiykTn/lTeR4xVheQmpgbuGOlNGl2w/aMaYOF+190fePx4egDRCiZa0pWFj8MKESCoi16m1Iz7aWaK+gaWTkdk/tgf1rCH4syEIoZxVBdPVwcg8ZVAA1Vjd1tceDnY26htYOhiZ08Ysw9MP+GLfyQrqXrbqHyX6J7DUrnJ392pNNrCIWAoGDLCgUht3nMahUisqVmCYeWf0aDpimTFsDlqMeUeYdDJimfXcW7jk2RoFFbYtw7wj6RBy7Dmzw1BdzDtO9jbqG1gygJtosRTE0vR0BmZNvq9lmHfkMxYVRY095xaWWxDCn6sbhq2zEDnBvwxpYMkAd+JeZh7yCNKnvm+x6TLNO3KfBS2QxICyS5CChQsBUZDLHp2aSrlXpupuSB7cARcrblIRucbmHSX3SGtg6WBkzl69k2r5PFFUCRcHG2MQQp2MzFNmJDbL9vVrhPnh+70gA4KVP8wTFF4e4hH3sswFnwIJA2jrs3av9ueVGTPEnWxkzn//Y6zx7k8/a4zo443ubZ2VLD+3XkQaWLLXS61I3MsWfXwCfqE+VERO0Kbzl2vUN7B0MjJnFthTzxpSM8ige0MSWFu26GJkZiNy2T9dw7Be3uprIcEsiYiljGVIW18EK9zE3NGh1L3M2cFa/xlYrVq1QllZGRxkmHWj68yZMwgNDUVOTg6io6PVLoa/vFqTDSwpai9coMaeP0x4DqPiA6hYgfw4hsx9kMiqpEPmzqUhPBmrfsSQkd2pWMGUpABjEEIZ4l5RQUUss45U4rqzB5KifVqGeUcWSyJiKaiUKd9bF/OOjxFD3G/cAGRGj78/zZK2aPsVhIX7UrECw8w7YiAUzFua6dKIIOCouSnPYP13l6hYgeAbtXU3jTTW47UAACAASURBVEEIJYFFRCzNL89FeqEv2OYdSclGhjirL9qyswEZZ0AcF2AKGw1rL0+kxPpS97LG5h0lRZPWwNLByGw6aIv7QrlYwa7DV/FEgp/6BJZORuYqWweqsXpd9kX4urdS38DSwcicOWsFqlzc4ODKReSOn6swJoFFNjLnOwXgq5ixKDbXUPeyv+4otjy8UHpJnXjqFLB4MXUvWzp8PmJiQnVB5JQjhDoZmf3nz6aeNcSEKjZd5Q0swU/LyqgWS83ILLUQaxxHUndPHDhZho5BTuprIXmgRzxryFiGtC5TMbqXO3b8VE7dyz7aWYyXHwmxLEO6WAiLi4vRu3dvFBYW3natkwHv69atQ6o89TTgarKBJZHMadOosecl0c8iLNiFihUYZt6xsWl4qkZELDOmLINt2zZUrEAQuUAvO2OKNjk8EhHLrFPA4Yh+6H+fd8sw78jsECJiKfHyt4e/pot5J6Gru/oE1pdfAlKYEGPPptAUhES0pmIFuw5fwaGCcvVPHeUhw4kTVMQyd/FfUT5tBr67YHvPtq/bmXf+vK0Ijw3wU48QSsqRiFia9/2AdMd4sM07MqfQkAaWiCQEISSOCzBtLkZUdDBOmeupe1lj846SkklrYOlgZD6SmGqZeSb2yTa+DhQEY+sPZsR1dlPfwNLRyPzhV8U0RM7V0RbHz1eor4XkYCQWOeK4gMztBQgP80Ke+SZ1L1uxvciYGVhkI3P+yIn4utzL0tBtjrny198b7G2v9mAtC500sPr1Ay5dou5lS/bXY3JKJyoiN6i7p2UovPIGlk5GZnNFHW191myqUisa0sDavJk2zkXOGpqRWX4WqYFZe1lbPwcEeNip/ZzJGi1/Ec8a8PNDms9wXYzV+/LK8PsRwfo1sA4fPoyUlBSckAPGba7/8w0swb9+Qf9YsbrNXxfCw8+dihUYZt6ZPRsQwxXRLJORdRopA4Ko5p0JCf74bN8l9UXbH/8ITJpEw1LkPmeNm2v5JF2st2sZ5h2xyhAtlhIvzzznTMcKxLxTXVuvvoElaAoZsXwTvVuOeadvXyqWIohl7pov8d2pSkx6IICKyMm8H4mFK5+BJWs00SxjvlyB9MRZdKxg3pg2xiCEcjgiYilSM5ieXoE+fdrQEbnG5h2lDSydjMyS5Pg15tYco5O/RysMifJS38DSycjsGRlG3ctsra3gYGetvhYS/ItsZM5sPRDHOsfSETkne2v83ggLIdnInD/mKawcORehfvZURE4emCtvzsgaLUn06mrqXra443iUO7pR97I3MgtxE1B/j3QyMu+fMod61pBZoGKsVt7AkiHurVtTLZaakdnG2opurBbMW/k4BVmjpaYmGpnTvrNCkAvg6eVE3csuXK3Vd4h7fX29xTZ48eJFeHp6/ku9Jc2t7t27Y+vWrRgs0T4DriYTWMHBNCxFpvELKrXk5UyM6edHxQoMM+94ewPk2HNGwGCEJfSk2gpKrtZamGvlcx+mTm14VxMRy6zlX+BE2P10RM4w8468fzp0oJplpOOvh3knpqOb+gbW0aMNTxxljhHJkrbkgBUqnT2oWIFh5h2N1yfGnnO35uCAXzc4e7tB4u7vbjlPuVc5eWUYHW/AEHcZDkxELM0Pj0L6AYBt3pH7nNLXR33RVlwMmM3UcQGmvTWw8fZEZDs36l7W2LyjpGTSElg6GJm/OlqOo2cqqFjB6n9cwCMxBlgIdTIytw1xpxqrN+4vRf1NA2ohMen+UgOz9rLM0MHo4GmFzce4iNzKncWY86hiRE5SD7KXERB47T7nL/4A+xCEEG87OiL3YM9/Pc/pvhbJvbG1BebNo+5lJo9BmJjSmYrIxXR0xYrtxeobWDoZmTslRVMtn4LIfbijWH0DS2bMyedMJyMzy/IpKKKzg40lVaq8gSVD3IlnDRnLkPbAq5ic6IvjRdXUvUwwVO1Bgy4IoSxqkydPxurVq/GXv/wFISEhsLe3x4ULF/Diiy9amlo//vgjrKysdF//bvcCTTawZDPZto0ae/5w61nAyYmKFYhy0xDzjti/5MlsSgoN4cmImwYfH2daFFMzHJnLDbAQSsEmzD4Rscx6PA3nAzqg5IYdDSsQfMMw845YQYiIpTR7Mh+aafm4s8074QGO6htYe/YAmzZRY89LY2fihYndqFiBYeYd7ck+Mfaca+WLq8NGobyVM65V1tFw7492FBvTwJL5RdKAIO1l5nkLkJ6yEGzzjqzVgpQpL9rk8yWGK+K4AJNrIoYOCsPRohrqXtbYvKOkaNIaWDoYmbe9/wXNjKbhG2dKayAHSOUWQp2MzMkT4i3zO1l7WfL9Xvi5uFL9w7x33gF27aKOC8jcVgDrbpEY2ceHupcdKSw3Zog72cic/9Fn2BDQDxMS/aiIXJcQJyT1MKCBJckQSaMT97JF++sR3yeEisidLa2xiBKUp9R0MjKvvx5EPWt8ddCMwovV6htYksB67z2qxVIzMsd25hqry6vqEN3eVX0t1L8/9awh/YG0ox5wsbPCY4kNs6hZe5mjvTVe/iUpq1sDS4qs8PBwnDx58l/qrb59++JbQc8MvJpsYEmcTi4iwrPhsTT0i/KjInKGmXdkwZwzh4rwZCzfgynT+lGxAkESpMBVnsCSIe4yf4aIWGbtyEelows1itkx0BGGmXfmz6ciloJKzd9QTMcKxLxTV3dTfQNL1h9BwOLiaJa0RXuq4Nfag4oVGGreIa7Pcp9zEx+1zLBoDsp0u+8Va4ohCOEf/kA1y5g3fon0XVfBNu+IRa5PuJv6ou2TTxrSjcRxAaZO43HNwc0y7JiJyDU27ygpnbQGFhmxFBtd2ienLb9rluVT7vPpC9WYNNBffQNLJyNzSQXfWN052FF9LaSDkTnzxQ9Q5e6FG45O1L3sxLlKzFU9pFwewJCNzPmBnfFlzFiUXKml7mWvZxaqb85IAkuwJqLFUjMye7bx0wWRU97A0snIHLn2XaqxunOwk+X8qxwhTEpqSFoT9zLNyKw9dGPtZSt3laBvJwNqIZlHTDxrWCyEdgl4LskHf9pZSj2XidV79igdh7g3LrBOnz5tSVvV1taiW7du6NSpk5L667depMkG1vjx9Njz6636IaaLJxUrMMy8IwO4MzKoseeM5/6MKjdPKlaw6Z+lEMxSeQNLEli9e1MtllnW4TgU0R/hYR5Ui5xh5h07OypiKajUiukf6GLeeTjaS30Da+tW4MknqbHnpY79EBPbjo4V7D12TX1hKybUixepsefcVVtQPHIcCmocIXH3wotVlHslkefxRgxxlzlqRMTSvHY90lsPt1gImeYduc8ya055AuvyZWDtWuq4AFN2FaKiQ3DofA11L2ts3lFSQGkNLB2MzLnT5+FsKRcrWPP1BYhsQ3kCSycj8+hxUTSEWSyf4YGOyCsyIIG1fTvwzTfUcQGZedbo1MYFZXU2lPVZQ8X/e3fJLT27ks+YvIiGEBKNzPld4/DtdTc81NOTishJ2rprG2dlt8byQtLAkoO1PAwm7mWLt5nx0oQuVESud7grPt17SX0tpJOROfdMOfWsITVD9k/X1Dew5Dwm51UdjMxPPxiII6fLaYicNK8EI1ReC507Rz1r4MIFi4VQD2O1zJSdpecQdxUr3IYNGzB//nyL6XDp0qUWZPFOryYbWIIQvvIKNfacVWCNGnsnKlZgmHlH5j4IHkc0y8gQ9+TEUDDNO4LI7TtxTX0D66mngNdeoyKWWYOnod7GFtW2drQopqRFDDPvSIqPiFhKvPyjIm9dzDuGDHEvLW0Ycv/GGzRL2pL2YzF5VEcqVmCYeUfsaGTEMjf1GZxwCEJ0pA/FjKaZdwQrMCSBJQ0sImJpbuWC9PCxlgKUad4RhFDSAsqLNpn7QMRSpGYwjZiPrj1C6IhcY/POndY5zfq6xhZCImIpNcPrUdPx5CAuVhDgaWdJBipvYOlkZPaJDKMhzIJvVNXUGzPEfehQQNZq4riAzHMuuNitN8YMCKDuZdU36o1pYJGNzPnLVmJNzJMY2M2disgdOm0AYikNrOvXARcX6l62uN1oVDm7UxG5rJxSyIBp5QksnYzMuU/Npp41NGO18gSWrEFjxlAtlpqR2cuFa6yW868h80BlHjHxrCFjGdJ21yIywBY2DvbUvexUSZW+Q9y1wqmyshLJycmWBNbNm+Jn+H/XRx99hBGiIL6Ha8yYMZBk1759+2A2m+Hj44OSkhLL3+/karKBJXMNiNP4kZqKtFnr6ViBYeYdORjFx1MRy4wuY+HZqxsVKxBE7ry5Rn0DS5pXkqAhxp6zXl2JH7oOpEYx568rhGHmHRmsSEQs5UldWvdpuph35IAd1d7lTpYWztcIgnr6NPD999TY8+KPj7cc844UtpKgIcaec4tqkHXKCvE9/agWuR0Hr+AxIxJYghASzTLmpGSk776OFmPeEbuVrNHEcQGm1UdR6eCCju3cqXtZY/MOZ5Fp4k/RGlg6GJkPFpRj034uViB72RMJfuobWDoZmSPbe9CN1fIbV55GX7WKhsBbavJvv0XmxAVo63QDW47VUBG5RevPGIMQko3MMsQ9xz4U16vq6IhcfBd3JcvPrRfRZC3kcQGm+ijMmtyNisi1D3TEB1uL1DewdDIyR3bwsIxU0NYNWWNfSQ1pFhovGKryBpacNdq3p1osNSOzjApY+OkZ2rmsQ4Aj7FtZq3+Yp4OROW3m3/DsYH+cLKmm7mWmTWf1T2CNHTsWmZmZaNeuHTp37gxra+t/Wfj+67/+C3Fy+LiHSxpff//73y2mQ7mWL1+Ov/3tb8jOzv63f5r8u0WyCEJmqTtZ/ttuewlPLMNvSeYvmcYvNro1P1nh8g1bKlZgmHlHZoSRzTIZbvFo29aLFsX83dAgSzzYEAthbCwgRQnRLJM1Mx1X3PyQf92GYkYTrCAuwh2GmXfIFkuJl39y/+O6mHd83Vqpb2DJwVoG4BJjz6bh8zExNYKKFRhm3pHPmETniWaZ3JNXUfX4RBTUOlIRubV7LlhkGx2DHO9ht7vHb5EmqOxjRLOMeVkG0pNmQ2LzTPNOzzAXYxJYsj7LAGXiXmYKTcHQpA4ovFxL3csam3fu8R1xd9+mNbB0MDKvW/o5Bnf3pCJy8sP16mDAEHedjMxDxsfREGZB5MSqet5crb6BJXvYoUPUcQGZf/kGTtH3ISbCg7qXSVJWQ1Pu7sPSjK+WhCzZyJyffQifuUTRjdUhPvYYbMQQ94gI4IMPqHvZov+xRVhHPyoiJ2eN3MIK9Q0snYzM6517Us8aUjNcvn5DfQNLElgbN1ItlpqRmY3IyRoUH+GuvoElCSziWQMLFyLtoDP8XKwxLMaPupc52FndSsrqNsTdxsYG33zzDWLloEG+ZJ5WK0lJ/XKtWrXKksb6kzSd7uBqMoElkWc/P2rsebV/Ah7oHUhF5Awz70hy7osvqIhlxp4rSE7uQrUVCCIn5gvlTx3l8OjgQEUssz7PhdndH48NDGwZ5h1pJhMtloJKvZXnrot5x9vVgAZWdTXQrh019rwoB4jv1ZqKFRhm3nn+eeDFF6mx59wps/H37y7h+WHBVESutKzWYsxS3sASTPf112l7mXnSM0g/4we2ecffvZUxM7CkgSXFP3FcgMklAZVOrpicFETdyxqbd+6gxGn+l2gNLB2MzO/vvAR/DzsqViAHR0OGuOtkZLZ1bMAuNAxZ/vm9L84jNc73nt5XyzafgzQglNdCycnAggXUcQGZkxfhsn8bdA33ou5l+0+UGZPAIhuZ8w8WYGPCVJRV1lEROZnv9NKI1s1fW+7mT5D1+fBhYMMG6l5mip2BkE5BuiByyhFCnYzMndJmNGvNud16tWJbkfoG1kMPAUINEccFaEbm+Ag3qrF6c06pMQ0smYH1889UI3NawCik9nLHPwuqqHvZW5+f1b+B5enpacH7VFxDhw7F559/Dltb2zt6uSYbWDNm0GPPaYlzWo55R2ZfCVogM3pICE/G0++hxD2QFsXUrBCGmXckpUaMPWf59MGhLv0RGOjaMsw7eXlUxFJQqffnrdfFvGMIQigNYnnyuHw5zZJm6jAWnu0C6FjBVwevqH/qOHZsw4ZLNMvkTpqF6pdexuaTaHZU/tcGOkOGuJMtluYff0J6ZZdbTwdZ5h25V4ZYCAUhlDWaOC7AtP0yhjwQhk+/v0bdyxqbd+6oyGnuF2kNLB2MzLlz02G+XkvFCgR1MSSBpZOROWVCX6qxekCkOw6cvK6+gbVjByCHI+K4APldRwdYY3dBLXUvW7WrBLN+0bM39+Nzx98vCSyykTl/9kLkFN+kIswyjkO5aENuojSwRo1qIBpIZw2pGd7cXYnZEyOoiNy0IYFYvuW8+lpI7hHxrKEZmffnXaOeNeTXKQ8alCOEsofJOkTEUTUjM9tYnXy/lzEIoRBpxLOG/K5lpIsexmoxn+s+xN3X1xcXxRKl4HJ2dka5FKN3eDXZwJJO7S/oHytWt3lvMVq5u1KxAsPMOzLEfdcuqlkm4xAwemAwFSsQRE4GmCp/6iiNvenTAaJZJiswHjds7eAb4NZyzDtExFJQqY/zbHUx79TU3lSPEJ49C7z9NjX2vNjrQbz0eANCyLLIGWbekSf7suESY8+5z85Fdq0vkuO4iJzM/Bne21t9Akv07ETE0px/Hum9nrUghEzzjuDex89Vqo/Ny4wwEQEQxwWYYmcipGMAknp4UfeyxuadOyxzmvdlWgNLByPzWx6DkBrrQ8UKxDY8so+3+hlYOhmZwyJbU43VRwor4OVqq74WkgcN4eFUI3OmYw+c6R5nScoy97JL12pv6dmb9+G5i++WBhbZyJw/81WsHDDdsp5KDczCvUuu1GD6kKC7+OEIXypNhzNngMGDqXvZEqf+qHTxpCJya3dfsMwdU57A0snIbJ76O+pZQ2oGMVYrb2A9/DDQrRvVYqkZmdv42lON1cuyzuHROF/1tVD//tSzhoxlEISwrZcNgv2dqXtZ9rFr+g9xz8jIwIwZMyyzqtq0afO/ZmCFhobCw8Oj2StcXl4epk6dit27d1uQRTETfvXVV7/55zbZwJKiX1JYREva6y+uaznmHcE3ZTAe0SyTYQ6BT5/7qFiBu5OtpWFoSANLGhDS1SYhPFmbDuPntj3xRKI/DSuQiK9h5h2ZPUO0WMp9nt/1KV3MO4ldPdQ3sIqKgJwcaux58b66lmPekeSD4DvE2HNu/jVk1weibbAb1SJ37GyFpShRjhCOG0dFLKWgTd9bjRZj3hG71YEDNMRSagbT94BLgBd8vBype1lj806zi6Y7+QMaI4RExFJqhu1X3CENOSoil3XOMmdOuYVQJyOzT5An1Vi973gZKmrq1NdC0oCYOZM6LiBz2CwE2dVi16kbVETu490leCW1zZ18OnhfIw0sspE5/5U3keMVYflvlBq4a6gzZXTJ9oNmjInz5f3sd/InyftHzonSCCVa0paGjcELEyKpiFyn1o74aGeJ+gaWTkZm/9ge1LOG4M+GIIRyVhVMVwcj85RBAVRjdVtfezjY2ahvYOlgZE4bswxPP+CLfScrqHvZqn+U6J/AkhlYvzYPNl6vZIh6amrqnSxhv/k1EydOhNgO//GPf+Dq1asWbFESWb91NdnAImIpGDDAgkpt3HEah0qtqFiBYead0aPpiGXGsDloMeYdYdLJiGXWc2/hkmdrFFTYtgzzjqRDyLHnzA5DdTHvONnbqG9gyQBuosVSEEvT0xmYNfm+lmHekc9YVBQ19pxbWG5BCH+ubhi2zkLkBP8ypIElA9yJe5l5yCNIn/q+xabLNO/IfRa0QBIDyi5BChYuBERBLnu01CKEe2Wq7obkwR1wseImFZFrbN5Rco+0BpYORubs1Tupls8TRZVwcbAxBiHUycg8ZUZis2xfv0aYH77fCzIgWPnDPEHh5SEecS/LXPApkDCAtj5r92p/XpkxQ9zJRub89z/GGu/+9LPGiD7e6N72t89W9LVJGliy10utSFifNZR10ccn4BfqQ0XkBG06f7lGfQNLJyNzZoE99awhNYMMujckgbVliy5GZjYil/3TNQzr5a2+FhLMkohYyliGtPVFsMJNzB0dSt3LnB2s9Z+BtUmi+b9x9erVC0FyiG3mNWbMGEvy6p133kFycjIcZHh2E1eTDSwpai9coMaeP0x4DqPiA6hYgfyYhsx9kMiqpEPmzqUhPBmrfsSQkd2pWMGUpABjEEIZ4l5RQUUss45U4rqzB5KifVqGeUcWSyJiKaiUKd9bF/OOjxFD3G/cAASL9venWdIWbb+CsHBfKlZgmHlHDISCeUszXRoRBBw1N+UZrP/uEhUrEHyjtu6mMQihJLCIiKX55blIL/QF27wjKdnIEGf1RZtYix95hDouwBQ2GtZenkiJ9aXuZY3NO03VN5R/rzWwdDAymw7a4r5QLlaw6/BVPJHgpz6BpZORucrWgWqsXpd9Eb7urdQ3sHQwMmfOWoEqFzc4uHIRuePnKoxJYJGNzPlOAfgqZiyKzTXUveyvO4otDy+UXlInnjoFLF5M3cuWDp+PmJhQXRA55QihTkZm//mzqWcNMaGKTVd5A0vw07IyqsVSMzJLLcQax5HU3RMHTpahY5CT+lpIHugRzxoyliGty1SM7uWOHT+VU/eyj3YW4+VHQizLkG4WQlWL3N69e+/adNhkA0simdOmUWPPS6KfRViwCxUrMMy8Y2PT8FSNiFhmTFkG27ZtqFiBIHKBXnbGFG1yeCQillmngMMR/dD/Pu+WYd6R2SFExFLi5W8Pf00X805CV3f1CawvvwSkMCHGnk2hKQiJaE3FCnYdvoJDBeXqnzrKQ4YTJ6iIZe7iv6J82gx8d8H2nm1ftzPv/HlbER4b4KceIZQHRETE0rzvB6Q7xoNt3pE5hYY0sEQkIQghcVyAaXMxoqKDccpcT93LGpt3lNRWWgNLByPzkcRUy8wzsU+28XWgIBhbfzAjrrOb+gaWjkbmD78qpiFyro62OH6+Qn0tJAcjscgRxwVkbi9AeJgX8sw3qXvZiu1FxszAIhuZ80dOxNflXpaGbnPMlb/+3mBve7UHa1nopIHVrx9w6RJ1L1uyvx6TUzpREblB3T0tQ+GVN7B0MjKbK+po67NmU5Va0ZAG1ubNtHEuctbQjMzys0gNzNrL2vo5IMDDTu3nTNZo+Yt41oCfH9J8hutirN6XV4bfjwhW08A6fPgw3n77bQve98orryA6OlpJ/dUshFDwr1/QP1asbvPXhfDwc6diBYaZd2bPBsRwRTTLZGSdRsqAIKp5Z0KCPz7bd0l90fbHPwKTJtGwFLnPWePmWt7SF+vtWoZ5R6wyRIulxMszzznTsQIx71TX1qtvYAmaQkYs30TvlmPe6duXiqUIYpm75kt8d6oSkx4IoCJyMu9HYuHKZ2DJGk00y5gvVyA9cRYdK5g3po0xCKEcjohYitQMpqdXoE+fNnRErrF5R0kBpTWwdDIyS5Lj15hbc4xO/h6tMCTKS30DSycjs2dkGHUvs7W2goOdtfpaSPAvspE5s/VAHOscS0fknOyt8XsjLIRkI3P+mKewcuRchPrZUxE5eWCuvDkja7Qk0aurqXvZ4o7jUe7oRt3L3sgsxE1A/T3Syci8f8oc6llDZoGKsVp5A0uGuLduTbVYakZmG2srurFaMG/l4xRkjZaammhkTvvOCkEugKeXE3Uvu3C1Vv8h7vv27cOwYcNw+fLlf6m3fHx8sGTJEkyQbp9BV5MJrOBgGpYi0/gFlVrycibG9POjYgWGmXe8vQFy7DkjYDDCEnpSbQUlV2stzLXyuQ9Tpza8s4mIZdbyL3Ai7H46ImeYeUfePx06UM0y0vHXw7wT09FNfQPr6NGGJ44yx4hkSVtywAqVzh5UrMAw847G6xNjz7lbc3DArxucvd0gcfd3t5yn3KucvDKMjjdgiLsMByYiluaHRyH9AMA278h9Tunro75oKy4GzGbquADT3hrYeHsisp0bdS9rbN5RUjZpDSwdjMxfHS3H0TMVVKxg9T8u4JEYAyyEOhmZ24a4U43VG/eXov6mAbWQmHR/qYFZe1lm6GB08LTC5mNcRG7lzmLMeVQxIifnINnLCAi8dp/zF3+AfQhCiLcdHZF7sKenkuXn1ovIvbG1BebNo+5lJo9BmJjSmYrIxXR0xYrtxeobWDoZmTslRVMtn4LIfbijWH0DS2bMyedMJyMzy/IpKKKzg40lVaq8gSVD3IlnDRnvkfbAq5ic6IvjRdXUvUwwVO1Bg24Iob+/P+Li4vCnP/0J8s/aJYPbN2zYgNOnTyNYGkUGXE02sGQz2baNGnv+cOtZwMmJihWIctMQ847Yv+TJbEoKDeHJiJsGHx9nWhRTMxyZyw2wEErBJsw+EbHMejwN5wM6oOSGHQ0rEHzDMPOOWEGIiKU0ezIfmmlZTdjmnfAAR/UNrD17AJkjSLJYSux5aexMvDCxGxUrMMy8oz3ZJ8aec618cXXYKJS3csa1yjoa7v3RjmJjGlgyv0gaEKS9zDxvAdJTFoJt3pG1WpAy5UWbfL7EcEUcF2ByTcTQQWE4WlRD3csam3eUlExaA0sHI/O297+gmdE0fONMaQ3kAKncQqiTkTl5QrxlfidrL0u+3ws/F1eqf5j3zjvArl3UcQGZ2wpg3S0SI/v4UPeyI4XlxgxxJxuZ8z/6DBsC+mFCoh8VkesS4oSkHgY0sCQZIml04l62aH894vuEUBG5s6U1FlGC8pSaTkbm9deDqGeNrw6aUXixWn0DSxJY771HtVhqRubYzlxjdXlVHaLbu6qvhfr3p541pD+QdtQDLnZWeCyxYRY1ay9ztLfGy78kZXVpYJWUlKBjx44WbPB2lxgK161bR7EQ3ksx12QDS+J0chERng2PpaFflB8VkTPMvCML5pw5VIQnY/keTJnWj4oVCJIgBa7yBJYMcZf5cpe5IAAAIABJREFUM0TEMmtHPiodXahRzI6BjjDMvDN/PhWxFFRq/oZiOlYg5p26upvqG1iy/ggCFhdHs6Qt2lMFv9YeVKzAUPMOcX2W+5yb+KhlhkVzUKbbfa9YUwxBCP/wB6pZxrzxS6Tvugq2eUcscn3C3dQXbZ980pBuJI4LMHUaj2sObpZhx0xErrF5515qnrv+Hq2BRUYsxUaX9slpy++aZfmU+3z6QjUmDfRX38DSychcUsE3VncOdlRfC+lgZM588QNUuXvhhqMTdS87ca4Sc1UPKZcHMGQjc35gZ3wZMxYlV2qpe9nrmYXqmzOSwBKsiWix1IzMnm38dEHklDewdDIyR659l2qs7hzsZDn/KkcIk5IaktbEvUwzMmsP3Vh72cpdJejbyYBaSOYRE88aFguhXQKeS/LBn3aWUs9lYvWePUrHIe7Hjh3DkCFDkC8HsNtc/+cbWOPH02PPr7fqh5gunlSswDDzjgzgzsigxp4znvszqtw8qVjBpn+WQjBL5Q0sSWD17k21WGZZh+NQRH+Eh3lQLXKGmXfs7KiIpaBSK6Z/oIt55+FoL/UNrK1bgSefpMaelzr2Q0xsOzpWsPfYNfWFrZhQL16kxp5zV21B8chxKKhxhMTdCy9WUe6VRJ7HGzHEXR4gERFL89r1SG893GIhZJp35D7LrDnlCSwZb7B2LXVcgCm7ClHRITh0voa6lzU279x1M+pevkFrYOlgZM6dPg9nS7lYwZqvL0BkG8oTWDoZmUePi6IhzGL5DA90RF6RAQms7duBb76hjgvIzLNGpzYuKKuzoazPGir+37tLbunZ7+Ujc0/foyGERCNzftc4fHvdDQ/19KQicpK27trG+Z5+zHv+JmlgycFaHgYT97LF28x4aUIXKiLXO9wVn+69pL4W0snInHumnHrWkJoh+6dr6htYch6T86oORuanHwzEkdPlNEROmleCESqvhc6do541cOGCxUKoh7FaZsrO0nuIu62tLTIzMzFq1Kh/Wbuys7PRv39/7Nq1CwkJCfe8rjXnG5tMYAlC+Mor1NhzVoE1auydqFiBYeYdmfsgeBzRLCND3JMTQ8E07wgit+/ENfUNrKeeAl57jYpYZg2ehnobW1Tb2tGimJIWMcy8Iyk+ImIp8fKPirx1Me8YMsS9tLRhyP0bb9AsaUvaj8XkUR2pWIFh5h2xo5ERy9zUZ3DCIQjRkT4UM5pm3hGswJAEljSwiIiluZUL0sPHWgpQpnlHEEJJCygv2mTuAxFLkZrBNGI+uvYIoSNyjc07zal97vh7G1sIiYil1AyvR03Hk4O4WEGAp50lGai8gaWTkdknMoyGMAu+UVVTb8wQ96FDAVmrieMCMs+54GK33hgzIIC6l1XfqDemgUU2MucvW4k1MU9iYDd3KiJ36LQBiKU0sK5fB1xcqHvZ4najUeXsTkXksnJKIQOmlSewdDIy5z41m3rW0IzVyhNYsgaNGUO1WGpGZi8XrrFazr+GzAOVecTEs4aMZUjbXYvIAFvYONhT97JTJVX6D3Ffs2YNJk6cCDs7O7zwwgvw9PTEO++8g+LiYnh5eeGiPD036GqygSVzDYjT+JGairRZ6+lYgWHmHTkYxcdTEcuMLmPh2asbFSsQRO68uUZ9A0uaV5KgIcaes15diR+6DqRGMeevK4Rh5h0ZrEhELGUQalr3abqYd+SAHdXeRd1qJQjq6dPA999TY8+LPz7ecsw7UthKgoYYe84tqkHWKSvE9/SjWuR2HLyCx4xIYAlCSDTLmJOSkb77OlqMeUfsVrJGE8cFmFYfRaWDCzq2c6fuZY3NO0oWIq2BpYOR+WBBOTbt52IFspc9keCnvoGlk5E5sr0H3Vgt7xvlafRVq2gIvKUm//ZbZE5cgLZON7DlWA0VkVu0/owxCCHZyCxD3HPsQ3G9qo6OyMV3cVey/Nx6EU3WQh4XYKqPwqzJ3aiIXPtAR3ywtUh9A0snI3NkBw/LSAVt3ZA19pXUkGah8YKhKm9gyVmjfXuqxVIzMsuogIWfnqGdyzoEOMK+lbX6h3k6GJnTZv4Nzw72x8mSaupeZtp0Vv8EVn19PT777DOkp6fju1+KxM6dO2P+/PlIkeHfBl5NNrBk+C3J/CXT+MVGt+YnK1y+YUvFCgwz78iMMLJZJsMtHm3betGimL8bGmSJBxtiIYyNBaQoIZplsmam44qbH/Kv21DMaIIVxEW4wzDzDtliKfHyT+5/XBfzjq9bK/UNLFkzZQAuMfZsGj4fE1MjqFiBYeYd+YxJdJ5olsk9eRVVj09EQa0jFZFbu+eCRbbRMchR3a4nTVDZx4hmGfOyDKQnzYbE5pnmnZ5hLsYksGR9lgHKxL3MFJqCoUkdUHi5lrqXNTbvKHkTaQ0sHYzM65Z+jsHdPamInNyTXh0MGOKuk5F5yPg4GsIsiJxYVc+bq9U3sGQPO3SIOi4g8y/fwCn6PsREeFD3MknKamiKks+YvIgkZMlG5vzsQ/jMJYpurA7xscdgI4a4R0QAH3xA3csW/Y8twjr6URE5OWvkFlaob2DpZGRe79yTetaQmuHy9RvqG1iSwNq4kWqx1IzMbERO1qD4CHf1DSxJYBHPGli4EGkHneHnYo1hMX7UvczBzupWUlaXIe7KFv97fKEmG1gSefbzo8aeV/sn4IHegVREzjDzzogRwBdfUBHLjD1XkJzchWorEEROzBfKnzrK4dHBgYpYZn2eC7O7Px4bGNgyzDvyRI1osZRC8K08d13MO96uBjSwqquBdu2osedFOUB8r9ZUrMAw887zzwMvvkiNPedOmY2/f3cJzw8LpiJypWW1FmOW8gaWYLpEi6V50jNIP+MHtnnH372VMTOwpIElxT9xXIDJJQGVTq6YnBRE3csam3fusey5u2/TGlg6GJnf33kJ/h52VKxADo6GDHHXychs69iAXWgYsvzze1+cR2qc7z29r5ZtPgdpQCivhZKTgQULqOMCMicvwmX/Nuga7kXdy/afKDMmgUU2MucfLMDGhKkoq6yjInIy3+mlEa3vbh1p7lfL+nz4MLBhA3UvM8XOQEinIF0QOeUIoU5G5k5pM5q15txuvVqxrUh9A+uhhwChhojjAjQjc3yEG9VYvTmn1JgGlszA+vlnqpE5LWAUUnu5458FVdS97K3Pz+rTwJLUVU5ODsLCwuDr63vbpWv//v2IiIiAm5tbc5e2e/7+JhtYM2bQY89piXNajnlHZl8JWiAzekgIT8bT76HEPZAWxdSsEIaZdySlRow9Z/n0waEu/REY6NoyzDt5eVTEUlCp9+et18W8YwhCKA1iefK4fDnNkmbqMBae7QLoWMFXB6+of+o4dmzDhks0y+ROmoXql17G5pNodlT+1wY6Q4a4ky2W5h9/Qnpll1tPB1nmHblXhlgIBSGUNZo4LsC0/TKGPBCGT7+/Rt3LGpt37rnwuZtv1BpYOhiZc+emw3y9looVCOpiSAJLJyNzyoS+VGP1gEh3HDh5XX0Da8cOQA5HxHEB8ruODrDG7oJa6l62alcJZv2iZ7+bj0qzvlYSWGQjc/7shcgpvklFmGUch3LRhtxYaWDJHGUhGkhnDakZ3txdidkTI6iI3LQhgVi+5bz6WkjuEfGsoRmZ9+ddo5415NcpDxqUI4Syh8k6RMRRNSMz21idfL+XMQihWAiJZw35XctIFz2M1WI+12WI+6effooxY8ZY5lz9uwbW0qVLMXv2bFRVVaGVzJoy4GqygSWd2l/QP1asbvPeYrRyd6ViBYaZd2SI+65dVLNMxiFg9MBgKlYgiJwMMFX+1FEae9OnA0SzTFZgPG7Y2sE3wK3lmHeIiKWgUh/n2epi3qmpvakeITx7Fnj7bWrsebHXg3jp8QaEkGWRM8y8I0/2ZcMlxp5zn52L7FpfJMdxETmZ+TO8t7f6BJbo2YmIpTn/PNJ7PWtBCJnmHcG9j5+rVB+blxlhIgIgjgswxc5ESMcAJPXwou5ljc07SkomrYGlg5H5LY9BSI31oWIFYhse2cdb/QwsnYzMYZGtqcbqI4UV8HK1VV8LyYOG8HCqkTnTsQfOdI+zJGWZe9mla7W39OxKPmMaQkg2MufPfBUrB0y3rKdSA7Nw75IrNZg+JEjZrbG8kDQdzpwBBg+m7mVLnPqj0sWTisit3X3BMndMeQJLJyOzeervqGcNqRnEWK28gfXww0C3blSLpWZkbuNrTzVWL8s6h0fjfNXXQv37U88aMpZBEMK2XjYI9nem7mXZx67pM8S9V69emDVrFsbKpvVvrtLSUktza9u2bUhKSlK7GP7yak02sKTolxQW0ZL2+ovrWo55RxqPMhiPaJbJMIfAp899VKzA3cnW0jA0pIElDQjpapMQnqxNh/Fz2554ItGfhhVIxNcw847MniFaLOU+z+/6lC7mncSuHuobWEVFQE4ONfa8eF9dyzHvSPJB8B1i7Dk3/xqy6wPRNtiNapE7drbCUpQoRwjHjaMillLQpu+tRosx74jd6sAB6rgA0/eAS4AXfLwcqXtZY/OOkqKpMUJIRCylZth+xR3SkKMiclnnLHPmlFsIdTIy+wR5Uo3V+46XoaKmTn0tJA2ImTOp4wIyh81CkF0tdp26QUXkPt5dgldS2yj5eN16EUlgkY3M+a+8iRyvCMtLSA3cNdSZMrpk+0EzxsTdnqzR7abJ+8fDA5AzJdGStjRsDF6YEElF5Dq1dsRHO0vUN7B0MjL7x/agnjUEfzYEIZSzqmC6OhiZpwwKoBqr2/raw8HORn0DSwcjc9qYZXj6AV/sO1lB3ctW/aNEnwSWjY0N6urqmlzL5OvWrVuH1NTUJr9Wjy9osoFFxFIwYIAFldq44zQOlVpRsQLDzDujR9MRy4xhc9BizDvCpJMRy6zn3sIlz9YoqLBtGeYdSYeQY8+ZHYbqYt5xsrdR38CSAdxEi6UglqanMzBr8n0tw7wjn7GoKGrsObew3IIQ/lzdMGydhcgJ/mVIA0sGuBP3MvOQR5A+9X2LTZdp3pH7LGiBJAaUXYIULFwIiIJc9mipRQj3ylTdDcmDO+BixU0qItfYvKPkHmkNLB2MzNmrd1ItnyeKKuHiYGMMQqiTkXnKjMRm2b5+jTA/fL8XZECw8od5gsLLQzziXpa54FMgYQBtfdbu1f68MmOGuJONzPnvf4w13v3pZ40RfbzRva2zkuXn1otIA0v2eqkVCeuzhrIu+vgE/EJ9qIicoE3nL9eob2DpZGTOLLCnnjWkZpBB94YksLZs0cXIzEbksn+6hmG9vNXXQoJZEhFLGcuQtr4IVriJuaNDqXuZs4O1PjOwWkwDS4raCxeosecPE57DqPgAKlYgi7whcx8ksirpkLlzaQhPxqofMWRkdypWMCUpwBiEUIa4V1RQEcusI5W47uyBpGiflmHekcWSiFgKKmXK99bFvONjxBD3GzcAmdHj70+zpC3afgVh4b5UrMAw844YCAXzlma6NCIIOGpuyjNY/90lKlYg+EZt3U1jEEJJYBERS/PLc5Fe6Au2eUdSspEhzuqLtuxs4JFHqOMCTGGjYe3liZRYX+pe1ti8o+QEqTWwdDAymw7a4r5QLlaw6/BVPJHgpz6BpZORucrWgWqsXpd9Eb7urdQ3sHQwMmfOWoEqFzc4uHIRuePnKoxJYJGNzPlOAfgqZiyKzTXUveyvO4otDy+UXlInnjoFLF5M3cuWDp+PmJhQXRA55QihTkZm//mzqWcNMaGKTVd5A0vw07IyqsVSMzJLLcQax5HU3RMHTpahY5CT+lpIHugRzxoyliGty1SM7vX/sXcf4HZWVd7ANxBKIBASQggd6VWkSJeigKJYQUFFQcECijPq8DEqin0YJIozKuLoiGUs2CcIiICCWBB1BImgKL2EGqSEDt/zO7hw8/Kee2+Sfc7J+96znocHuPfce8+7zt6r/Nd/rTU5nX3ZvUV92RfPmZOOeumaHTNUdAvhRhttlN7//venVwqcu8htt92WVllllTRr1qz0fOstByCjMrBQMg8/vCjt+WPbvDmtu8akom0FA9u8s8QSj1fVCrZYnnzoJ9OEddYq2lagRW7VqUsNJmhzBwq2WM66MqU/bPKstOvTV2rH5h2zQwq2WKKXf+JFH+jJ5p3dN5/cfwbWGWekJDApSHueufZ+ac1NVi/aVnDuH+5Ml1x9b/+rjooMf/5z0RbL2cf/d7r38CPTL2+ZsMDbvuo27/zXj25Kr9ptev9bCLEcC7ZYzv3V/6UTJ+6SSm/eMadwIACWRRJaCAuOC5h52py09TZrpCvnPlrUl+Wbd/oSMgWA1YONzJfusX9n5pntk2utvEyRFowz/29u2nnjFfoPYPVwI/MXfjynWIvc8hMnpD/dOK//sZDEyBa5guMCTj3r6rTBulPTFXMfK+rLPnfWTYOZgVV4I/NVLzk4/fTeqR1Ad2E2V1Z/do2Vlu5vYs3QAbCe9ayUbrutqC/72IWPptftt1HRFrk9t5zSGQrfdwCrRxuZ5857pJh9jm2qYsWBAFinnVZsnItcIzYyexYxcClfts70ZdKMFZfq7z1jo/1TMNdI06enY6e9qCcbq391xd3pX168RnkAayxD3E866aT01re+NT300ENp8cUX70ssVv0jowJY2r/+3vpXilZ32k+vTStOn1y0rWBgm3eOPjolG64KbpY5edY1ab/dViu6eee1u6+Svvur2/oftL3//SkdckixthR6nvXKYzrH+NZHl2rH5h1bZQpusUQvP/WG5Yq3Fdi888BDj/YfwNKaUrjF8t/Tdu3ZvLPjjkXbUrRYzv7KGemXV96XDnnOjKItcub9oIX3fQYWG11ws8zcO+alE/d4Z/G2gvcdsNZgWgglRwXbUsQMM9/4ubT99msVb5HLN+/0JWgKAKtHG5kxOaptbguz0WmVFZdM+2w9tf8AVo82Mk/ZbN2ivmzC4oulZZZavP+xkPavwhuZT1392enyjXcq3iK37NKLp38ZxBbCwhuZrzrgDemUlxyT1p6+dNEWOQXzvoMzbDQm+gMPFPVlx2/46nTvxBWK+rIPn3pteiyl/uuoRxuZLzz0PUVzDbNAbazuO4BliPvqqxfdYhkbmZdYfLHiG6u1efd9nAIbLaYuuJH52F8ullablNKUqcsW9WW3/O2h3gxxv+OOO9Laa6+dpk6dmp773OemN7zhDWmrrbZKBrd/5StfSaeffno677zz0plnnjmwAe6d2SaveEU6FfujTjjcNdYo1pZiGr9WqY8ddWo64FnTi7YVDGzzzkorpVSY9nzyjL3TurtvVXRbwc1/e6jTc933uQ+HHfb4ySrYYjnrU6enP6+7bfEWuYFt3nF+1l+/6GYZiH8vNu/ssOEK/Qew/vjHxyuO5hgV2pL2sd8ulu5bbsWibQUD27wT/foFac+zz7wo/Xb6Fmm5lVZI6O7/+cMbi+jqoivuTq/YZQBD3A0HLthiOfcFL0sn/jal0pt36Hm/Haf1P2ibMyeluXOLjguY+YsH0xIrTUmbPW2For4s37zTVwCrBxuZf/zHe9Mfr5tXtK3gyz+5Jb10hwFsIezRRuZ11pxcdGP19y+8PT362ABiIZt0/x4Dl/Jlp669d1p/ymLptMvLtsidcs6c9J6X97lFDuuBLyvQAh96vur4z6ZfpdXSmistVbxF7rlbTemL+XnSDKwJE1J63/uK+rKZK+6ZDt5v46ItcjtsuHz63Flz+g9g9Wgj80Z7bVN0y6cWuS+cPaf/AJYZc+5ZjzYyl9ryqRVxuWWW6LBK+w5gGeJeMNcw3uPY57w3vW6PldOfbnqgqC/ThhqFhqIthGF0XvOa1yRsrAcffPAJO/TYY4+lrbfeOr3pTW/qAFuDlFEBLM7kRz8qSnv+wpnXp7TsskXbCqzcHMjmHdu/VGb3269YC8/JOx+epk1brhgVMzYczb13AFsIBWx69gu2WM466Nh044z1080PL1WsrUD7xsA279gKUrDFEthz6vPe1jErpTfvbDBjYv8BrPPPT+kHPyhKez5hp7elfz54i6JtBQPbvBOV/YK059mLrZz+9sKXpXuXXC7ddd8jxdq9v3j2nMEAWOYXASAK+bK57/tIOnG/j6bSm3fYai1lfQ/a3C8brgqOC5i5/B7p+Xuum/5404NFfVm+eacvsVMwsHqwkflHnzm92Ga0aN+47vYHkwSy71sIe7SRed/X7tKZ31nKl+277dT0lzn39b+Y9x//kdK55xYdF3Dqj65Oi2+xWXrJ9tOK+rJLr713MEPcC29kvuqL303fm/Gs9No9phdtkdt0zWXTXs8YAICFGYKNXtCXHXfho2mX7dcs2iJ3/e0PdhYl9J2l1qONzN+5Z7WiucaPL56brr31gf4DWBhYn/500S2WsZF5p43Lbqy+9/5H0jbrLd//WGjXXYvmGvCBY/+4Ypq01GLpVXs8Pou6lC+buPTi6ai/M2V7AmDlAdaf/vSntNJKK6Vp06b1Je4ayx8ZFcBCpyMFW3i+96pj07O2nl60RW5gm3cYzPe8p2gLz8mfOj8devizirYVaEkQ4PadgWWIu/kzBVssZ519Vbpv4qSiVMwNV52YBrZ554MfLNpiqVXqg9+bU7ytwOadRx55rP8AFvujBWznnYttSTvu/PvT9NVXLNpWMNDNOwXtMz3P3uPlnRkWC9PKVPeztqYMpIXwXe8qullm7vfPSCee+7dUevOOLXLbb7BC/4O2r3/9cXZjwXEBMzd6dbprmRU6w45Ltsjlm3fGEuMs9GsCwCrcYmkb3bFfv6bzWZfa8knP19zyQDrk2av0H8Dq0Ubmm+eV31i98RoT+x8L9WAj86lv/2y6f/LU9PDEZYv6sj/fcF86pt9DyhVgCm9kvmrVjdMZOxyYbr7zoaK+7EOnXtt/cAY7TVtTwS2WsZF5ylrTe9Ii13cAq0cbmTf72n8W3Vi98RrLdvLfvrcQ7rXX40zrgr4sNjJH0a2ULzvl3JvTjhsNIBbSkVYw1+hsIVxq9/TWvaalk865vWheZqv30S/rwRD3hQ6a+vQLRgWwXv3q4rTnDy35rLTDplOKthUMbPOOAdwnn1yU9nzyW/8r3b/ClKJtBT/49e1Jm2XfASwMrO22K7rFctbiG6RLNtk1bbDuikW3yA1s885SSxVtsdQq9bkjPtuTzTsv2GZq/wGsM89M6fWvL0p7PmHis9IOOz2teFvBLy6/q/+BrU2ot95alPY8+0s/THNe8sp09YMTE7r7tbfeX0RXKM+vHsQQd3PUCrZYzv3ad9KJq7+os4Ww5OYdejZrru8MrDvuSOlrXys6LmDmBfenrbdZM11y44NFfVm+eacvYVIAWD3YyDz7iPel628v21bwlZ/ekizb6DsDq0cbmV/xyq2LtTDb8rnBqhPTFTcNgIF11lkp/exnRccFnHrF4mmjtSalux9Zooh9jlbx/znv5ifWs/fljvkj0UJYcCPzVZvvnH5+zwrpeVtNKdoih229+VrL9U01nT8EwJJYKwYX9GXH/2huesdrNy3aIrfdBsunb//itv7HQj3ayDz7unuL5hpihgsuu6v/AJZ8TL7ag43Mb3zuqunSa+4t1iIHvNJG2PdY6IYbiuYa6ZZbOlsIe7Gx2kzZd/ZiiHt/LduC/7VRASwthO9+d1Ha86yrF08PLr1s0baCgW3eMfdBe1zBzTKGuO+7x9qp5OYdLXK/+vNd/QewtMh+4ANFWyxn7X14enSJCemBCUsVo2Jiiwxs8w4WX8EWS/TyL960Uk827wxkiPvttz8+5P7DHy62Je1j6x2YXveyDYu2FQxs847taIVbLGfv/6b052VWS9tsNq3IZrTYvKOtYCAMLABWwRbLuUtOSiducGAnAC25eUcLIbZA34M2cx8KtqWIGWa++INp82esWbxFLt+8s+CRz3z8ZL6FsGCLpZjhQ1sfkV6/Z9m2ghlTluowA/sOYPVoI/O0zdYt1sKsfeP+Bx8dzBB3m8bZ6oLjAk69YVK6dYvt0gG7zSjqyx54+NHBAFiFNzJf9clT0ld2eH169haTi7bIXXLNAFosAVj33JPSpElFfdnxT3tFun+5yUVb5GZddHsyYLrvDKwebWSe/Yaji+YasbG67wwsNuiAA4pusYyNzFMnld1YLf8dyDxQ84gL5hrGMhx73kNpsxkT0hLLLF3Ul1158/29GeI+H+HRQF86KoBlrkHBafxp//3Tse/8TvG2goFt3pEY7bJL0RbLkzc9ME155hZF2wq0yN0498H+A1jAKwyagrTnWe89Jf3f5s8uSsX84DevTQPbvGOwYsEWS5W6Y7c8vCebdyTYW683qX82SwvqNdek9JvfFKU9H//VP7Vn847AFoOmIO159k0PpllXLpZ22Wp60S1yZ198Z3rVIBhYWggLbpaZu9e+6cTz7kmt2bxjuxUbXXBcwMwv/zHdt8yktOHTJhf1Zfnmnb4YogCwerCR+eKr700/uLBsWwFf9prdp/cfwOrRRubN1lux+MZq56bvbPQvfalYC3wnJv/5z9OpB38krbPsw+mHlz9YtEXuuO9cN5gWwsIbmQ1xv2jptdM99z9SvEVul00n98X8PPFHYllL4XEBMx/dOr3zdVsUbZFbb9WJ6bNn3tR/AKtHG5k3W3/FzkiFsBts7Lv3X3OhWuO1ofYdwJJrrLde0S2WsZHZqICPfvu6YnnZ+jMmpqWXXLz/xbwebGQ+9m3fSG/ee5X015sfKOrLZv7g+iEDa8QthIbfFtr8ZRq/bXRfuWyxdMfDE4q2FQxs844ZYYU3y5y8wi5pnXWmFqNivuX5q3XowQPZQrjTTikJSgpulpn1thPTnStMT1fds0SRzWjaCnbeZHIa2Oadwlss0cu/vu1BPdm8s/IKS/YfwJJYG4BbkPY880UfTAfvv0nRtoKBbd5xx1DnC26Wmf3Xv6X7Dzo4Xf3QxKItcl87/5Y87f2zAAAgAElEQVTOso0NV5vYv+AfCMqPFdwsM/eTJ6cT9zo6oc2X3Lyz1bqTBsPAYp8NUC7oy2auvV96/l7rp2vveKioL8s37/TlEAWA1YONzN884X/T3ltOKdoiRyfPXH8AQ9x7tJF5n1fvXKyFWYucrao3zn2g/wAWH3bJJUXHBZz6+Z+lZbd5etphkxWL+jJM2WhN6csdixbCwhuZr7rgkvTdSVsX31i95rSl096DGOK+ySYpffazRX3Zcb+bkNbdcHrRFjm5xuxr5/UfwOrRRubvLLdV0VxDzHDHPQ/3H8DCwPr+94tusYyNzKVb5NigXTaZ3H8ACwOrYK6RPvrRdOzFy6XpkxZPL9xhelFftsxSiz3BlO35EPe+OYL5+EOjMrBQnqdPL0p7/vIqu6fnbLdq0Ra5gW3eefGLUzr99KItlieff2fad99Ni24r0CJn80Xfq46Sx2WWKdpiOet/Z6e5k1dJr3r2qu3YvKOiVnCLpVapj18xuSebd1ZafgAA1gMPpPS0pxWlPR93UUq7PHP1om0FA9u880//lNLb316U9jz70KPTt355W/qnF65RtEXu9rsf6mzM6juApU33Qx8q5svmHvKmdOJ101PpzTurTF5yMDOwAFiC/4LjAmZO2j3dt+zy6XV7rVbUl+Wbd+Yj1FnwlwaA1YONzJ8557a0yopLFW0rkDgOZIh7jzYyT5j4eNtFtCH770+ffmPaf+eVF+hcffK0GxIAou+x0L77pvSRjxQdF3Dq645Ld6yyVtp8g6lFfdmFf757MAyswhuZr7r46vT93Q9Ld9/3SNEWOfOd3vHi1RfcpizIT7LPf/hDSt/7XlFfNnOnI9OaG63Wkxa5vrcQ9mgj80bHHrlQNqfOXn3uRzf1H8B63vNS0jVUcFxAbGTeZZMVim6sPu2i2wcDYJmB9Ze/FN3IfOyMl6X9nzk5/frq+4v6so//7/VDAGtEBtaRRxanPR+7x3vas3nH7CutBWb0FGrhOfmNn043T161GBUztkIMbPMOllpB2vOsadunSzbdNa266vLt2LxzxRVFWyy1Sn3mfd/pyeadgbQQAohVHj/1qWJb0mauf2Ca8rQZxdsKfnzxnf2vOh544OMOt+BmmdmHvDM98I6j0ml/TQtNla9uoBvIEPfCWyzn/v6ydOJ9mz5RHSy1eYeuBrKFUAshG11wXMDMs+5I+zxn3fTt39xV1Jflm3cWJA+c758JAKsHG5lnH3NimnvPQ0XbCrS6DISB1aONzPu9dseiG6t322xy+u1f7+k/gHX22SlJjgqOC/BZbzNj8XTe1Q8V9WVfOvfm9M6/r2ef7/uyoD9gRmHhjcxXHf3RdNGcx4q2MBvH0fdFGzHE/WUve7yjoVCuIWb49/PuS0cfvEnRFrnD91k1feqHN/Y/FgLyFcw1YiPzhVfcVTTX8HEqNPS9hZAPY4cKtqPGRubSG6v33XbqYFoIbSEsmGv4rI106cXGapvPh0PcfWB1As2G1P699a8Ure60X8xJS05evmhbwcA27xjifu65RTfLnHxJSq949hpF2wq0yBlg2veqI2DviCNSKrhZZtaqu6SHJyyVVp6xQns27xRssdQq9dUrJvRk886DDz3W/xbC669P6ROfKEp7Pn7qc9M7Dnq8hbDUFrmBbd5R2edwC9KeZ7/5mHTBQyunfXcu2yJn5s+Ltlup/wws69kLtljOverGdOIz39xpISy5eUe7959uuK//tHkzwiwCKDguYOZOb0trbjgj7fWMqUV9Wb55Z0Fz5fn6uQCwerCR+eMr7pn232la0bYC24Zfsv1K/Z+B1aONzOtutnrRjdWXXjsvTV1+Qv9jIYWGDTYoupH51InPSNdtuXOHKVvSl91210NPrGefr7uyMC8GYBXeyHzV296bTtntiI49FQOXave++c4H0xH7rLYwTzv/Pwt0uO66lPbeu6gv+9iyu6b7Jk0p2iL3tfNu6cwd6zsDq0cbmece9paiuYaYwcbqvgNYL3hBSltsUXSLZWxkXmvlpYturP7krBvSy3deuf+x0K67Fs01jGXQQrjO1CXSGqssV9SXXXD5XcMh7iMysAT9WFgFt6R96O3fbM/mHUPuDcYruFnm5LlrpmnbP71oW8HkZSd0AMOBAFgACCBpoRaeWT/4Q/rLOlul1+yxSrG2AhTfgW3eMXum4BZLev7g5m/oyeadPTZfsf8A1k03pXTRRUVpz8f/6pH2bN7BfNC+U5D2PPuqu9IFj66a1lljhaJb5C6/fl4nKOl7C+ErX1m0xVJAe+IvHkit2bxju9Vvf1usxVLMMPM3KU2aMTVNmzqxqC/LN+/Mfxa4AD+RtxAWbLEUM5x15+QEkCvaIjfrhs6cub5vIezRRuZpq00purH6V3+6O8178JH+x0IAiLe9rei4gFNf+M602lIPpXOvfLhoi9xXz7s5vXv/tRbgsizEjwCwCm9kvurd/54umrpJ502JgTdfe7kio0vOunhuOmDnlRfiYRfgR52fFVdMCRBacEvaCesekP75tZsVbZHbaPWJ6Yvn3Nx/AKtHG5lX2ekZRXMN7c8DaSGUq2rT7cFG5kP3nFF0Y/U6Ky+dlllqif4DWD3YyHzsAZ9Mb3zOyulXf51X1Jd96Sc3N5+Bddddd6Wtt9463X333ekPf/hDmm5m1Rhl1BlYBdtS0m67dVqlvn/2NemS2xcr2lYwsM07r3hF8RbLk1/4ntSazTtYfIVbLGe99ePptimrp6vnTWjH5h3skMK051PXf35PNu8su/QS/QewDOAuuMVSi+XMN56c3vm6p7dj8447tvXWRWnPs6+9t9NC+JcHHh+2XqpFTvvXQAAsA9wL+rK5+7w0nXjYZzrbdEtu3qFnrQUYA30TLQUf/WhKVpDz0fvvX0RXMx/YIu279/rp1nmPFW2Ryzfv9EVHAWD1YCPzBV8+p+iWzz/fdF+atMwSg2kh7NFG5kOP3GOhtn1VW5hfsO3UZEBw34t5WuEV8Qr6slM/8u2Udt+tmH0OXV14xd2DGeJeeCPzVZ/5avrKSrsWzzVevP1Kact1luuL+XnijwCw+HqxYkFfdtxX/5ymrz2taIuc1qYb73iw/wBWjzYyn3r10kVzDTGDQfcDYWD98Ic92chcukXugsvuSi985kr9j4W0WRZssTSW4djv3JQWS4+lY16xdlFfttwyizd7Btall16aXvWqV6Vjjz02PfbYY+n1r399eu9735uOOuqoMRnXUQEsQe0ttxSlPX9h97eml+0yo2hbgYcdyNwHlFXskGOOKdbCc/KXfp/2ecmWRdsKDt1rxmBaCA1xnzevaIvlrEvvS/cst2Laa5tp7di8w1gWbLHUKjXzqpV6snln2iCGuD/8cEpm9KyySrEtaceddWdad4OVi7YVDGzzjg2E2ryB6YCIAu2os/d7U/rOL28r2lagfeOhRx4bTAshBlbBFsu5Rx2TTrx25VR68w6W7GZrLtf/oO2CC1J66UuLjguYue4r0uJTp6T9dlq5qC/LN++MKchZ2BcFgNWDjcwzL56Qnr522baCc//wt/Sa3af3n4HVo43M909YpujG6m9ecGtaefKS/QewerCR+dR3fi7dP2mFtMzyZVvk/nTDvMEwsApvZL5q2RnpxzscmObMfbCoL/vvs+d0ihd9FXHilVemdPzxRX3ZCS/6YNphh7V70iLX9xbCHm1kXuWDRxfNNWxCtU237wCW9tO77y66xTI2MouFSo3j2GvLKem3f707bbjasv2PhRT0CuYaxjIcu+lh6RXPnJzOvuzeor7si+fMSUe9dM2OGWrkFsIDDzywA1x985vf7DzEBRdckHbbbbd08cUXp80337zWvl555ZXpxz/+ced7n/vc59Ib3/jGejssGVJ11Ddr9eZ22z3+ul//OqWXvOTx7XuCFoMp9WbrHf3Zz1JaffWUrJz2N2p+dtaeb0prrrx0mrLchDT7unmdSsbv/nrP4wHXYildNef+Dsvj4qvuSZuvtVy6/Z6H0533PJw2XH1i4linLr/kU37W29pxo+XTtMlL9c+nSBq1XugpHuF551dX52/3svTI9BkjPu+C6Gr65CXTtusv3z/9+EsnnJDSpEljPhtj0dUlV92drll90865GcvZGKuu7nvw0fSCbVfqr36++MWUbr99ge7RSLqatdX+neeY33s0kq6uv+2Bjs7Xmr5M/3R0xhkpzZ6d0oMPLpTNqerqrMlPTw8stexC2Zw6XT3yaEov3K7PZ+iUU1KSZBeyz3R1428vT3O22TXNuW/xIvY519V2Gy7f2bzWNznzzJRmzOjqj8Zic6q+bN4yy6dzllo/qYDV+aOx2py6n91m/UlptalL90096bLLUrr66pSuvXZU3z0/uvrx7ct1Zl0+lhYv6ssuu35eet7WU/unnzvvTOkzn0lpyy3nK84Zi64unbJBB9wba5wz1nMFFOt7LLTZZin97ndFfdn5d09OU1ddcYFiwm66uu3uh9Kjj6X+x0ISowLxc36ufvPoymnSlEnpilsfLuvLrr4nPX+bPvsxsdD22xfNNW573kvTZcusltaatnSxXCNac7Uj9lW++92UJkxIaa21ivqys5bdOG220cpdc6ux2pzcl228+sQOk7jvsdBnP1s01+D3b3zufunhGasVzTXo6rpbH0jP2XLFpKuhb2KW7B57zHfOPpIvm7fK6umc1XYsmmvI91daYUKatsKS/Y+FbPlcCHyj7mdnbf3ysvb579jI5TfOS3s/4/FY6Pzzz0/bb799eps29RFksccgRouIHHDAAZ13EgCW/z744IPTX/7yl/Rz204aLN/61rfSjjvumNYADg2lVgOLLbZYB8AcSr0GDjvssPTmN785bYt6PZRaDbhnL3/5y4fa6aKBfffdN5122mlD/XTRABbvSSedlFZaqc8JT4M+kRGZzg16jl69VXb687ZrDaWrjR7GQt0Px3333ZeWXXbZYSw0UuKy2GJp3rx5aeLEx9vCh/JUDQxjoZFPxdBOj6yfYSw0sn5uv/32dPjhh6euc7eHRin1+o4tUgDWz372s04L4bXXXpuAGSGrrLJK+ulPf5o2sX6+oTIEsEb/4IYA1ugOdwhgjayjYdA2sn6GANYwaBvdEo+uo2HQ1l1HvQ7aFvbzG/TPD2OhkT+BIYA1+gkVKw4BrGEsNPpJGdrpBdXREMAaAlgLenbi53odCy1SAJaH3mabbdIhhxySjrQt8O/iIi2//PLpC1/4wsLqc2A//8tf/jJtuOGGw8r+CJ/AsLI/8vHUF7zXXnul9dZbb2DneFH/w+6Z6v5Q6jVw3HHHpX+NoY5DJT1FAx//+Mc7beiTtAoPpVYDdPSOd7xjqJ0uGmCnFRqGUq+BYSw08sl48MEH00EHHTSs7I8SK371q19NSy3Vx/bthl3oYSw0ejw9tNPddTSMhUY+P/fcc09nbNEwFuqup17HQoscgHX66aenF77whekXv/hFpweSADYmTJiQvva1rzXMhQzf7lADQw0MNTDUwFADQw0MNTDUwFADQw0MNTDUwFADQw0MNTDUwMJqYJEDsDzQKaeckt7//vd3qpgzZsxI73vf+5L2wrVt9RjKUANDDQw1MNTAUANDDQw1MNTAUANDDQw1MNTAUANDDQw1MNTAuNLAIglg+QRQ884555zOh/He97636xbCcfVpDR92qIGhBoYaGGpgqIGhBoYaGGpgqIGhBoYaGGpgqIGhBoYaGIcaWGQBrHH4WQwfeaiBoQaGGhhqYKiBoQaGGhhqYKiBoQaGGhhqYKiBoQaGGmi8Bj784Q+nY445puhzDAGsouoc/rKhBoYaGGqguwYeeuih9Oc//zltttlmQzUNNTDUwFADA9HAH/7wh7TFFlsM5G8P/+hQA+NBAzfeeGNabbXVxsOjDp+xTxq48sor07rrrtunvzb8M23TwNy5czuPNGXKlL4+2plnnple/OIXpz/96U9pnXXWKfa3hwBWMVU25xfZ3nLyySd35ooN5ckauOmmm9K5556bbrvttrT66qun5z3vecONZKMckhtuuKETqFltPZR6Ddx1113p7W9/e/rSl77UCUBmz56dllxyyaG6/q6Bv/3tb4mTu/766zuzDnfbbbe08sorj1v9nHHGGR2gc+rUqWmTTTZJ22677bjVxVgf/P/+7//SVlttNdaXj7vXPfroo53RDP/0T//U8Wm//vWvhxttU0qCeuMqbJVaYYUVOkuEhra5/npcfPHFacsttxx3d2esD/zYY4+l733ve+nd7353uu6669JPf/rT9MxnPnOsP97619EP33bNNdd0nlWM7b4NY8fuHz2dffnLX05HHHFEWmKJJdKFF17YiQmG8g8NOFPuG7+20UYbpW222WaonkwDl112WXruc5+b7rjjjmTL7cSJE9MFF1zQ0yKWz+QZz3hGWnXVVTvv5AUveEHHz8qtS235HgJY4/CYM4LkO9/5TnrJS14yDjVQ/8jnnXdeevazn52WWWaZznpmoMO0adPSzTffPNRRFw18/vOf7yxb2GGHHToGcShP1cC8efM6iREwAkAa92+oq8c1cNFFF6Udd9yxkzQCQq+++urO1x944IHO9tnxJi972cvSD37wg7TWWmt1gjIBrMRx8803H2+qGNPzPvzwwx2bTU/u2tJLLz2mnxtvLzrwwAPTt771rfTXv/61aBW0yXq8//7703LLLddJoNkfwT3BdBguDXryJ7vnnnsmMRIW8VDqNSCmtjX9U5/6VDr88MOHaqpowEKuj3zkIx3fdsstt6T77rsvHXvssZ1/hlKvgVe96lXpm9/8ZvrFL36Rtt9++6GaKhpAMvjxj3/ciR3nzJmTFGp++9vfdsCToaQUPs4dc//ES8suu2x65JFHOkXS9dZbrydqWn/99TtAorNLfCbbbbdd+sY3vpFe/vKXF/mbQwCriBqb80sE+QK1gw8+uLPt8S9/+Ut62tOe1pwH6OE73XjjjTsX6wMf+EBafPHFO4CM/3cRh2y1pypeRcgZklj/5je/Sb/85S+HDrbmfM6cObPjODDVVlxxxR6e4Gb+avfr0EMPTf/v//2/DrgHMMbAkkxKtsdTdValzH26/PLL0wYbbNAB8VTzTzzxxA4zlF6G8g8NCFhf9KIXJewrASy2w7e//e2hiioa4PeBfJKgYXX6H8rZaaedOsH82Wef3fkiwFiLg6CeT1N4GO9y1VVXdUAZoB57RDcA9aE8VQOYBRK0fffdd6ieigY+85nPdIAqNohvY5N0gxxyyCHpQx/6UMfPDeWpGsCWARxL/ofyZA0ceeSRHcbjz3/+807BAbh+9NFHp09+8pMdm77HHnuMe5XJ9dnuPIcFXq255podokYUjEsr6n/+53/SG9/4xg7jyhkmRx11VPriF7/Y6bQQjyysDAGshdVgA39eUMYgakuRNP7bv/1bA5+i/FvG9oBO5/Lf//3f6Q1veEP6z//8zw6FdyiPa4ABAnx++tOfTvvtt19aZZVVOlRwzmQoT9YACi2gD4UXQ+T000/vvMB5k3wDS8ermBPCkbp3OVClSgv0e/7zn5/+93//d9yAWKqJkmgtpiGAPK1x7pzWiyEI+o/bIun57ne/2wH8nBkJEhBQgjSUf2jgv/7rvxIgnZ7Ir371q845c+cAWuO1iAUwrwLDCleAYoyjH/3oR+P+GH3ta1/rAAzYRQqeL33pS9OsWbM6tnko/9CAhPmVr3xluvXWWztfVHz53e9+17ljWuWwjMezHHDAAR0/7xzlIg8BiLJHM2bMGM8qesqzY8xK+gNkcJ6AEYTeSs4TaqLi2W++7fWvf/0Tb/+KK65IyAgAEmdK58N4FvcuRnTkevB15wsGcNxxx/VERQpEf/zjHztF6WDGAxqf9axndcDrhZUhgLWwGmzgzztAEiHADIDm2muv7TjY8SQQ6GorF0BB4qiHOhebE4B8w7aC7ieEgcKAMGMFm2Yo/9CAc6Uqu//++3eAvttvv71TfQxB8R2vM1fi3GglUA0K8f/RJw/wA/61UQRYALwQd4djdyaqzDP2ChPi61//ehtVUeSZFGfuvffeDj1+KP/QgDbvs846q+PDzMDS4uR8hR0yq0dQOd5E8QDw+a53vetJj85ma0Xxz1CerAG6YZvvvPPOoWoyDYh9/vVf/7UzZwbL4LDDDnvSHTPH6NWvfvW41ZmEWd4BPM/F17Fm2aNqAXncKuvvD+48iR0BWEAGBZuw22wXVs14BkbFRBhG8thcIrfTQUN/40H48rpuBQzHr3zlK0+JiYwUUKwx1kR3yIKCx+6ukRf+RlXMvNp7773Tqaee2iE6EPm0s1zirg8BrJadbIcD4ulwPOc5z+kEq7n4+s4779wZBEgMAwQ8OGgq2eavtFlsXzJMW8CuRSDvk/bfEmoXOhebEzbddNOEAv2mN72pzep5yrNxnCi5EPzJkyenE0444UkJd/4Du+++e6cHPar840lR6LLoy5xFVbQToM1zpnrO9etLAlRsATNmHNQZ/zbpj4MEvPzLv/zLUx4LoI6ZBswJWvEnPvGJ9P3vf79DDVeBbBtLFLX6hz/8YSf4zFvegJvTp0/vDLTfa6+9nhLoY866Y+NNtAT85Cc/6QRhWiy7nQcgzT777NOZuwAwHk+iEKWaWhewY84ozGDIYtAo1KhSG2COSePuYfi1UQT2H/3oR9N73vOepzwe0A7gkDMe+X9niD4F9eKp8SDss4o8Pybe+fd///faxxYTaCPEkB1vs4ucpXe+853p4x//+FN0wy4rBGMVG3TPBmHyAdQBD1j8AAfxd5tFu7vWreqwf/mFGAjYAHQIMT8Vw9hiKQk11sZ4EjmHPK3ObgP8LP0RI/BnMdvJz5hfLK5ip9ouyBZGu1S3erI/ChDy1xivEKz+pz/96R3bHgsD2qwjRd63vvWtnftVtduWkyic053B6kZ2ANOdOTG2u+p8LWjuH2Ahn/mFL3yh87dyAVzJteNzYEPFveziJZdcslDdFUMAqyWn+tJLL+20Amy22WZP9Jej6jpQeVLtchsuCTElH/7wh58IQgwwl1y3UQSlaO+e3SUXrFXRasG9y1YXZGixENi1Nciv+8yBfWbKcJSABZR4c64wRKD3VYkh+ONpgCmmjMorUFQQxlBXJQa7Lr/88p32ptjK4XWczkknndTq4dNaAIF0WuHYH4sRcomWHS2oBx10UAd8F7DQC2BQxTbW/zbdNmlXestb3tIZXvvBD34wvfa1r33KI2l/Y2+AMbm4fxtuuGEHwBovGxojYdTKxRbRm2AVGOPc1FUcvQ6ILrgfLzOMAL0CeIwhdriOTeXe3X333R0WSF6xBtBsscUWndbmtjEd2WMJMqGj6hBkgA19AEUBXOwMtppAX2IIaOb3297mLS4CqEtmgMSeX5FFa1ddZV6rnDgp2lCbbpfH8v4lYJI/d0zSjB1TFfaZTiRobH2ItkKJnTOmHbONovhizIZkWDGTna6Krzs3AGUg6Gc/+9lOIitGwkQeb4UHsc2uu+7auXMKNP47F/6P3eb3EBLkMCFRWK8rdrXlfJm/50yJhboB5u6kOBxwSvx7pZVW6pwxIFbb2djyrX/+53/u5BXAKramuvzIObMFMFiz4iL5rvuYd4gsyLnRogn8EqOJx9zl6uZVPgQA672SyBUBaOL+BZUhgLWgmluEfi6CV5VVAVnIi1/84g7wEFsAfJ1TQedT7XDYHXrsB9LWViZJs60nLhcGTLd5HwJV+pJAVllEAEIVpbYbw/xYo3ZzoM5LiCADGCiZrtvSpEoiMR8vm66AoSqLnpmDrQLG9OZcGWIo8FVxqG6TkxwZQt3G9eTsEbDzve99b6cyBMSqu0MSR04uZmHRh6QaWLPGGmsUoRsP2mRHEqy1BOjZTbDUMNAkBNV5V6pd6NdYaeNBItDhtwRbxIwLzGGAcDdgk57YL/N72i4BQJmnByxmo+sGs0arzi677NIJIHMR0LpvYom2iABd0DxlypSODQEg1M20ijPmud1RwCcWpESczoB+Br23WdwX83XCB8XGKElzFUinh1gGhLVeV7Rpm64ULiPecc+cGeyOqsSZwW7MWX1eB4jwT1sZ6mJsd0fBU2LKNtcVELbeeusnlgAAlLHTiTM4ngCsYOxJ4AFTilJi62pRJrbHmnkVnTNx7tg2em/jUgU2Joq9GKHuHLCzOvzb69xNZ48A4wMocabanLOFHdZ59f73v79zh9y5bnER/TlfuT9bWAAL6Opzcned0d///vcdED8v1JtRphhtCUgIRhgM4q677lpgdzEEsBZYdYvODwILHA4JdC7mpZit43shWjEYQStstdFBqxkH7SoGcqs+tlHe8Y53dIwadForHBGk2ZCQV505U9VrlO+8UqbaL4Eq0bfbFP2qxgrkcwDUe2ekGCIMraqoWqM8v+Y1r+mcJWcSy6Stsx8AdloCDPyN2TJYViqxuaiAeJ1gRXAX0m0GVFPOyGjvU2skhykIw/pkk0477bROi06duF959ciWGbq76KKLRvtTi/z3FQpUBt2JmLnDeaugqtjHLCxBiWoZ0EZgKhkKYc9V9sfLvKJICBUhcmo6dh4mG9ZI3VnCOnbPgIB0jVkMFG2jAJ2wp7CpAeSY2EDOaruuYFHxRuKteq9yHWL+HHCnTVub+C1Jj9Z/wJ4C30gJsruYJ9zAd0yjtvv8SIKqz+lM8VfadbWmVuVjH/tYZ7yA2EjVXXwlFgUWtk2ATlgOdCLGcXcAWYpXuSjQ+J5kuurnJN5sUVvbLiWpnk8BWDwklpZnxCzLXE9ABXFBFHUwQ/hGd25BW5maduboR0zkfvFNtgxiDblTuRjfIUcDeFVjS2dKfhfzhZqmg5Her4KvkS1Yi4bVyyvowb2qE/GVQeHR0ia21tLbdvutoBdLa8RFujrq2Hx1OovijfOHrbYgoojvLiM6IMH4vD9ZwywAACAASURBVBRgdaVYHEN8Bt6jGPf888/vfE0OCX/wfpdbbrkF+dNpCGAtkNoG+0MMmiqqoLyO3u3iC96BBnr1Ufy83mVG31VV04OOBRBov8DVIepmHAb7xPP/11WBJM3R6qYa5oIK7BlDgalnpyv/jiHb/hI2DWDCIE6JJdBLwuhrkO7xIhh8dJMDLp5dEqAlTPJoa1pVfM9rBC6+j+3X9M1pAlOGV6Cl4lW30lhwgV0FLBXcV8XZY9wZbZVuwZ0Kv0Sz27yRJp01TBCBPtCTvamKu6b1SyKtHSMf2l73nAEmN7W1KdqXnJkI4gFynoeu2CaV17BDbIyiAsH4pEMVe20WGEfuEYZfVBqbdDYW9L2yMZJoAVnMuPC7JN1aULRWALeqVWtnTTDr3wB3bQj53JUFfT+D/jn3y9kg3WZ8AT8BCXVMD8Ur58zZYnckQNqhVEyxk9sskmr3y3lho0YSbCSVZW1i48HnKxpIZqrzmYDDBv8DPKui+AdUdvfcRUW/NtwxQAFQbqQ7JjED6uWstVw/km0iDmDDtWRK6oDN7FGTBVDgHvl3tw2mntP9oSfA30gikRUXSb7dzSgwN1lH1feOEatgzm91s9tiZXYbIFGVX//6151cRJ6GfY19rGDBxsdWwibrS04r3sMQYqfr8gXgHib/WMAWXQ8IB5hGbRiL4/x4Djkoll63dkrxEOaTeNG4lzoRE/l99A10RjYQVy6oyKX9vvh7EZuJ8Y0lEu8qvHr/zvhYwbWxvJ8hgDUWLS2Cr3HBMYeq7BhvFdLJqHGUqkHAGQFK0Pcc4LbPdABgSRLzoDwqhgIuDtZsDJUgwB2DpwIbSLAhd6973eue+OS7UekXwaMxX2+JsWHA6laaYk45O8CbqkiCGMCcnut3SbIxI9Ch2zJsOm8xcXYEZvl8i1w3AjYVNEOT61YcS8hVbkPoVwWjyaK6gtmRAwnuU918Is+pQgZcd8eq4gwJ4mwu4RTNoAHgNFEwWgzIrn7GbLHnxNJjo+gpBtxW7w3Az1kiXqeVZUG3xSzKOvQZa62szm7QvsXXKcRUF5KwPUBQgDBgMCRvKaBXQHzThR4UoKIFwDOyQTmoF8+ofcA5Ukiou2NexzYBrQh7Jqhsu/BXgDs6MWuvThQV3FlJkkSzLr5qqp4+//nPd85F3X0AQIkXq8/LFrNBmH3YD/kdw5iReFbX2DdVP943ll7MGXLHsKWqnQ1eJ1EEIjhPUXSoPrfvRVKnxakNQIMuDXY4Np5h/nS7I5jDwJhuM+SwNfw+wCc7zsa1TeRcbC27EoJEUDeoXmEPeCc+1P5cJ9quxNViASBFFDOarDf3SxElzhRGWd2MXd8Pm9OtLZC+tdLJ9dqyKTXal9lu+YMWXM9ZbaWMM+BeyWMtmzj++OOfcjQQEoKxN1I3xFjPlE4lxXmxScQT8mt2QscXibmtgCyxRl2Be6x/L3/dEMBaEK0tAj+DJeTQqIJV5zNAPDE8BLwE5VmypApdtz1lEXic4m8hGFcSmxju548AXvy/ylEuAgzfy4EczAmBLBAwX3Vf/M0O6BdKrKO1D/AkgcwlKqyCunxTmtf4f+1gqkqGlxMDFyHsnJGfCSrvgB5vof+swIt+3CfnQnWaExkNADYXRHArUOkmseFqNBbSQj9Ej3+BAN92JbaFU2R3gOMj6QhgBxTMg7p4m1GhVG0U5DV5I5FnAcSp0gP3MIKIRJJtQZ3OgxDBBsYH2yU4DfHzqt0GY8bv6PHH2tdfb/aSZ8aKAaoIcnI59NBDO20SmGcC2FzMUJEg5EkUcAJL0s9JzJsuWrMwFLSauBfsS6xS7wYSxyxCrbcC3jrRYkHXGNptEYlNzJCreyZ2CvMcmOCMVIU9w7jmv6pbQJuqIwUGIKVWbGAUpnBVtPuLB4Cf1TMFuBIL5PZacY+dd87a0DLongAuFT75fPoazY9JxLBFMIcUWupEu644orqZq2lnyWfvM3d2JKWAc+22I/l5587ZUGj/0pe+9JRHBo4qkrqT/GTbFpMoymAMSeSdEwCxAs1IOgPmYFZhylYHYYcCxY5+T3UjX9POlOcQCzpb2rzFegA8BfNucbGiDbssHsf8qYqiofyO73emmr7ERYupltpTTjmlQzQYq3h2rNm6DYzuJV8gdqrGWmP9/fnrgNTAanGXXAnrCqgFc5ATWizH1yqClM53hgDWgnxiffwZsxsEsJIbgWsukhyJkYBrtIOBbQSkaVNFkS5QvVUAVRUFHzmzDBPmhBNO6FSBgtIdKH/1I5R8+9l8CH4fP+a+/ylBF2o3J4DhIUGWKFdFNYMxivW98X0BnzOlUpQzivr+ID38g1pHOEPPLvAfqziPEoIYPM2JGLbZdGdaff4I4AUNArSxikorQFgbpp9Vxdee2dRzJLnzWbs/BohWmXeAGQxOm09JNxukMiZYYfP33Xffsaqzsa/DeMUmE/y4L/6xHS/fmhsPhxavPbfaDqAFV0LQVrstAGR72CGJ3lhF1RYrUtAbGwcFrbGRb6y/pymvA8YpGGDGABNU4AHEVXH32B5BNdvj7Gj1rWsJb8qzj/Y+JSraTlTFJRUYLxLrXFT0gQ0AYnP3cqAcS+Ztb3tba4chS6DFxlgfxkbMjyh6Yh5E7KQwU8eKnJ/fuSi+Fnjlnni++QG8xVDGIyhMsPUKFQDRbsD7ovjsC/KeME7YX0WH0Voo899PT+IHYECAftoH22ifPBNbbH7e/AgfJiZn851Fdr+NM0HZFTlD3WKo0JfzUkeu0HkkXsLCkhcrMvOL1S2X86P3kV6LrABw1SatyFYVMb+ifmkZAlilNVrw98VwzZjTVB2yHgmP4Wnd+qrj7QhIBMAOWJvEJY2KIsOWb1FS/ZI8amkLKmO3Z+c0BHptA/i6PS89qfKY18TYAUODSZP/jGoIhh+ANLZV+n70M/sdTZ/p0E1Hqlxo3d2oupg0VdZa/C4UWQmjJIpe3b9cf224g+6e6nLdfBTPJ4jz/ToH654BTwHMZokIaCMgaZpuYtC49w0Er246NRfGMHt2fCSJ3zNeNnjShcAnhq8K1gRtde0BmGlAiSpgDsCKGYZNOzdjeb9skEG2fH+dAMfrtsF6bcyhkUDSHxmptXcs72dRfI17Ey0nfFW0MuSFq/x9x7INusBiAKADvtoqwIcAZrCm+e66LVVhf7wWMyYEo40PyzdItUlXzg5GHqCgTsThEsU6xh7fB5ChH4Vm/x+bdNuiI6ATluxI/su2Vy3LdaKdydlRJHbG6hj9bdFVPIeYEbuI368ToCmwuK5LQUyNjRSMbD8vDm8T6AfwBXiMtCHwP/7jPzrAeVXcR37RedK+a1FLt5lQTT5X2MB00G2jYBA0In6qPisGoJzfuTEPTJG1V+IcA8gQI/opQwCrn9pegL9lgK2qhyqqRAjQwihqC3D5AQ+cg3kxdQZO1QS4JaGum3O0AG9pkfoRIJ7nE5SqqDJmHIeLTyIoM9cARbwqHMkb3vCGzjwnFMd89eci9aAL+WYwOwTphonWCSALyGcmT5VthAWgqohuqpWFMI5o8dgibXKsoRvtFKpgdRtMOAIVbIGGCqM2iqoIZjlf5wn9ty3tKPlzclqq9YCsXJwXoJQ7BxRmv6oiuVY1c3bcVcylps7lE0CoLrkPhmKquqp0sdmqsOyzf6sW2txZd1/cp2h9Yo/aKO6NIMeZqdtMBXhwXzCwwn7nejC81ow5gauqNp1hXgGKq+zkNujPuQHI1G3O4/uxq/g37E7tldX5YX5eS4bXquZjSY42vLyJenPvFKliVhFGMR+Wsxjy51LY0q7kHgL23LduIGDT9CHe42sAvZKWqsSWYIP+tafkAqBw71TtAVhiKvPCtPcYFl0307Fp+ql7vxgKCkzV4iV9OFfsuHuIxVYtZokP3D8+gL60LmH3tUk809lnn13bjiSnEP8AALXmem1VFPGiRcwg7l6xQBYVnTsTcZ7qiAXREm+4v7ytarcBNAH60am72ra5l/y8Z6rbDGwEiS4GoHHdkgT6YdtiMzx2MoC16cIvKeLFeQAIi5kUdnMx7gVgDtjyWky2nIFOP8YL0aEYAMGlupyjtK60DZr31+9C0BDAKv1JLsTvE4RyhvlMK0G9YAv4ogorKNMHDHAw30kFkSH0dUkzceC15KAeShT9rAC2G5NkId5yX3/UBTegrtr7DVxhzLRSmg3mcjNwDCFWlhlNHEJslnHB0VZdOKAN/ah25Ovq+/pgffhjgCtgqKF9dZsDo5IIdKlj6XEmgjlVSkkQnTGSTRfPDVQwk4iRj9lDQCeBRrWaynmojEgGVfDRl93bHJRwHv1er3HvmjwLTJuXVkGOibPMAzLPxeYAn0LCXmkHxLwyc0+VLKd4A3jcU22/7l1dZXtRPldYLwKwvG3b+ZFIC9CBxUAWYLDkRwDKDrt/AHf/JgBzYI4EgJ4BWHXr6hdlXczve8NWYEu0XdbN85IE0hn2Xt1qZT5PscHvAI4CkP27yYJejxUjCXamsGSIOwfow/TMF4oYG+BuASqAWMCGKHCFHtwrxQatq+KAmIfZZD3VvXcgA51VCw2xeCOWtcTPAvzESuyRAf+9aGsYpI75JGCc5FCbTR1YDqSy4rzbfDQ2W0KESYolAeCLob+DfLaF/dtAGHYHEIXVGHE2X8WXVQdnOyPOlYIxG8Of5yDXWWed1dkiLG4UL8zPmIGFfZZe/DwwAfirqMtnBWDJxihG8XG5KCLQGSY1H+/sOXMhWEP0pqgsGW9DvJg/P/vsDMhJJk6c+MQIhCg8VJcbyE/cS8m+2Ievq842Ensr1Ng2KI9pck4iz5KHem66ymc4Wczi/vFluShEKZSbmyZOFIMD8UJiqYScTjGsycU++jEzSk7h3/4fy1xuTzy/+Mb5ymdVnXnmmZ2cxTkxL038qAvJrGbi9dr43Dmv6YfAJhT15ej9lCGA1U9td/lbnKqANLa9VSuuMTCbA2b8UN6BVoI3sy44EolRvmVQUCfYb0PLoIsNWNAS4L8F7Ax/CCPJ4AMLYrsQwy8A8/8q+oL93//+908g9WjjqpVArLYNj+x2pAFXDEw3qjz6p2pZHQtrEbgmxd8CJ+lOCfL9w6lytiRYNXVtlTHDKKjMzhqafYi2OFXspjPTVL9Ud+J5PY+AI+5LbISpY6mFLlTGnKfcCRuSKyipAyiKf8gFf6FqM1sSn7v20jywkMwoLsQZ8nqsWXrzNTY7byX1exQVgA3VDXsF3/Yi9atiKGkdqyjeqGRScNvGrVTVD0NiiAEStsK/83YRusDcizNV92FGxTZvDxQQ1zGOF6nDsABvJnx9tJ7EmIW61ki2R8KYz02TICgwtHGmTKgzGCBsSt3SHnEi2wtcyEcuLMDH0YgfieJcLD5wp7S8RTGG3VbYi9bTuofyGnF4XtBy5th7cUSTxV0y/yyG9GNCs0nB6sCy1/ZHP9UieMQGfLz7hmkFHAzx/wpcTY+Fqp+vvEFXS75MI7dBzthom7j5OLY+j5/4A/Mvm64vuanCZGym9jwKdAFiBjiTb36v6lhs7m4poAZrT8EYG7TJwFU8p7xdMQHIRC/VzzziTN1Wig3dZKTRC/2yS72acTXa+x8CWKNpqIffVyXE5hBEAA8EqhBXwIvvBe1P5UPyg00ULCKGQXIdw92BMwxqXbtODx+hp79aoAVo4kDp5elPf3qHNslBqi5jcYRA6g1JRsnFEGJAzXLwWj8niJFEA/za2iZIF5hWWBxAlepgY8AVZJ6x7IbMM5Ycq3PGgELW64bh9vSD7/Evd4Zs6RA4AFK6bXuR6Lib2i66bXxx/971rnd1QOW6tqgeP0rPfr2qtJW96MeqsXXsTcwQVbAA1uveTAx6x3gUFDdRtNFgcwKrLDUQaAg+VPLzbWZaJ1XBMGhiYDu7I5GUeEuaBWDd2k6bqJu698xuACkld+j9+UpsyRJ77L64V3Vto8F+BDwo2LBpCjzVVtWm60tSDGjSrqy4UMfUjJXXdVti4/lj2OtIr2m6rvh6RQIxgSQvHwnANrtz+bZhz8uG0S8dtm0pAkYDVp5kDrNBwSQXNhu7U7xTJwEEBuCAjeZ+GfLeJgHgsbdsOH9eV6yMhTSWSHSbNResGvEknbVFxHmKLOIhcV639kfFPf4P27zbwigxuCLySAWtNugtchKbcRUJ6pjEWDJsjjb3bnNSgTeKgNri62Y9NVVXRrkgGWAAiZPq2rPFAUB0uszJCNVnFptbwNW22cQRE4oTR2LZyS3kGOx1tzZAM4i32WabDpNrvMkQwBrQJy6J5kwdPjM8QgT/vo6uLLAN0W4CXHDZg2Xke1hJZj6hFGrPUOGOjXsDerRif9ZzYDlIArVWhkDlBWY564XeVJHoSHCbC4ozMEeyBOCr25JQ7E0P+BdhiKC8A6EEuYItgUUkRxFkAPrq1l9rNwFKqFBqGWRcAzQd8KMV+/OSYpWv0Z4rgvxulWwMPi06Al+DktsiaMkCL21aI1UCtSqb7SS4BY5Wz5PWAWAqYAfI1cQZVxIfd0pwn89lMpsAq7O6QEPCBBzWjgGoCdFqIUgFekmsJYxtFYUCBRcsRnaIvaW7aM8VvPq+4LVu6KdKtuqt4F7RRiECENF0pkP+eUv0zEtzbwSf3YRf05rk7mBE5uMF/Iw75vdgaGmtbJt4fgANW73PPvt0kmNBP9YZ+yN5BFA4X+5kFCPow39LIp0xvnC0Tc1N0l1sK3Mu+HZnSBtptLFpwRU/YSp0W2AD0AEkA9axRbU/z8/GtEVdX84AnxQbuEZ6v4AIibdYvK6gZVaac1e3ln5R18NI70+8jIk32vDlYM5KqMUHVVHoA4Lx822Or+VkijPdzkmuF/5O/CROrNpt906rmBwmz/+afJa8dwU9ILjzNBpLSn6hgKxAVd1ize6LmcReCmFtWhQl/uGLum3v5uPksFiP9Kmw4PzQU26bzOCVm7D/44FJW3c3hgDWAC2GgEzPORAqF0EXNkcOYPk+yrOqWvX1vgfNRyVskzCAABUJTV6dBkgx+hLjXOL1ddtSsNgMtG06NXcsn695J4ISrAUzigSycWawHmK9b928HQkRBhs9CVpUctsmzpLgtm4dNOexwQYbdFiQKo4xWJseMAFDVM3oTxUcE6lNwmFuueWWSYWxTlSp6UjAGjRnrTqqsyHum/NnVgEgsKki0ASkCLBUVUOwXszPAYzn82HYKsEGkFSAUhXgTtNnEY7ls4zlGQA+AT/AWIItICXAKyBetM1Xf6fv0211s+xY/nYTXuOMAJ5ibmX1PWtDBkpojQfUYBmxyew4+038t7vKZrUNoAl9YFoDp6rtpO6QOTJRmZfgAPjEBopdEiiAA58PnMB8tNmrTRLMoXwDnK1TABsCfOefAJt1c+LES+6kczXStt2m6kw8jLXQbXENvSiO0lGwGOkC89O9I+IhIBg71TaWNR/Nt3XbBOf7uhViMLMZj8adVGOeYDqyWW0CQOvOPdvCt2OU14n7RGdyO/mJOInkLH7gMqa2WEDeVgW3mnrfvG82V8GhGwvP+cEWVcAhClnIHHKNYMmKKenPPQwWdpN14r0DwKN90j3x/3U6Ej+ut956nVg6H2APD3AP5WZwACQFPrHbzOKm62us738IYI1VUz14HWReYJEfQhUeveSYVoYB5xIsrLbMthpNpS4zB+Cix7aOqEhLnuuCf1WPaE+pbvcY7e817ftmFkhiqtRSwyNVNy699NLO4E1tT5LvoL+jmvq+Pv58FoiWFu0W7373uzvgjMGUTRdAJ0aMZ8ZQNOxQ0lcXtKkuAqPMCctnXwFyUKIFtwabat/leFWtm75RJ1pRAAbR4ge4w8CqbhQCJgOvtCs7N1E59G+JI9sFtMK8cQdV/iVJTb+HMQMkH5QtgADGsMnVtouY3UBfAdg0/R51e//ukc9f0JVvSorkiH8D5LE/7hB7DnSQFALasdRyJqRkUxIEYJYkRCLZdP1htSqsBNgNRMeiqbYme37b9ASvdBNbmlTqDZV2r+hNQi2AdR/bdsYAlxYdAKn4JEleFYTgn9xHCRFx3gxUNtAWg51/Ez9hZUmGMK+NWGiqGI4tea6y6/l+Ntx5AWRJHg1CZnvFQkAHdyifAwb40nKJvYahLSFvgwA73a/Y2sXveD53LxfsfbYoxm2ICbBGnCXnzUByiaKfZ4ewarEhmj56gp12PsSFPnudHAoMdUUErHIAKJDFKAF3iBjUjKmHQcJ2sWEYV+xQ21q8Pa9cSzzDlxN2W9tuAFNxrpwZugGKigfEBYTdxprRguruymmwsBVAgc1NZKXnd0nbthwkWm+1wmNMVc8UAE8xWCzl7LHXMVMVE43NZ7cBqkgdihMAnzZ0E0UxzwB6+QPbw1ZXASx2Smwk7ma/3Tmz+Ygzw5dF0Y9+5DO93i64qPuFIYA14E/IoRWIOZyMoFkPAg/UQQGvg54DWdBrRiMuw4Dffs//vOTHReZAOA+XW081pwLA+dCHPtQBAGMgNOMZrT1t2JxTp2AJn6QFqBdDNAVhuVPlNLH1VBAxRYA4gBj/rd1NBUAAQl8hDC3wtOnbdHKdxXlg+Bl9IItkWxUMCBUCkABy2c4EPNay5LXRFidRlyBxJNhYEoM2SGzxygN9AQa7FJX8eE5sKu3KghTAhGTB/IwQwRoqs7PntW2SoLAL6s0tlFC7J1q3JYyC+pwGL7AQoKB5t1EEqJgxQN9gvOazvzwzm8SesN3OiSCW3ZI4Hn300R37w3a7o7bGhghc2ac2CfDJ8wZjiC/TikN/IYJ6LT1au1Sj6VOCmfsxjBH6o9e2tuoonPBV4h7zY5wP8VAuEms+n760YdYxq6OFWVyFUdu0bbDOAxvrrsSwaACE4kKwOCM58m8gi5hAoojR4M7xVWx2PgdMMq0lWqGrTcJmYDdEYgiAAkjlTGLnBtAuptR66h5JoP1cCCCLPjEdFUrbwtpXEGBTor1d+5EicHXTMhsNmBInKkxh54mFogWXDgER7D52Y9s6P/I7wS+J9cJuO1Puo5mYIQBksQCf7765d7pn3DsiRgdoiR+BW+KnpgNX8ezmXCFisK+EDdL+Vl2qAUSnR8Pb+S22WDwQNhnozNex6e5s0xb8jGRHxYr8OSDYZx/EleqyLOcIGKhwBRNQ/G0LA61XfmYIYPVKs2P8vapBUFlGDtrMEHCYnAP6O2qzyx/b0tAtGQcVovEigjXPTAAI8ewcLLaQGTyC1RDVI0FeG8VZiASQM4ieczqIarTnhtwDbKqO1M9rpxCMSEKBgKoebZVYXZxvPeM0JQIjDY909zibtg2PrPuc6cMsLwEWwVTw/BxuN3G2BGXVNt62niNsRSAEO01XgHV2WvAvgBfUA9PZI193L90remybOCcSF0Gmz18rrqqiRLFaWBHEY4/kAAQbjqkXwT177mttFkG5ADXakPl8SWK39h26kAjRKbvOvo8XAQhjc2C4YsOqzCvaVAE7TFH6A85oYwoRO/F79EfPdSMXFnVdxqZprCt3g40GZmFRVzd4KurxZc5JzArFtgnGmaRbtR5Lq82CxYFJDHABgmqDxzYa6Y5hwgAksD6clTaLuBHbLgfFnSvttlWWWq4Hr9EGrngz3sR5wnSNWEjxE5g30qB6umJ/uo2paJMOFe4whkMfY5kR5p7yh9XxC23SS/4szgswPOaliiEViYF9I+UX4k2+bLzOtxrLeRgCWGPR0kK8xgpZgZRZHt1EJQzokm/Widdiguh5BeKo5lepqwvx1haJH0W51ZKETttNgFMSHklSFZhSfcUuEuBKDto4syn0om1LMlidaSGZllBKJg0/DsEI8Xr91NFnzyDSE51xsHrRgRFtlZjRpA1AxZFg6Kl+5DObqs+vUkmfI62vbYvOMDxUibAaiYBEYOLsSALqRNCLPQMEbUOFWhIYbQLdPle23NDRaguBANedMtMI+2y05QBNPjcxPBqbCDCQz/MCNMSsmHhGCSRAgu5yRp/fo/qP+SDgZ9fbNAuk+hmrVPPfAD4CmAKiKzSw3XUSGwjbXIXFYMSCyYU9ArpEcB9zCHO/hz3jHmKuA5QxZkLYegykaCNsWgszlh3AyXM5HznzBWgsscEqCwG+YIAAYtjtkGA1YBWb/9XkWYRjsZlY1gBz9wxjll0G6FVtT/V3SSadsZxVM5a/17TXBBicA6CY0orD7HQ3sTyDjvIZoE179gV9v3wTAAGzkZjx5GtV0Dz//fI44xjatnikTof0AtQLFh+bjGWGPVvdgh4/714qyGBws9FtEfcKMFeV6HIQO4oRiVwWoKUwWtetgCVLr2LxkcDltuhuQZ9jCGAtqObG+HOCMdVn1a880VNVy3vqBSwq2XXJj5k7XtuGRLGqNgYPZVK7W2ypitdgnwWVNPqDtX5VZzMxEKpLbZmX0u1oAWOwOgAwOXIfA0gBfXml3utjBkYd0i9wUcVuunACevA5h7p5HtomJdGYZ8S/nRVBrtk8uc5Ua2P7CUCjziE1TV8SGUABAFTVp5rQYVJxolGpdm7oS1BbBUU9O1BPmwHdcLBtEOwOTKrq4HWM12A1SLYBetq4P/axjz3lsQF+I22Ua4OePINig3bbKpDnzPBRMbcpnldi7fzVzQ6RrLehZZlfktxo+zKHqSrAO61KwSTG2DPIl80GzFSDWGdJ+46vt5UFikEMiDImIUAresN6wECKuVcSHl9jqwExzow2MOCVs6YdbCSWTRPvHXCTXtjgPC7ir80uspkzlxjIXn291yhUAZfbIHwyIAVAWRXFTIViYGaM3eCn6NHrY45T/Jy42uvatMVLLOResbfmelWF79e5wIcRdpw918qsNT6PBzFGgRBYxT/5yU9aVzz3/GIjILGCilmxVaEf7bZht6NdkL133vi8XOQxMeak26D3Jt1DsaD7xM6aTVnX+eP+5FsZDfnH1su7P+KZsSPNCqMb1JaLJwAAIABJREFUQHPT58rFc0U3ENssNqzqyb3CEo4zIWeNMS/sWRSxAFf8vVxGwR1DdCjdNTAEsPpwOoAOAhKzqwjWi0suEYyEB10eU8vXzHUYTxLBRqyWZyxdbgYQ+yyEoZRkSirHqzCQArKYOxN0VE7T7Jhqy5IkSBAyEuW5DboEQkl0PGt1+YHgXsCf6yCozuZgCV5UuTkPyQLKr7krZtG0RQSnZu44J4KyKhjubkkMJdUkFkY4X6r92lH8jGAO+wpjZrQ1yU3SnRZt805UTbWOEkk1dmiwZnwNGCOoyLfBNek5S7xXiR9GrPlEzhIRsDoPEp3qtjdDuIGAzp4qZFslWrnMu6gm2Fq1BetVoAXrLBgQgDz3jV61hI3W5twGPcaCDM/KRrMxEhwzQKoMWeCM+0fPYeMNcxdXddtm2WQdAekA6woqhG0y3J7/ryusmA0qdozXN/nZu713vsdgbVLdnBiFvGqLZcQGBiPzX8TMR7+nbfGkGEghXHxYx9zEpNKeCyAPAa5LljH7FILZIDZeLESnxppgg7RVAAtALHa7yjIDpNNnPieMfmyFEy/m2wXNL1a8ALZ32+DcRB3Kt8TJMbS/+gzOFLYo+xSiyC6Gdt/cO4IBqEPEPzog2iax7AfpQiErn3PGbosxY6OnZw975b9jxmH822ihtoB7vfychwBWL7X7998NWMAQgdIycoKt448/vtO6lVc8tC0BcSTU4+nwSpw5VeCdao+LLiFiFPPKoaQZ5dT328626nYsGT3JI2YVcEpFUhuPYeOABqwiLRSxnYLjdZY4IEOV2yqYDIIH96zaSiER4jQlirlTcde8Np/PoxIpsG3LkPb4vAW0qj8AUBTv6jwUrEZsCJucQoA0WCMCk1gWwBGbw1KtZi/K50owAdgdicHq+QSygAZtKMA+1VVzrQT2ubBVihKxxWpRfvZevTdgA6BF243qqzMSg0pV+TFmP/GJTzzx57VcKEaM1Jbaq/faz98bA1uxHfmwvOUfSFz1XUAZAT59xh0DnLNlTd6aFzpXjMI2G2ngvPkyCnq2K3p9DP8fregSrTptA9NDd1psMGUw9MSNAAnJsX8DhVXtAX3BUlcYdSfZuzYNQa7eX2dEnKPYwsbkLbjuGFawgk0Imw7U4sv4QX5Ax4MYPIoV/bQRvf5bwCe2GGNYS6lxESEG3YsPc8DXPWOfgQ3YevQDlMDkMtokWlh7/b4H+fsDfGCnFA+ikOc9OVPsugJXCKYVlhvWLbtNxAtyvHyZyyCfqeTfjs2lGGtY6nlMFEsigqXm7wJq3E3FCOJMyXUVGxA18tEDJd/noH+XDirsKc8vJor2eOdFcaGOKexssedsE73IbcfTzMuF+cyGANYCaA/gYm5VBOg2cmlL6rblBlVSVZqhMzcmmFjVP81IMIp5ULIAb2/gP8I5qrSjnBJggOCqm2GHNquqCu4F75xCHYDAKOgdFpy0cWXvWD841X0VaMZR0CFoJbbAmeVgyLKvY4pIJlU+MCDa2IJa1ZkAAhDDwapUq2JHEAK0qZvpxHFwLG1opxztDKnOYy0A7TjVuEfOkv9296rCbrnTgtqmiSogYArTdSTAyTMGyCKRFmQBr+pE9d6dcs7GszgvwAYBLJ2oVBPgHz8GuGCLdt11187XtaMaZtp24ccBvfyVtrcAb9hgLYH55tdcF+5Y25JFyTNwjo8fKWnB8jBbho3GepQM0l9VH2w1MMLdxI7wM4CItorzgg0rqZFkx5w44BY7LtGhj2ALi6HamEDXfb58uXNjgzC2rPgminXAmzqRZIuJxkMsFLPjFIUBoc5KLLVha+ryFffLP02bG1fi/svTzNB1RoA0MbdYER2gpT2zTtghTL62nyljbxSmADNsulyMKNQAbZypuu2KWIFi67aCVtUzEcUF5wVGIOcXX9KBmWGx2bzEmR3vv2MIYC3ACRBEqLBivASyilLKkFXFGlbgluRPQG8gYFvXX8ezq1TE8HDPjXrKcVYp314vWJVccgAMnQQ61s8uwEfT+B/RVw/sNFB7pGRG8EG3MXg7f3CJteqZYE7iMN5EEG/wKIfhTtKTO8uRYEOOd3FmzAUTcAk+DJiWANCX1so2iVYbTDtBOeBXZboqggsAHlo7O+QfrQHjWQyhxfTMB69X9WEIKRYon1ZdUhJtg86YtsIqi63tunWm+DXxAR/nfAFFjQpo27ym0T5LrZFGAnh2gnUGmAEY50tX6IxdAlzF7JVqO7ifd5Yw1OrmHY72Xhal7wMVJDOGrHeT0doGAX3AmvHYcuKMSJwVRwHmGFb+jVU93u5Yt/NjfhEfqJAXLbliR3HmeJjXuCD3PbZXuleYerG8ZXimHtem8+Rc0ZOCQ5wxMZPiX9tFh1RsUR7pWTGu+H/6UkyXz2Gs54zItuuq1883BLDmU8N6wbXgSIYCcde2pIc8p7xrq5AYQvMlhQJ8QRtmEQp4WyU2wZgjFEgzCrygU1Ujrw76GpTaHBXDNvWhm4VhQGKbN1KN9NlrhTMAUCCWB7bOlrMUA+zpV1VIsIbxUBVgoGSgbWIIued1B0cSA6PdP2dJm6W2Ane3bQBNVQdmLwAW6obcVl9LlxIk4JXgTADSrcrY1HMkeABiAjUFXPnsD8+krVJVUVFBu8XGG2/cGX4LhG/zvKbRPk/2R/VQYpxXlm0yC0aV3xEz9tijuuA1H4I/2t9syvfZEiBL3SD//BkUrBQTtOxokcOiAWJVW5mb8tx17xMwXFd1z1+rKKUtWwU/Np5q0zEnpW4oMGYRHWFat7mVIuZ/VQeva3kLvdCvcQCYju6iQmkuvn/bbbfV6rHJ5wqrDHtztM2w4iKsYq2VbDbf58y4e21mVHtu4G6eh3T7vPk+LH2AH5YRQJnPG81+Nfn81L13Pk17bV28nL+ebcdaw3IEkLLb8pI22e1un63REPKwbt1E8XMY1wrC8lpMP3Z9PGxddIcQA8Q9+YiEbvoMG0+vv/nNbzpjcdo0H23QNmIIYM3nJ4Bay7iZSRAiGHOYoa25cBA52irYMDsF60GLQRsFlR1glfdDq/ZIECHX2FghAC1BR54gmW2wzjrrPGktdhv1NNIzYSzQixlEdKENxewi7TfaU0IYUa8V2I4XyrekRhUD0JcPrLdKPJ9bQEeCPIApBiRWjYp9GzbDjHR2sEI5yeoyCOCUOWBVwUgz90oSGsMn23TfAFg+e1VULBDFBnM9cnGH8pl67JK5KpLGuk1ObdLPSM9iO6wAFZAHoPr85z/fadcyByOABUGZFnqzLuq2OLVRV4oDGA0Sw5xNzSbx8dWNb4pbWCKG/mqzYKua3koJmPRcWFQAl5HaQwBXbLPnZ5uAEsM2isf9k3NgNpz4kR4xy8ST2Op5XGSGJRvVbTV92+4ZEAHLQaJsNmyIuyeOxIzJRUsTG6RYgWFcN8C8bTqSQ8g5jAPI4z/MoZi9E88M5NRKD8Di5yXUbd1u2u1zdqbkX1q4c8aw82K2bNVuA2jcRTZbPpMvuWnbWfI8wBnxju6FT33qU096xLpNporEihD0BxisLk9oo448U7Bi8+UGYgGjfzCtqmIulvtGT7qL2l5E7+fnPgSw5lPbAjGzPFxYDBdzh1T2gxkDrMnXHld/PVaIQK6tiXT02BsWCWggqokSZN8D6qF6dxPgl95qQf54Fgm0KiLGA8eikl9dz86pShycSc51PEi0JsWKXrrhcAUl9FE3hwB4geVHp6pLbRfJtY1UglUCoIpFElXwxvcFaM6RJEkS1SYBYEkSPb+KNWasIbejCX0AbmLOw2ivb9r30f7zDa91799dsWhEsB9nSSJUZcVIjAziBuC0mTGT60hSbQ6awJUI3vl2bXIKC1XRniqp5AfFDE0HRrWNBhPPOeqWDPPjGB+ee6Q23qbdn1Lvl/8CPrDR4iVxpNiyWpDCAJEcjac2JmAdZhWfBHiQALIvbFIdkBexpxgAK6utReI4ezHMPjYvO0taSm3NBYDWSeQvbJXZYeNNxAPAd+w+YhEEJrqZxliyVWGrFXKcKcUa+m2zWIihMCFHJWY2WUSCeKCIVSdmO4rLxwuARQfaAW1dNnM3Yh4LxmLjYp2enDFMyLbPSuvn/RgCWDXa5hhUkwUU1WHhAgisDgE9KqELHgNsJTxacLSpCNrqRNWt6WwZgTtQgMGv2+ICbJEwYnyovkKdJTkqZ+imEsnxUkmMM2C7ncqzJI8AErBB6kQggtXAYWqnYBi79VxD9wV3I4Gm/TQoC/O36Aa4UK0eVn+noEMAhgZvRo8ARLtldQ5P/nPYbPlGsIV5n4P6WYCmdhMB1Ujz0bxOwOHOmVGAMYP1CejrJjHgfjTq+KCeve7vstFaRoC3gijM2Co4zvZowbFQIuYVGvwMoMLIEoTUiQCuiUPrx/L5ADgBCmaijBRMSQKBE16j6phvYar+HcErXY/WTjaW9zfo16ikah0ZSfg1IDEmNtBKAK9VUNLc7dywbTkDedDPuTB/33lgX8yUw3AFbOZnSYxgjpqCFD9Hn8Bgd7W6AXVh3sei9rNAFnO9AHwAO7EioKDK7oj3rZBpq6u4EMORTutseywE4OvGiwBhFFXYIHfHORNX8vvdxiMoYjl7bdsi3O0zF1ca22E8iZg6lvqMFEMBItiu8SixkVrcKB7XvcA+KW52G1viNeOJMSo/Axp7ZmdKfssuyXfrRNyOwVbH8G/SGUOuYKuBlhZm5PMZq8/B/8vJ5PLunByt6azqJn1W8V6HAFblU8PkQIskRxxxRNchtowaJ8CpGrodArgC1NQN127iAam+ZxtxzPFAn3R5XeQ6wy94MySSMYxVqn6XgB+TCIut6QZvLJ+ngAp9VNXH9klzv6JtKyqL8XucGSg9kE/SbauXFascRJtngqH7Y+wBGKLH/JxzzqkFgWPmhUqGRJHTcR7bLNomOEizZNwrooKoHadOJE+AT2wjTBFOuemgef6ckhnPDoRSjZcYs9W2DLpDeSItCPF9lVdJoJ+jF61fJ510UgcMHE/ifmlLpkNMIcBmVbA+2WxgA32xQUAdgESbBRNR0M7eOku77LJL18fVosuOa6Gjl7YyqrspIGZdRuuN4oDCXX73JNfmyuVfkwQpcLFnbROxkPMDcHGvtHMDW7QwY+YHS99z+3+Js3koNjD7t7PU5g2CzopnpBMFAvZbothtGD8bRUfumYHIdNZ29gL9GO4PZGKrtWwrvtQVlgB8xkvwbYBxLNjx5s/cJYUWgLrYeTSxUANrRsFFXE5nbRejELRDAqNGY0hjf9rwKlexqEznwng4U+adIazwS2KfbnZGPgf4BFoZYWJmqnh7KIPRwBDAyvQeNH+0ZcZNYtxtW0dsXqhSuvVMS67zge6D+Wh781cFYYZh67OXFMeGhepfw0STAEiGgDEhnE0Mch2JEdKbd9//3ypAUzWVBOYMBnMIOFxMohDJOIeKCo9RoloEJG3zZkZsKs9NFwJ5Qjcq+9W2FAEdUM+cC1VrjEf3rM1BbbRMukPuElEtlEA7J7nQDyBH0AGEN9tJMGLQf5vEIGPPWp0Twx5VVzkDjAUmgjHMIyCWM8MGYW+NN6EfCTZgk38DFNuUGxLzHZwxtsvdwlhj7xUv2izuE+aGwsq6667baUuukxieHK2V7NBojK226S2Pf+K/gVps+UjCPin6OU9tk2h5y31StAi6R3lMyFaJj9ho34thv0Cetq6bx3oBxuhaAGRiVwVz0ddzUZhS1KIbbHQMNuBOm8VAdrFibMvVjoRRzF5XfRVbFYwY4J7cRaGrzbFQ3WcvV4tuDncpXzBSfT1gEDBj5ItiqZiz7XY7/Dk75AyNNDYAeOVOsk2AGYUcZIy2i1iaLx9tCD0dAq3YaG26cjO6Gm70HNwJGfcAFiZDDiyYMxCggqSHOKBViaBN1THvi3bxMUOqA90H9xEv3F9WKbPNJVpDVJpVzAAskiAJULTF5X+JXugP+JIP4dTmo6pUN0tl4d7povnT9OX5VcqC2eedosBzGHllTXuYTV50G4L5oJKtGtmk9q6xfhruS1So42e0ppqdItEJwTziPLQpYfGpdGtjdX+9tq2Bm89fm5v7EudCRU1rcxW8E5hpP9Fah3nElpmdAngYbWvjWD+vQb2OPfV8xNBaAEMudKLoIDnKRfVQQqhtyRYiugQSB/sIODOehO4wGmxiUrXHHg5glB4EaWwVXYYACoE6qpMA0bYKO2I2lYSIzTYYujoDTWsOpg27bmGJ2AAQga3WlhYCd835YH8V6GJzUu5/xD+SRzZIQUEbOxsDeACgd2OktWGEQrfzHzFh1S7H1wEwMZcJ4JAPItf2BqT5t3/7tw57to0ijgRc8vkhYiKsGGz08OEAdWM8xI6AdPfSz7hrwJq2CltjJAQbHWL5g8JevjhK9wM7hCmCrS/fYIPEB+NhxmfoRhHKnVLoVEhXrMJ6rBNxANCBXTL2RGuzpQhGS7S1E4T/wrziywBRzpY4sq6bA6vIWJOIkbxGixymUdsKoNXzUbXbumXCBhtmHyMBfB1rH+ipGEowt4Ix2ZbxAE2yr+MawFI5lQRzGHU94WYSYHpwCnlA7wPmRAQgEgDzdyTYEgPBnO+1QbTaYH5UQah4NoGaAe0cgASxOv9EC6FgmIMR/NKjfzidkeYVNVV3dSvjY1YKZ8koanGSHNALOqqKEUpzgKV1z47RZ8hrWxKk/BkFtRLBGIbsexwuJoSKbS7VWQSCYaBGzN9p6rkZ6X07KzYvqq5G4KG9CZNBr34uANB8Zp/kE9Cjqqvy2FTB6jDHiz2qCsBFxVqALxj1/zZ20pn7cuSRR3Z0J5jLQU5AFiC021yHpurKHZHo0YPkEDicC8ajiqNnj8BNZVYygJ3VbbaaM+eemYfRVomNiuwy0AawhwUbwarnxnxQpc7PEj3zfbZXNl0wgfgbd05STCdakDHLgeEhzg4Gn2o0CbBcPIBZ7fVtFWATdh57JOELEde4R9jnVX+OtS4+UOzrVmyRVPOD73vf+1qpOjEgMDxvpRQ3ix+dI3cLowGYpViVz5LjBxVm2lz4BLKwIwC9XPhvbFgAjPZv4r+dqRC2SozpTJrtOB6EXTKU3jgAfk0rdzcWqHMDZM/vnkI8f6dg00YRA8ycObMDchK2GZuRrqoCUDdHN9ePGIGO5bNtLRDTQ8RB/D57jjDA/7tjCqJAz27jE8SWgCt+05ywofRXA+MawAIuYLygKpvVUCfQejN6UJ21NuXCQDCAEkWOR+DRtuBDQOEfg6HrxOUHOAje6i4wdlq0C3C4bQH3qrqQxEjyJIFVcU4YOQGagM0MCNs+Ym0tUEuiNB4lZqIJ3AVgqvfAGcJpOl8jzd5xdwUwo7WuNFW30XKrQnbIIYd0AFAJdJwzSSSW1kgCrBnLfIhFVUfYnIJygVd1sGYEH4oHRx11VGe2ijkPkui2t5xUPy9gXQ4wSRSr26i0U9JPzCCiJ0Ga4A2QDOgbr4JNjI3Nn5troaKftzZ308ucOXM6oE/T2Q8KKYDg6nw9/h8rNrch7p2CjCBfhV6ixF47W5LFtgpwWNHSs/L3+fxT4JQk0TB/m7yqAsCR6GCutVliwLGYJh+m7hwBY6oLfKL10pnqNqSeHcMwAgJqIW+6YJQB5fKWLkwObYPV8SPuGGaozgWv6SYYM4BkdqttIlYeDUThy5w5hbyxiPuK0d+tVXwsv6NJrxErWjgy1rEbdC4/HsvW5kVdD57Fs+dFmHjPEUMCiRUg8lyXzXbufK1Nc2QX9c9rrO9vXAFYwIMqS8iwTZRACXQ+CyQUGFu/VH/qwCmBv6p3bCQYq+Kb8jrAHWq7GQUC3KoILFTLtA90m5GCviroyFvjmvL8o71PyY7KhaH0zle1VTD/eZUQ1TUJQpxDzDXJuRYU1aQ2CvaPILVu2KFqK1qu4ExbJQYjR4M5QjcSKjReTMm2CkYM8EVbG8ZnLjG7ABXcXeNIVYm0EAjmtR1wytikbZA6G+25gDPOiXaSqEL7OiBPgJV/TRuTc8M2jwdxJgDo7gs21bbbbtthYSksAKpylojkWRtTtE76OQE8G+5n2mqDgJ/8t2KKOyWx9jUs4RBMPgFsJJBsDtAGGIFRxMZXGW1NP1/8V7QG0gv/ZKNZLpgwgM18XqNEGfNce652boUITDWMWEn5N77xjaar5knvn14sn3FmFFliXmP1Ic0s4q+cs+omauxYdhujvY3i/EiSnQ3+nK3J22rEP5/4xCc6LbiAvhBFGb6fH2szc8/zuid8tVhY4pyfkZiBpWBeXdCieIUBa4bjeBJ5mfwsNuZiEGHm17WS8l+Kmc5ZXa7SRr1hTsnNzP8SOykgKGjWFXTFQzqNkC6qoxbaqJt4JjpSmFJownKtsmOj8MAm6YjJZ+/SGeae2JzdH8qipYFxAWAJPBk8oIHgoboOHADh8Kqo1QmUHjXVnBVAlQqbqmNbEFkBhWoQVpAZDJLpvNqhNxoAwQBo+aqKr6OB+1kVIjNmgF4jtcUtWtdgwd8NNoykzzML3p0xLal1Z0Oi4HVYfSEx5LU6THnB39Gi85MSwdiyJEB1dyQCVRDZO+ZkOA8stfzsaTWVGLWVTSNYlRg6G54dGN6trQ1IjOmQnx9sPskioLnpAuD0bM6KYD5vhdByC2zAuGOrRhIAsZbv6oKNpuun2/tnc823uPDCC5/0EkAVXUooQyTRgBznTcLIL7LpWlDyFpU26UpCo1DlbGGoeU5ny/NjNobEvELnxj/ACoCW1l0/340d0lRdsT3uCZuctx7H8/DrYh02B0AsTtJeYayAhElcYCZaPuNScine8nNtErpyfkYb9OuZxUL0lc+W83VMYmBgdTlJ0/WE9epeYeRh/4gDAQ1VYd/5+Lo5X2JOha62Fh2cG8sfAFbATwWpqihEACCAMO5XLhEn8oN1d7XpZ6ju/bMj9BWbGMWIZl35Ol9XN9cT0KcAGkO226iX/Jn4b7aGTXF3MGUBo92Yntrc2XwxQduZoPRkjqPODu2iYmQt8bEkK9djDPiv2yiM9Y+A0Ta73Ya7MS4ArAg+BO0CUwE7NkOADDG/wQyV6nDg+JChsKr9UQExk8XX2iAMX775BoBgiKZqIeE86QyQIMGuE44F+yhmYgh662j0TdeX9gigVQjdOUd0FkFGt7YuG/QY0ZwirmIbtPHRKNJN0120Bvi36pAzoiWurtWUM1UJcVdz8XUMvjauqhWEaUHBhnEOBCOGQhqcWRUVfe24VVDGjAJBWxvAGgkQu+E+uSOYHHnQgFWlsopxlbemVHUlUcDsA+q0VbBdR1pvzRYpImjZZndCtMEHRd75w9aKFpU2Vq5jwDjbgmUWEkyI3J/lszC0+NALHQp42fk64L3J50s8A5wDzNS1P2pBFbg7a5hngHX+/ZprrumwrtounjUfG4G5oKVGAu1+mRHmDvlviVK0E2IRASkkirlenSXt3N3GVTRVnzFKg/+qgujVZ9IK515VZ2HFtt02+LG6z1Es/OlPf3rUViT2ir3GxK7OG3T+FOCB6uNBxH7sc+7HnTWFUEXjuoHtmEVGlYgVgOteHx0ybdOZHJRNdmfy3MH5UADks+pyCrkcvcT3kTPETG0U9hcjVm4KvLMUAsCJUVUVBVJzZeX4ud4Uu5yptrGK2/B5jwsAy2Xdd999OxUxCbTLKjhTBTEcm0giBbCoqjlA4XtaM1RfBTRYSgKT6jysph+GqI5JIlVeJcZ0YgsK4Uy18dStqqVfVVnBiwosFLutGxkkQUBOAF+dOGdawuiw6jwk49g2qpSqJs4TR8OwqhK0QXJnaMuiOwewErCqLlp8UNdqql1H1UgAl+tNsCLBavIMp/xzNc8pb1viTAE1AGRtythFdYwIwCnQBoATQzndO2xSLRhtAPg8D0BFEIoG765gxrIp7hXBcvS1KtDpe4Yn058q2xlnnNHajVVsj6BKULbnnns+xWxgDgFBMWsBx1hYmEb8HrukFdPMJncrRHDGhudfa6o98tkbBxDDoukhZzU6Zwb82+KVt4IFgAWs4fsw1Zw1Z07SDcjKB1A3VT/5+46gvjqk3Wtiw3K0GAJDsbDGwxwn+gAi5FvKtGw7R+I/81JU5rHztSxLfHLbjIGGVQTUEguJCbAALAZqg7BBmGZRxOXHFO6ADVjTCjLXXnttx/64M1pQYyg74F3sk28PxhZ1T9nuNggb45m1vxGs/A022KATRztX/JezoJhAPwB14B7h6/gyuQrGGlHEEzOKqdjz8SAALF0v1Y3uYbPEBTEvNddHzFEF5GDVYtdgcbVNovBUBX0tmVBgcN6quqMDsSQg3j2V7yrMGGHS9AK6O8c3GaweI0eqs9O0VhqZwDZVR9rQlRhInC3Pd9+OOeaYzuvpJy8Etu0sNfV5WgVgqShqH+EUOMtYWRwfjoOJnqsdSXCKsiyp9v/QaMGGIbfaVEKCncWYctJNv+QCKRVUz6HP3vOHAFEACAA7CQ9mkMBMMKdNALAn+MiTZWCEypsBwGatVOdnNPVidHvfWgCdK/+ubqb0MyqJzpnZMoLcqgBMBSfOKici+G3LGl/BhERYkly3zQwrhmN1xwT3uWDcqHL4WaBpOCFgX5VO39QzZT6Ryk/dVlPPxNmaUSCQzbcyxvOqHgneBGNex4apprFLwZZsgm4kL56PzQUW5C3dqqrskiAU4CIQcY8ANdhpwBmzd/JNXxgN7hExyNXr8hkrTdDJ/L5HQDB7XG1TolMgIHts3oz/Z7vZq/HAnMGE8ezYDnVz8yTIADw+zd1hd7wWkMX2AP5ssMz9mM1e4omm+jYMBL5cQq2IUp2vIyaiB7HBSCJRinlYdcNw5/cML+qvj4q8hC8Gh2NQAUjZ8nyAu5hA3JQvY8EUlTwDcTD6zNBqiwDljIiI1n5nQxwDWFesAtiwQ9oL+Tu23NmLLXuKEwBRthq7GJjj7rZlOzViNQ5RAAAemUlEQVRfzd7mm4KDbe9MYBpLprGN+UJ6cn5iJhbgSpytWMXOa93l9/2OtgngQJGgKpgzmGt17NeIheQr+VB/uZ8YQQHCnRMXiAmaLJ5RzFQlBbAr4mz+qzo7NWLNutEkcmR5CPukOJy30TdRT3JQ8SLQCWgH4FXc69YhpZOIzwMQV+Xyyy/vgFZ0JD6Qx4kvu3VmNVFfbXrPrQGw0P4gqtFDLxnEllE1CxGkClxjC0MMIPd9DlWVgxPFaIhqEUDChWg6cEUfmB4RcPh/wQQjFskeVFplOq8kxgrfGNKuGsv4qRiFcL75yuO2XJBum08EHc5EfrbyZ47NjIxodd5aW3RT9xzRagrA67ZVURuhgE1LT1Uwb1DD/R6tLSpMbQMiYp5eNfAKXUSgCsCjg1zoRVVIQsoeCYSbNqzUc6lkCb5CqsN7tdqoIoadBiwAe4kWComgQAMIzB7Ri2q+4KWN4jmrgHDYGHNBBOojCf2wzwb+t4UBMtLzClwxFerakQANYoRYnQ4sNzdEwJ9vBGvTOcLozFmfQGPFhJhnqboMEDXnK4b71z0/IFk80G1VfZt05lk8LzZ5fjbcJQm3du5cxFHYi2KhtsxGHenzdGfcndyOe72YEvMl3zTI17Pp1W3fOiAk3xjadclkk88TPycfUWyJ4ornAVDRGWZfLmyWIk3eMi8xB2TRXfX1TdZN/t5j82kw06rPxb8r6GFi5QJExlRzzvL2N35O3ODOtqHVkq8SBwYAXNWPZ5TTVe2O//dzzl4OemIEurcHHXRQJxduel4rTnQ/AE3h00e7G+IgRd+q7Rrt54bfX/Q00HgAS6IskRNsYCRAogFXUFSr1VV/oPWEMcDyYORyhwCxV6UWgEiEGAsJQhvEJTUjB2VZdQz4pHKGFqkyoaKoIh0SK7EFaTEk0eYGX8d60OrE2aoutVkYRMwf7DKgQj7AN+jczptqfVUYVcALfdOdYbec8EgrkJumS8/onkV7Sbx/ZwmLoa7V1GvcOwk3xyvIqJNuwGHTdEQH1dZQwIt7pV1QC1OdmK2iRUOSWdeq3ET9aC92jxQInBFMNK0T2CCYH4oJIaqoqmSALW0CBFgsaGXLVKSBWqpu7Fdbxf0QfAI7+TCBZz6rUMsOQA+gORrQK5hlf8wFaZNIjquVVvfDGeHHq63H7lSuqwj0nSMV3LZKAONaczFlFWCwG3ydxBDbbttw2SvJEJY1f9b0xCc+ZzbEMymWxPbEfNaZYeRiQgDVSEU68ZAqfYDqbTpHbG+13cYdUzBwfxSeIg5go7E6qucDEMOmd/P5TdaXeLCu9VoOYmA9ADkY0vIR4Gd1hhxAQQKO7TdeRFcLAAoAAVSva2MDcLFRco98MYB7Jn6otjNjzoi727DxPEA6Z4vf0sJejQe17LpbdbEQBqTzlG8cdFbZszaMLImtk3VLIUa6QwpbCsGxcIvtcldHWw40Xu5lk56z8QAWwybhwwiKeVY+gGBXaaPIN37EhiqVjrziyjiY8aRdAEoNnGiDYJMJ8M2uQFHORRuSuQOcQQjjpkokuM03CQlYtGSY2YRVFLOx2qCjumcQsDtTNr6ggTsPNr7FLBWMPck41lpdMB/GlfMBImKNqFq2QWzrNM+DuF/ORVTzY+0skAZ4V6cblFzgDZCGE5E8mbk2WhLeFN0J+OlHBdWKY4AeZmMIYEZrMjCrjjWkLUyAQbeAdYGM5EhrVFNFy4T5evmwY88S7CpMonyluDOhKgugyJloXicB93NaUdtQZR3pM5X0xVY8CbRzE8Fn2BiglKG1dYIJ4HuKNIZPtwV4EJhLCgX2zoAWuXzOlaTHiADg3kjLVthmtkuM4L41XdgU/spZiblx8UyCdoWUaCGJVltzYuhAG0/O6gTasF8YV77Hf9UtmGiyzgAwWnMw9oAK4hznAPMq2J38kmKfqn03Ye8lh21jygCBxXyKTmLmfAOe9iSxIN8tHhpJjFsAmrYNwAKgYHSwq85HvtktQM2xgOOKEdq8xwuAZSsje/K5z32uA15hn9XNtOLnxdBGSYiDchDZ/WzrPL4YJ+G5PaPOBDkqf1cF0t0tNl08nS92ectb3tKZAUaHbRTsRm3xbHedwAbkIzFHLn8NQgebjhVqbAW7PZxz1bxT0ngAi8oFV5deeumTWv8iMK0CVV6vio1m2m1LQ/M+xpHfcVQrqlumzCwQ9Fc3x8Tcr2pS2Ta9jPQ8Ej/zwbR8AWgwRTgVwZzEINrltGZU9Sco1pfvNRgjbWvbCQaagF+CKAHwtRDPrY1CEllX1aCfqCR5LT0L3NqSXNODZ3KGBBvuHwp8DlYBJgyMFGDUiTa7GGhPL5LSGPLa1HsogXZOcpYCcEZ7XF27l6+z4/nWzqY++4K+b8kP1gwdYGEJVAX87osAPoLX6lYvf4+uAafumDkz2sTaJAEwhN1wlwAPJOwzOxRbF+ueXeuSQlbT2+I8L2AcIy+X/F4pwgB9ozU3fJzXAyAwQ4DM5hcpbhFgMaCrzW1x0Y6rFcc/WmvcFTEl0fbubNXZIQUsxQX6l2C2bdCvZ8+7Eaoblp0LRai8CFp3z9xVTDdJZ5tEbKfrw3w8BWKsF4WFEAUbCyUUpfj7bgKg8LNt3nSmIJ63s7HLwSjWySBWVEDPi330ZTyMeNrMMHaamGWIkZXb/KafK7Y5J2HkzxM2qlurO53RE0JC+EN3s24+VtP1FO/f85mli4GVC1tslh5mv3tpGUlVIu70dTlem+9dWz7vuudoBYDlwaD0HICAVIIs2IesagUDQDB+IYJ/yTdj2raVxt0OqwqHoZkxwD0YES66JAiFMhc0XAYCit1mUbXQakog9aoWISpi5jOoMGohpCOVfgAWajNWg9ZKNF5DAUNUbJ0/rxeYtFFULrSUSK7pSSBhforgX0CruoENgL5cBabyDU3unypT2ySG/dOH6g4n6zm1KWEaaaPDclT1qQZshrdiqGGwcayRlDddR56HDgRV2pAMJtWiax2084KlmM9zUnmUlKuWVQdPN10X1YALSwpwQNyPmPklaWZDgu6uLZW91iKHDeMeaotXxIngnj1ifySVmKSYxW3bmktP/BmgQVKM8Qns47fcPS0k2lMk4HWzCFWysY0kBAo2TWXyCdbN9vSMgnUAlH/z7xLCKjsGW914AMzGmKumKENPQCsJJD/YlsUZ+T1jXxQS+CN+PBi/wF/3yRmS7GCHuFfOiLjRaxUcxJiAYOJnFAAl4fyg+KCNm5clxM4FphXGjNZvhRigJpuM4Q+0Y4sAVLmYHyvBNCTauWxrrO2z1xroHrG37pfnjXZtwJWcpLph0d3V+mU4u7OHTVLdgN4WPxfLWcSLQNCqBFtNDGkWX1WMPJHL8XVYRuaosm8A9rzlt8n60kop36gbqi4OMFsWGz0vFsfzskvupnjSnEext58BoPq5Jgt77EwYWeK+hGANy/mrOap42n0SOyrMVLuz5G7+sYTD3WtbYa/Jn/X8vvfWAFgOqX9UICVHAnpBh1k9EiAHmQONXnXBrt700TbvzK9CF9XXqybSiWCfMxBcxGBXBgIi7euxBUbgC+ATxLWJGROfD0YLgImBR/8HMmj5QgPnCEIkRAyl5Js4L/Ti/xlBga5kMd84SJfV2VCL6rkY6X0JXumHM1Rl5lyxP0is8I3WG8EEcIauBLKACYFuddA4MNl5E6g0PaAVgApcAQ8AAs/snxD3DYDnDvkHEOUeArWAEEBlgYdkMjbpoMmzVRIG1d22rcz2zFpQsUEklOaleMY4axIelUj3J2YVuJ9tbFnGLhOYHXbYYR27K9CUBLk3EulonQy6OzBTSylhd2xpUogx0xDYlzNm2beYYdhE2xPvGUsaICVo54cEnfkdAzwpQriDGBBa3gDAKvpskwAXkMdesU3aewENdC8h4gOavPlMskwfwIWc6RsMdG3H/HpItCdX23XYJ0Cn80enzlMbxGfPN/PZWkmxWLW+YZ4HGOU5MancO8BftEm6Y3zZ/2/v7nGjSqIwDHsgIkAaEbIGB2QkrAAWQUbCAkjYBBkiYAcsgEWwBhJgBwRko6eZMz6Ub7fHxkjdVd+R0DC4bfm+t35OfeenBKeU7drj8KnbrbF3mJ7BP+LP2OcFE4icPaikzItPLdPceiPwIlONcEPIKqHU98o4JtYQB4l85qvPn/oFCYQB64v/asdhjlRWorYjRCqBUFUO5qI1y1mDj2h/5+8IrvOhWGVLEgd9bwX+Zphz+57BWDAfRyGvPl99+ozF3u+qvi7xwDzmFzjHWNtnMnuR9cZeR8wajb/J/zZ2tFcYDReBUuuacXboQo5j5+ZZrTH8QXuZd22dtd6UIGcddpZwlu0BOpULxC6GgSosfnj1nbP38bdnaely7O/yT/5+0whYIBmUIkIi0P2KYw6LCL9JIdoq2riiERhELOrGj3K81BBXnxAHpLEMYTZWVHebZb+5wthQQkFgwKOEA06bsaR0p2eByJApAcb3YsrJm8UcgMs593z+EB9wKLMxEFsw49T5jJ4ZDgyY6RmmhJLo1w+dszByCCqB1yarqSinvR9oHJr7DTLmloatPqPBtOyJmW9A23rXDjkOOGP/OHNSNoNxREyeQYA5NNY5YpwtB0fllcz+ZR/TV8WhpszYIub0snfrlIi9sVdjbqsU81Tnm2dRiotJNyU6FXypJuzKdOzzjIAli0h5iiw/YmgXeE7xEoRD71AWsIPPWH7juR30xswYB2uC8VYLhZnYeD4HGYdmgQZiObMfEaXsT/0gSGQRsCHEdKsWFf7NQcmBaRazdlhDrEPd+q1wMjms2XUTtc/VZST+TtSTqcaHtB8yc9eaNEN2DFHTHGPlCxkrvZ8XEYqvWHPK52TOOjgTRIlY9n4CegUBewndLOOpnmPrApsKeu7LwvK9+hryq7qfORsbzyNrqFdt1NjiL1q37Wtb5uxK2DF2ZhDO973bugzKs1bAYPyssko8ttoE1Wfr0ihzr4J/M46nVZ9pKgFL9sKzZ892A1pdazcbh6wrTu2hZpwzDwROK+eVcIPVaCK4RC7ZVwSJWU2UQq35KHTWgjhGgJQV4mIDroMmNqL+IkKEHlkUSgpO3TijDjyiZLJDiC+cUA2RRRdLrKrnlP3h66KQtQk7LIhei1Zy5GSoKbecwRyIbYQfP37clQi48IEQIQtEtp7ynZ7VKVpmrumPUg6Hg6bsEJlIHBGHLA2T+w1zM7Da9wwO1eaTiOpY2mbMyFTDbV9j8lnYiL5bO8a5wbG1lvQr1e1fygqNmyp5Lg7WLWK6CK6siFN3bOtCFVxEYGVVEbLMm7rBtLOxnnv2vm4rFVOqyhF2+HZonLWZrXFgHGEkw4oJ0liDjSUZMv3WKYds2el8pJlvXiR8ymQwb5SbdpOJRVwYL7AxvqzvAp1l9jAZadZ6pfL7DlSnti7xgcwPh0BrMiaEJ2NGP52eoVaBvH4pkvWbv6AHlIAfYY+ITEyewcwNQSZ+szNDXVwjQ1+5dhcRqum2wF310yH8OYBbs7Hy/9YplSKzGj/I++cn2YusQ71FAh9Sibx9fusCG2u+/R9f1TPOIsbUqe9p/X3b9/WOJQgrT+5rs/XF+iODrwT3/r2EUME/c9SYJMLLIJ5pTBHPCcb840OBb+u7fYzoRxDc6hFrLCk3VaJ66DKXWefj7M81lYDlZTlAWhxtOpVGOPtLvM7zqSGWhbVvgbzOzzrVz3ImiA42CBzKbKxKTxx0+sGaaOOAIENEedPMpgxJFMyhUeSxm8jQmKFXt/BsjSeRRw4NoaecvxnYicjjxJmoaKrnUh6p3KJnwTggOUBxWsbUec6/EktZamMPuhk4HXoGJanmIbHi0PX0M3MgLFhveoN1ByGOPUGcANHNQVFfJ9xmyGzY925lhVSpP5Ghbjj1eQIDIas31DaGlAcQZMbglLId4p6S3Zmc/JGd0goihPFB0LM2EdSxcRCQ9Wm8FVdjS4Zfb/o741yTDewQYxxUH1TCg/3fmksg7WZ/V948BmpmZCOgK4tovNnM3q/MZszmlIFt7dF6o5uMSCz1nSOIzdLIXtk60VKAgBhTVpfQWLd7oJefowdWvwTB9xCMiYR4+rozysxGsJLRp9enYJ6eTtX3qvxLfg9xazT7n3WL38i3ItAow5zJ+NCEOmV+1iVjQ4C4BBbcCIDGUfUp7M8vsFzlb8R0oteptyzp2Yj2amf3rcbquAgI+7pEDOPFnqbdgvHkTGe+yeCzlvO/6zKOmcZQnuUngekELA/FuefM9ihtXvgFAf0NLBir9P/aevccd4eeiihywGQ2ODyJcDgkVV8i3y8bxALpYDC7MEqEIcbIquJMlNkkObAc1W4OCLKubC4riBGEJw7tWPqnTFnpm7HVrW6Q6Yeo1dejq27VWYUPJ928cbip6OpuY/7rr91hZxQ2zUHfIyNrdvOshJfe/4yjau6NPZqs1yKwMmf6VfazM+rPpxmt4J1AjKyPylqoBsg+26+dn6lc8NB71qvIQdA8w0QwSom8vxOQtQMo8xnzqw6Xs48fc4yf00sIzTnijB5f3QT2BGP4QtWgfHY+1WdHNlD5fXwgPiJfcTQihEw0h+hVTW9LwQJBBkKVLCNz7fPnzzuxocT2rRsHZbfxqwSQ7XGnLsxsjYG6FV7mlIQCAVFW5XJ1i7c2Ahr7d3Om1dcJT/NzhgbkAuZKcCsbWHDBvBtvb+dXa+JPQBbUqtuF+U7Gyzjn7IP678XmJTClgGUDlhGygpN/k6EpIqufk9TKWdK9b8LBs4tycDosipwymwdRSwTIIip6VEKWhdbXRCJntnJUq0eYppKaiutZJMKBm4a/ZdUvS8RjzBqZkZMxwunAAyulf3pZyWhQLmk8KT2ozBGHIn1GZI8YV7GfUWmHAIdF6d2rmlJUY4YDJ6DA6cJF5pGbrBy2ZYnoNcc4vMoqiBJb0dmZOLrtVXaHDBHjRVmpDCMNXfUr7DcSeW59r2QcKR9c0bByKLJHjY67fmmi9saVcrDZx05//w7O+hGZY0pNHKqNIeu4DBtrs7L5uonSnHTI7tnZs44nZbb2cuuJ+UP4JALzeZTDEfh6lpGyQ4E++5i1aXarjCFrscxG5WzGjBJLfhDBpWdnuQ1UGxOZf/47qxGn+Dz8H8Kekq/qS1hrsab3gjL2dxnF1h1ZxOaW+Ud0cBYps35Zt2RcGYunbNYWvrDxQ+iUZd/b2nhGQrB+jUQZ4pUeutYo64/9Xkn82I+PuKPE7lRvzd16p/xiZ/V6Vhl8WpOMCSjn5+e7W+JxdBGL9i3VTsF4VD5PaNYv1Nyc8eblU54Tf+J3n1LAsmB8/fr1v3T5PwHu1H+mjBkHhJVNo0lilIwiUbVuUno5Lb6mHt/GspKJfnA2lBkQY2yYGNhUOfY2E4zqBi/RInOuGimvwIpQpeGoA7MNUy8DzW1dGS0q5JY42WmiiNhwdB0YelbbCpz2PSNGmt7PntF41TvmzDsQGjf99i+iOuFYrz5lcJzgU78S+yoW/euyQvS4cJhRtqS0wp5FOHYzo56E1ilcmEO4g5JDwyr95Eaeyi+KjbLl2E8CynRkfYriE4jLCJ5Kehx+CDnEYllGq5gsBn3CCHwyQwibglQyqR2kieoOiUS/yqIhaBljfa2amRcxwWGacCV4QEiX7YkN4cG+bx2q8lx9exzClXbNZgQr/mDdIEwkcBMc02eOP8RchsAnIlYRHZhMLP9P0LJO+b5xzzt1XoQrDcP5w/pUEVqcLTync0SVMRP2rDP8wyqVw0ybEiK7MmYl3xINlMzN1ANsfMdVElklyxIHjBHVDPvMPm/uWc97i4FTHz/5/a9HYEoB63oI8umVCYgw2igID1tNJUUhHSBn7jmz7/27gl302mbSN9C6/axuXyR0rWh1KNJMciydxM64EZUUWYyFwCECRE6Rxa2+D3Xw7lmPq9BUTlJlJWPUWQk4BzZz7NfRIAKtBC4tFC64VFmO3ntuphpNtohsiBXnmIMj4cp+1pvXYyQrhGDBtkq+VlmHiJ4yzgh33RciNjx58mSHgWBFkJjVKjOfUCeTs9tWf1QCusDdeNspP1vlQ5lstlkyQrGRSSQg1W9R1vdMMFyQpYxfTeiUuU/wKiPs9YsiZPWphpjVav0RsJL5WSWmWm7Yx7ZMkgrhaqulyayc8lyXCUTAyqhYmoBoPqd2vHloaSj/PryotOjiVmmgVF0bjH4PmrWvGAXheHFsRdIIoN1ssCJu/l3mVXdmMrZCYCTAgRVR5MTNHG297pu3zphjshq2hGAZn/qEyAhQihE720XxlREKNKyaibY1DvSwxMa+tlpG9VXzQqanzEXtAsb1R/ajjAclu71M7KqfOdPXHaplockKGW/oJqK78IbA1YWImZ6/nkXrBGX/soW6CdjJlu2iOeFKBpKbrMdyb3NQPz7Bz0M3zZ0aQ8KT3rHK3vs8Ig7bvwSEu8lSM370Luym8bjMKwJX3QR+aiz676utD9+GWLd1GyABVK9Ln2My1VQJjX14fU0wQgakPyuUeZ/ye//Tv3sErD9NOD//6AmoRVeTblOWcRW7IEB80c9BtEjGQ+xXAm6TsdmKvvZeGOEUAtchwClzAJDJJzqt8XTsJwG9U6rJq4N07GoCejfqURO7IKDPCjFUUMYtVbELArLSCDMEBWXuscsEZNFobr/CRT773r/bKd1SqX+uecRkoAseEIf1UOumD5S+jgSdv//+e/phpSWCMn89nGRblYhF4FOma13uRshzQ7csx7pZcEZIypGJe5IFZHmOoqUgsCwzAhcj6BH3jBtCp6w9wXKN6wnJRD39MGNrE4iAtfb7z9P/S0D0jKKvXCd2QUCDds3rZWFxUGKXCRAbZKBx5JI9kxFyUwLWHjfoKRmY/aKI6zIiDn/69GnX/yoWAjclQHwgFDuAO1TGLgi8f/9+1/NS6bv+PbFfCQjkKRGUZdQbcq/GiT8oW08GutJbwYW60VR2zbdv3/4LwPh3N8fKxtJoewWrG5ZlBwmIW2/0lytGfGqNy8vcgqrHpb1t9v57xodMLNnB/ZZ3N3gTOMeyd+Jeb/TvM9bwWAggEAEr4yAEzs52GUZpers9FGSn+aOcJ3aZQJWh6qHy+PHjIAqBGxEggBJCVyzHvQqYyKvyJRHZBw8eXPXxfD0E9hJwANoqY1kdmd49DtD9YoTVmfTnJ0DIrNGvyV6/qmle7/IeGUUuQXj37t0uO1953PPnz3frsxviXILEZMrohSUj9P79+9Njk+npYgRCn8b2gr/2LoKffrsuQpJtVb3l+I+ykwhes1c5fPny5cxNpi5DcPOrccKUWBK1ZGqNZr2WIaq/2OwC3/ST45YfMALWLQPNjwuBGQnUDUUzPtttPFP43AbF/IwQ2E+AeNVvkAurEAiB2yVAhNB3JxYChwg8ffp0JzYQaMbegy9evNiVyrldV4uFFddsTdzdNv3q1audgNVNLz490zQgl8nmdt2VTNN2veIIm5q0y1hzw6es2GRYrzQSfv9ZI2D9PsP8hBAIgRAIgRAIgRAIgRAIgRCYnoDSQJlDW7edalh+fn6+Kx9c1fRp0r9R9tloP3782JUNunxkVXv79u3Zy5cvd203qmfjKmWmq77z237uCFi3TTQ/LwRCIARCIARCIARCIARCIAQmJPD69etdGRiBJiW5l1+whv+PHj3alVXqLxe7TKBaAygPlH2lV9qdO3eCKgT+F4EIWP8LUz4UAiEQAiEQAiEQAiEQAiEQAiGg/I3woE/RytlW+0aCHk9v3rw5Gxu3Z+RcENBbTrnl9+/fdw3bVyw5zXi4GYEIWDfjlu8KgRAIgRAIgRAIgRAIgRAIgeUIfPjwYdeAm4j18OHD5Z7/qgd28RFBxg2W+obFQiAEbo9ABKzbY5mfFAIhEAIhEAIhEAIhEAIhEAJTE9CQ++7du1M/4+8+nNsH792797s/Jt8fAiEwEIiAlSERAiEQAiEQAiEQAiEQAiEQAiEQAiEQAiFw1AQiYB3168kvFwIhEAIhEAIhEAIhEAIhEAIhEAIhEAIhEAErYyAEQiAEQiAEQiAEQiAEQiAEQiAEQiAEQuCoCUTAOurXk18uBEIgBEIgBEIgBEIgBEIgBEIgBEIgBEIgAlbGQAiEQAiEQAiEQAiEQAiEQAiEQAiEQAiEwFETiIB11K8nv1wIhEAIhEAIhEAIhEAIhEAIhEAIhEAIhEAErIyBEAiBEAiBEAiBEAiBEAiBEAiBEAiBEAiBoyYQAeuoX09+uRAIgRAIgRAIgRAIgRAIgRAIgRAIgRAIgQhYGQMhEAIhEAIhEAIhEAIhEAIhEAIhEAIhEAJHTSAC1lG/nvxyIRACIRACIRACIRACIRACIRACIRACIRACEbAyBkIgBEIgBEIgBEIgBEIgBEIgBEIgBEIgBI6aQASso349+eVCIARCIARCIARCIARCIARCIARCIARCIAT+Aea6ver5C/EvAAAAAElFTkSuQmCC;" vertex="1" parent="1">
          <mxGeometry x="-120" y="428" width="1200" height="360" as="geometry" />
        </mxCell>
        <mxCell id="PSBkZj55ngZQAnnu-Kga-4" value="" style="endArrow=none;dashed=1;html=1;strokeWidth=2;rounded=0;endSize=6;fillColor=#e51400;strokeColor=#B20000;" parent="1" edge="1">
          <mxGeometry width="50" height="50" relative="1" as="geometry">
            <mxPoint x="-75" y="590" as="sourcePoint" />
            <mxPoint x="1080" y="590" as="targetPoint" />
          </mxGeometry>
        </mxCell>
        <mxCell id="PSBkZj55ngZQAnnu-Kga-5" value="" style="endArrow=none;dashed=1;html=1;strokeWidth=2;rounded=0;endSize=6;fillColor=#0050ef;strokeColor=#001DBC;" parent="1" edge="1">
          <mxGeometry width="50" height="50" relative="1" as="geometry">
            <mxPoint x="-74" y="486" as="sourcePoint" />
            <mxPoint x="1081" y="486" as="targetPoint" />
          </mxGeometry>
        </mxCell>
        <mxCell id="PSBkZj55ngZQAnnu-Kga-6" value="&lt;font style=&quot;font-size: 19px;&quot;&gt;5.97&lt;/font&gt;" style="text;strokeColor=none;align=center;fillColor=none;html=1;verticalAlign=middle;whiteSpace=wrap;rounded=0;fontColor=#a52711;fontStyle=1" parent="1" vertex="1">
          <mxGeometry x="1062" y="564" width="60" height="30" as="geometry" />
        </mxCell>
        <mxCell id="PSBkZj55ngZQAnnu-Kga-7" value="&lt;font style=&quot;font-size: 19px;&quot;&gt;11.63&lt;/font&gt;" style="text;strokeColor=none;align=center;fillColor=none;html=1;verticalAlign=middle;whiteSpace=wrap;rounded=0;fontColor=#061cb7;fontStyle=1" parent="1" vertex="1">
          <mxGeometry x="1065" y="460" width="60" height="30" as="geometry" />
        </mxCell>
        <mxCell id="PSBkZj55ngZQAnnu-Kga-10" value="&lt;b&gt;&lt;font color=&quot;#9a361b&quot; style=&quot;font-size: 16px;&quot;&gt;100%&lt;/font&gt;&lt;/b&gt;" style="shape=curlyBracket;whiteSpace=wrap;html=1;rounded=1;flipH=1;labelPosition=right;verticalLabelPosition=middle;align=left;verticalAlign=middle;strokeWidth=3;strokeColor=#9a361b;" parent="1" vertex="1">
          <mxGeometry x="1094" y="590" width="20" height="112" as="geometry" />
        </mxCell>
        <mxCell id="PSBkZj55ngZQAnnu-Kga-9" value="&lt;b&gt;&lt;font style=&quot;font-size: 16px;&quot;&gt;195%&lt;/font&gt;&lt;/b&gt;" style="shape=curlyBracket;whiteSpace=wrap;html=1;rounded=1;flipH=1;labelPosition=right;verticalLabelPosition=middle;align=left;verticalAlign=middle;strokeWidth=3;strokeColor=#0b1bb2;fontColor=#0e1aad;" parent="1" vertex="1">
          <mxGeometry x="1150" y="489" width="20" height="213" as="geometry" />
        </mxCell>
      </root>
    </mxGraphModel>
  </diagram>
</mxfile>
